<svg xmlns="http://www.w3.org/2000/svg" viewBox="0 0 264.583 264.583"><g fill-opacity="1"><path d="M574.9 285.6c0-4.5-2.9-8.2-7.3-8.2-2.2 0-4.9 2.4-6.3 3.9-1.4-1.5-3.9-3.9-6.1-3.9-4.4 0-7.5 3.7-7.5 8.2 0 2.3.9 4.3 2.3 5.8l11.3 11.3 11.3-11.3c1.4-1.5 2.3-3.5 2.3-5.8z" class="st2" transform="translate(-921.094 -440.541) scale(2.02205)" fill-opacity="1"/><path d="M526.9 321.1c-1-.1-1.7-.7-1.8-1.5l-5.7-33.4-8.7 16.1c-.4.7-1.2 1.1-2 .9-.8-.1-1.4-.8-1.5-1.6l-3.7-25.8-6.7 15.1c-.3.7-1 1.1-1.7 1.1h-26.2c-1 0-1.9-.8-1.9-1.9 0-1 .8-1.9 1.9-1.9h25l8.9-19.9c.3-.8 1.1-1.2 1.9-1.1.8.1 1.5.8 1.6 1.6l3.8 26.6 8.6-15.9c.4-.7 1.1-1.1 1.9-.9.8.1 1.4.7 1.5 1.5l5.3 30.9 19.3-64.2c.2-.7.9-1.3 1.6-1.3.8-.1 1.5.4 1.8 1l10.2 21.1c.4.9.1 2-.9 2.5-.9.4-2 .1-2.5-.9l-8.1-16.8-20.2 67.2c-.2 1-.9 1.5-1.7 1.5z" class="st2" transform="translate(-921.094 -440.541) scale(2.02205)" fill-opacity="1"/></g></svg>