<svg xmlns="http://www.w3.org/2000/svg" viewBox="0 0 264.583 264.583"><path d="M238.574 163.45c-7.553-10.61-42.081-53.411-106.282-53.411s-98.55 42.62-106.283 53.41c-.36.54-.54.9-.899 1.26.18.359.54.719.9 1.258 7.552 10.61 42.08 53.411 106.282 53.411 64.02 0 98.549-42.62 106.282-53.41.36-.54.54-.9.9-1.26-.36-.36-.54-.899-.9-1.259m-142.07-26.435c.54-.9 2.518-3.237 2.698-3.597.54-.72 1.439-.72 2.158-.9.72-.18 1.619.181 1.619.72.18.54-.18 2.518-.54 2.878-.9.899-3.417 2.337-4.676 2.158-.899-.18-1.438-.9-1.259-1.26m-2.158 4.497c.18-.18.18-.18.18-.36.72-.9 2.338-1.079 3.597-1.259 1.08-.18 2.518.36 2.698 1.08.18.719-2.698 2.157-3.417 2.517-1.619 1.439-3.957 4.316-5.395 4.676-.54.18-.9 0-1.08-.18.9-1.979 2.159-4.316 3.418-6.474m23.918 49.274c-.9 3.417-1.799 4.676-2.698 5.755-.899 1.079-4.136 2.518-6.114 2.338-1.978-.18-2.338-5.575-2.338-8.273 0-.899-1.439 1.979-2.158-3.956-.54-3.776-2.877.36-3.057-2.158-.18-2.518-1.439-1.978-2.698-3.597-1.259-1.618-2.877.18-4.496.9-1.798.719-1.079 1.258-3.417.359h-.18c-2.338-5.395-3.596-11.15-3.596-17.444 0-1.439 0-3.057.18-4.496 0-.18.18-.36.36-.36 2.337-2.877 2.337-3.416 2.337-3.416l2.698-.9s4.136.72 7.373 1.799c2.518.9 6.654 3.237 8.992 2.158 1.798-.72 3.057-1.619 2.877-3.057-.18-1.799-1.619-2.158-3.237-1.08-.72.36-1.978-2.697-3.057-2.517-1.08.18 1.259 3.777.36 3.777-.9.18-2.698-3.777-3.058-4.316-.36-.54-1.618-2.158-2.877-.9-2.698 2.518-6.834 2.338-7.733 3.058-2.698 1.978-3.237-.72-3.237-2.158.18-.36.18-.72.36-1.08.899-.899 3.956-1.258 5.035-.54 1.079.72 1.978-.18 2.517-.718.54-.54.36-1.26 0-1.799-.36-.54.54-1.079 1.26-1.259.539-.18 2.517-1.618 3.416-1.978.72-.54 4.856-.899 6.834 0a3.69 3.69 0 0 0 4.496-.899c1.079-1.439 2.517-2.338 3.237-2.697.72-.36-1.619-2.338-3.417-.18-1.798 2.337-2.698 2.517-3.597 2.517s-5.934-1.259-6.654-2.877c-.54-1.619 1.619-2.878 3.597-3.777s7.193-.899 8.452-1.259c2.698-.54 6.115-1.978 7.913-.719 1.798 1.079-7.193 3.237-4.316 4.856 1.079.54 5.755-2.698 7.373-3.597 3.777-1.978-3.776-2.698-2.697-6.654 1.079-4.496-9.352-2.877-14.387-2.338 7.013-4.496 15.106-7.013 24.098-7.013 21.04 0 38.664 14.566 43.34 34.168 0 .9-.18 1.619-.18 1.978-.36 1.619-3.417 3.057-5.215.36-.54-.72-2.338-2.518-2.338.72 0 3.056 3.057 3.416.18 5.214-2.877 1.799-3.417 1.44-4.676 1.799-1.259.54-2.518 3.596-2.338 5.395.36 1.618 4.316 6.294 1.439 6.114-.72 0-6.114-3.776-7.014-6.114-.899-2.518-1.978-4.856-2.697-6.834-.72-1.798-2.698-2.338-4.136-1.259-1.619 1.08.36 2.158-.72 4.496-1.079 2.338-1.978 4.316-3.596 2.518-4.316-5.036-10.61-2.518-11.69-8.093-.54-3.057-3.057-2.697-5.215-4.496-2.158-1.618-3.417-2.697-3.776-1.438-.36 1.079 6.833 6.833 7.373 8.272.72 2.158-2.158 4.136-4.316 4.496-2.158.54-3.057-1.259-5.215-3.417s-3.058-3.776-3.058-1.978c-.18 2.518 1.979 6.114 4.137 7.373 1.798 1.08 3.776 1.619 3.237 3.597-.54 1.798 0 .72-1.978 2.877-1.979 1.978-2.338 2.698-2.338 5.395.18 2.878-.54 2.878-1.08 5.215-.899 2.698-1.978.72-2.877 4.137m48.016-17.804c1.439-.18 3.777 1.978 2.878 2.697-.9.72-3.058.54-4.317-.36-1.079-.898.72-2.337 1.44-2.337m-1.979-1.439c-.54-.18-.9-.719-1.259-1.798-.36-1.079.54-1.798 1.439-1.259.899.54 2.158 1.799 2.158 2.518 0 .9-1.799.9-2.338.54m-19.782 0c-.899.719-3.057.54-4.316-.36-1.079-.9.72-2.338 1.439-2.338 1.618-.18 3.776 1.978 2.877 2.698m-18.163 8.812c-.54 1.079-2.338 8.452-3.417 7.553-1.079-.9.54-8.632.72-9.352 1.798-3.057 5.574-2.877 2.697 1.799m6.114 29.133c-4.316 0-8.632-.72-12.588-1.799-.54-.54-.9-1.258-.54-2.158 1.439-3.596 5.575-5.035 8.812-5.395 7.193-.719 16.725 4.676 18.343 3.777 1.439-.9 4.496-4.856 8.992-4.676 3.057.18 3.057.72 4.136 1.08-7.553 5.754-17.084 9.17-27.155 9.17m31.471-12.947c-.36-.18-.899-.36-1.439-.54-2.517-1.259-2.158.72-3.416.36-1.26-.36 1.438-3.237-2.338-.9-3.597 2.338-2.698-.36-4.136-4.316-1.619-3.956 1.798-8.452 4.675-9.53 3.957-1.44 6.294-1.62 8.093-2.159 5.395-1.259 6.474-4.496 7.553-2.518l.54 1.08c.36.54.719 1.798.719 2.877-2.338 5.934-5.755 11.15-10.25 15.645m12.228-22.479c-1.259-.36-6.294-7.193-2.158-11.869.72-.72-1.259-2.877-.72-3.057 2.159-.18 3.238 1.259 3.957 3.057v2.518a78.317 78.317 0 0 1-1.079 9.351" class="st2" style="fill:#3f7e44;fill-opacity:1;stroke-width:1.79835" transform="translate(0 -32.417)"/></svg>