<svg xmlns="http://www.w3.org/2000/svg" viewBox="0 0 264.583 264.583"><path d="M507.9 650.7c.2 0 .4.2.4.4v11.7c0 .2-.2.4-.4.4h-4.7c-.2 0-.4-.2-.4-.4v-11.7c0-.2.2-.4.4-.4zm52.1 17.5h-78.1c-.2 0-.4.2-.4.4v4.8c0 .2.2.4.4.4H560c.2 0 .4-.2.4-.4v-4.8c0-.2-.2-.4-.4-.4m0 9.5h-78.1c-.2 0-.4.2-.4.4v4.8c0 .2.2.4.4.4H560c.2 0 .4-.2.4-.4v-4.8c0-.2-.2-.4-.4-.4m-14.9-39.9c-1-.8-3.6-2.5-6.8-2.5-2.3 0-4.4.9-6.3 2.7-.1.1-.2.3-.2.5v.4c0 .2.1.4.2.5.2.1.3.2.6.1h.1c.1-.1.3-.1.4-.2.4-.3 1.5-.7 3.1-.7 1.7 0 4.9.4 8.1 3.4l.1.1c.2.2.4.3.7.3.2 0 .5-.1.7-.3l.1-.1c3.2-2.9 6.4-3.4 8.1-3.4 1.6 0 2.7.4 3.1.7.1.1.2.2.4.3.1 0 .3.1.5 0 .3-.1.5-.3.5-.6v-.4c0-.2-.1-.4-.2-.5-1.9-1.8-4-2.7-6.4-2.7-3.2-.2-5.8 1.6-6.8 2.4m-4.8-31.2c-.2.1-.3.2-.3.4l-.1.3c-.1.2 0 .4.1.6.1.2.3.3.5.3h.1c.1 0 .3 0 .4-.1.1 0 .2-.1.5-.1s3.5.1 5.6 3.6v.1c.1.2.3.3.5.4h.2c.1 0 .3 0 .4-.1h.1c1.1-.6 2.3-.9 3.5-.9 2 0 3.3.8 3.6 1.1l.3.3c.1 0 .2.1.3.1h.2c.1 0 .2 0 .3-.1.2-.1.3-.2.3-.4l.1-.2v-.2c0-.1 0-.2-.1-.3-1.5-2.6-3.7-3.2-5.3-3.2-1.2 0-2.2.3-2.8.5-.7-1-2.5-3-5.3-3-1.1.2-2.1.4-3.1.9m-16.5 12.1v.4c0 .2.1.4.3.5.2.1.4.1.5.1h.1c.1-.1.2-.1.3-.2.3-.2 1.4-.7 3-.7 1.5 0 3.8.4 6.2 2.3l.1.1c.2.1.4.2.6.2h.1c.2 0 .5-.1.6-.3l.1-.1c2.6-2.8 5.4-3.2 6.9-3.2 1 0 1.8.2 2 .4.1.1.2.2.4.2h.5c.3-.1.5-.4.4-.7v-.3c0-.2-.1-.3-.2-.5-1.6-1.3-3.2-2-5-2-2.7 0-4.9 1.6-5.8 2.4-.8-.6-2.8-1.7-5.2-1.7-2.1 0-3.9.9-5.5 2.6-.4.1-.4.3-.4.5m-39.6 6.2c0-4.7 3.8-8.5 8.5-8.5h.5c.4-5.9 5.4-10.6 11.4-10.6 6.3 0 11.5 5.1 11.5 11.5 0 1.8-.4 3.5-1.2 5 5.7 1.3 10 6.4 10 12.5 0 7.1-5.7 12.8-12.8 12.8-.5 0-17.1-.1-17.1-.1-5 0-9.1-4.1-9.1-9.1 0-2.4.9-4.6 2.5-6.2-2.4-1.4-4.2-4.1-4.2-7.3z" class="st2" transform="translate(-1309.747 -1651.745) scale(2.7681)" fill-opacity="1"/></svg>