<svg xmlns="http://www.w3.org/2000/svg" xml:space="preserve" viewBox="0 0 1210 1210"><path d="M1112.932 914.465h75.16v203.697H96.607V914.465h49.018c-12.355-120.537-29.053-220.41-50.107-299.555 18.877 37.037 38.842 85.338 59.912 144.877 8.713 26.143 25.41 77.713 50.107 154.678h7.625c-25.428-172.822-42.857-283.588-52.287-332.232-25.426-131.432-54.838-237.092-88.232-316.984 22.502 42.109 47.93 104.572 76.25 187.357a64286.77 64286.77 0 0 0 65.357 197.162c18.145 55.928 37.395 127.82 57.732 215.68C269.072 720.199 260 598.57 244.75 500.535c-19.605-132.178-54.463-259.625-104.57-382.373 39.213 74.104 67.893 135.104 86.053 183.033 14.52 39.215 34.127 106.033 58.822 200.43 42.84 160.498 68.252 298.092 76.25 412.84h5.447c2.178-23.217 3.268-45.377 3.268-66.445 0-48.645-7.268-115.092-21.785-199.342a9518.291 9518.291 0 0 1 42.48 132.895c16.697 53.748 27.232 98.752 31.59 135.072 38.484 34.857 112.93 52.285 223.32 52.285 111.824 0 186.627-17.803 224.395-53.375 4.357-55.18 15.965-117.643 34.857-187.357 7.982-30.5 26.143-91.5 54.465-183.002-20.34 119.822-30.5 224.021-30.5 312.627 0 18.891.357 37.783 1.088 56.643h4.357c9.43-82.07 34.857-195.355 76.25-339.857 50.107-177.182 105.289-318.074 165.572-422.676-86.428 198.996-138.34 436.119-155.768 711.338 15.965-64.643 31.947-118.734 47.928-162.305 24.682-68.252 67.895-155.77 129.643-262.52-46.498 101.678-86.443 246.896-119.838 435.717 45.018-92.217 85.322-165.572 120.926-220.037-44.318 117.642-72.998 204.413-86.068 260.339z" style="fill:#089848" transform="translate(-7.56 9.454) scale(.96341)"/></svg>