<svg xmlns="http://www.w3.org/2000/svg" xml:space="preserve" viewBox="0 0 1210 1210"><path d="M1117.293 452.195c-43.289 39.467-114.199 5.169-115.547 4.738 6.301 12.599 9.477 24.982 9.477 37.151 0 28.833-15.777 53.358-47.328 73.657 0 0 59.82 9.8 115.574-23.664 30.77-18.441 43.91-44.366 43.91-70.938 0-3.607-.891-8.13-2.695-13.515z" style="fill:#089848" transform="translate(-1.114 26.784) scale(.9461)"/><path d="M1102.434 243.688c47.758-191.547-372.219-155.337-323.273-18.872-2.398-6.649-58.152-39.629-105.586 33.463-32.766 50.505-5.656 96.837 3.82 110.782-36.504 13.973-50.289 73.496-50.289 110.001 0 44.636 41.137 111.939 73.926 132.238 40.816 25.252 104.969 29.156 147.344-5.061 14.023 8.938 21.402 40.758 23.637 45.281 4.496 10.365 15.211 112.531 7.727 137.73-9.355 31.405-32.073 87.024-41.59 109.408h-97.539v-.51l-.526.51h-.607l-.031.618c-33.607 32.596-57.695 53.44-72.118 62.755-25.414 15.83-55.137 23.719-89.379 23.719-44.395 0-92.344-21.727-143.922-65.338-9.695-6.596-28.539-23.152-28.539-23.152-44.473 58.365-93.957 87.656-148.578 87.656-49.348 0-99.961-21.779-151.918-65.34C86.254 904.26 76.348 896.48 75 896.48l.324 116.92c49.645 62.404 113.395 96.271 176.875 96.271 57.773 0 108.816-26.438 153.289-79.473 0 0 53.09 44.42 75.598 55.135 0 0 10.57 5.656 27.761 11.675 19.781 7.994 40.058 12.444 60.869 13.372a205.57 205.57 0 0 0 17.6.771l-.625-.777c30.696-1.328 58.214-9.688 82.574-25.041 22.547-14.523 45.658-36.937 69.429-67.361l380.403-.291V898.66H1016.17c2.498-30.145 8.451-125.336-10.709-176.523-14.375-38.525-23.312-59.334-23.312-63.857 0-4.98-12.062-26.223 1.371-27.703 158.004-17.445 180.508-155.336 184.762-170.197 31.874-4.254 91.37-197.577-65.848-216.692zm-22.965 300.39c-55.754 33.464-115.574 23.664-115.574 23.664 31.551-20.299 47.328-44.824 47.328-73.657 0-12.169-3.176-24.553-9.477-37.151 1.348.431 72.258 34.729 115.547-4.738l3.391 7.43c1.805 5.385 2.695 9.907 2.695 13.515 0 26.571-13.141 52.496-43.91 70.937z" style="fill:#089848" transform="translate(-1.114 26.784) scale(.9461)"/></svg>