<svg xmlns="http://www.w3.org/2000/svg" xml:space="preserve" viewBox="0 0 1210 1210"><path d="M1154.901 793.123c-4.36-18.223-41.262-170.164-54.433-197.707-21.316-44.459-27.32-83.28-92.143-93.097h-3.902v-29.213c37.735-18.066 64.013-56.26 64.013-100.825 0-61.924-50.19-112.102-112.104-112.102-61.873 0-112.075 50.177-112.075 112.102 0 45.113 26.878 83.803 65.371 101.556v28.481h-19.41c-64.823 9.817-70.829 48.638-92.145 93.097-13.169 27.542-50.086 179.484-54.433 197.707-4.241 18.275 4.347 29.004 16.162 33.312 11.017 4.02 27.896-6.449 31.106-15.037 3.25-8.59 42.319-105.289 52.644-142.805 2.662 15.533-5.039 456.32-5.039 456.32h57.382l53.246-307.119 53.506 307.119h57.382s-7.702-440.787-5.038-456.32c10.325 37.516 49.394 134.215 52.644 142.805 3.21 8.588 20.09 19.057 31.106 15.037 11.8-4.307 20.403-15.036 16.16-33.311zm-636.039 334.039c3.171-38.279 10.732-159.158-13.599-224.156-18.254-48.922-29.603-75.346-29.603-81.09 0-6.324-15.317-33.299 1.74-35.18 200.641-22.152 229.218-197.251 234.619-216.125 40.477-5.399 116.027-250.891-83.616-275.162 60.645-243.235-472.66-197.254-410.507-23.964-3.046-8.444-73.845-50.323-134.078 42.492-41.607 64.134-7.183 122.968 4.852 140.676-46.354 17.744-63.859 93.329-63.859 139.684 0 56.682 52.237 142.147 93.875 167.922 51.83 32.066 133.294 37.025 187.104-6.426 17.808 11.35 27.177 51.756 30.015 57.5 5.709 13.162 19.315 142.896 9.812 174.896-11.88 39.879-40.728 110.506-52.813 138.932h226.058zm80.379-450.264c-70.798 42.494-146.761 30.049-146.761 30.049 40.065-25.777 60.1-56.92 60.1-93.533 0-15.453-4.033-31.177-12.034-47.177 1.711.548 91.756 44.099 146.727-6.016l4.306 9.434c2.292 6.838 3.422 12.582 3.422 17.162-.001 33.742-16.687 66.662-55.76 90.081z" transform="translate(75.062 42.07) scale(.89758)"/></svg>