<svg xmlns="http://www.w3.org/2000/svg" xml:space="preserve" viewBox="0 0 1210 1210"><path d="M279.328 617.651c88.426 44.615 234.254-1.984 234.254-1.984-25.551-35.82-80.73-69.684-131.994-90.007-31.613-12.615-76.42-15.934-119.75-15.215.028 19.155.596 54.834 3.661 99.899a417.226 417.226 0 0 0 13.829 7.307zm418.371-91.991c-82.902-33.06-256.375-2.279-256.375-2.279 82.447 35.017 83.01 58.45 154.168 94.271 88.373 44.615 234.041-1.984 234.041-1.984-25.471-35.821-80.81-69.685-131.834-90.008zm334.158 0c-82.902-33.06-256.35-2.279-256.35-2.279 82.555 35.017 83.01 58.45 154.168 94.271 29.36 14.832 65.078 19.576 99.684 19.311 3.848-46.534 5.041-85.41 5.356-110.148-.952-.387-1.907-.778-2.858-1.155zM513.582 770.506c-25.551-35.874-80.73-69.711-131.994-89.954-29.592-11.855-70.747-15.545-111.428-15.392 3.53 34.463 8.531 71.947 15.606 110.275 88.877 39.378 227.816-4.929 227.816-4.929zm184.117-89.954c-82.902-33.192-256.375-2.386-256.375-2.386 82.447 34.989 83.01 58.53 154.168 94.244 88.373 44.614 234.041-1.904 234.041-1.904-25.471-35.874-80.81-69.711-131.834-89.954zm77.809-2.386c82.555 34.989 83.01 58.53 154.168 94.244 23.455 11.849 50.968 17.27 78.73 18.841 7.664-39.069 13.124-77.525 17.006-113.089-85.1-29.266-249.904.004-249.904.004zM513.582 927.489c-25.551-35.847-80.73-69.657-131.994-89.98-23.433-9.335-54.116-13.575-86.073-14.856 9.654 42.073 22.054 84.075 37.977 123.189 83.597 12.532 180.09-18.353 180.09-18.353zm-72.258-92.312c82.447 35.016 83.01 58.503 154.168 94.297 88.373 44.695 234.041-1.984 234.041-1.984-25.471-35.847-80.811-69.657-131.834-89.98-82.902-33.006-256.375-2.333-256.375-2.333zm334.184 0c82.555 35.016 83.01 58.503 154.168 94.297 11.212 5.674 23.354 9.869 36.003 12.881 14.334-36.334 25.717-74.994 34.743-113.776-88.701-17.488-224.914 6.598-224.914 6.598zM438.8 1098.734c42.942-6.294 74.782-16.46 74.782-16.46-25.551-35.794-80.73-69.576-131.994-89.953-9.376-3.757-19.917-6.691-31.232-8.946 23.011 46.352 51.985 86.664 88.444 115.359zm258.899-106.413c-82.902-33.193-256.375-2.413-256.375-2.413 82.447 35.177 83.01 58.396 154.168 94.431 88.373 44.508 234.041-2.064 234.041-2.064-25.471-35.795-80.81-69.577-131.834-89.954zm77.809-2.413c66.781 28.455 79.844 49.087 120.062 75.007 21.412-25.193 39.535-54.918 54.883-87.335-82.25-4.12-174.945 12.328-174.945 12.328zM341.209 460.855c.268-10.296 5.631-235.301 298.416-235.301 293.725 0 311.018 235.918 311.475 246.669l69.523-2.547c-.08-3.485-3.646-83.492-51.773-164.009-45.018-75.341-138.242-165.107-326.383-165.107-188.166 0-279.271 86.925-322.734 159.934-46.518 78.21-47.912 156.099-48.074 159.45l69.551.804v.107z" transform="translate(-43.276 -17.08)"/></svg>