<svg xmlns="http://www.w3.org/2000/svg" xml:space="preserve" viewBox="0 0 1210 1210"><path d="M1138.253 943.76 299.037 621.211l-157.843-58.823v-36.274l530.393 105.882c12.408-20.909 18.627-41.819 18.627-62.745 0-12.408-1.961-22.549-5.882-30.392l-19.608-38.235c-8.501 6.541-23.376 12.745-44.607 18.627-21.247 5.882-38.082 8.824-50.49 8.824-37.255 0-67.326-11.106-90.196-33.333-22.886-22.212-34.313-51.961-34.313-89.216 0-30.055 5.882-52.282 17.647-66.667 9.804-11.765 29.733-23.53 59.804-35.294-7.843-11.106-11.765-23.851-11.765-38.235 0-22.871 7.997-42.479 24.02-58.824 16.008-16.33 35.447-24.51 58.333-24.51 7.843 0 14.369 1.318 19.608 3.922 4.565-32.675 19.271-54.244 44.118-64.707 15.028-6.525 40.518-9.803 76.471-9.803 84.313 0 129.075 30.07 134.313 90.196 2.604 0 9.314-1.961 20.098-5.883 10.785-3.921 18.781-5.882 24.02-5.882 30.713 0 54.243 14.706 70.588 44.117 13.067 24.847 19.608 53.6 19.608 86.275 0 31.373-6.542 53.278-19.608 65.686-9.161 9.161-26.808 16.345-52.941 21.569-30.07 61.443-81.051 99.356-152.941 113.726-.659 11.765-.98 19.607-.98 23.529 0 4.581 6.525 22.227 19.607 52.941 13.067 30.729 19.608 48.698 19.608 53.922v8.824l322.549 64.705zm-997.06-211.764 459.804 376.47H141.193Zm293.138 17.647-90.196 8.824-91.177-50.981 87.255-3.922zm78.431 38.235 149.02 72.55-92.157 25.489-148.039-84.313zm560.785 251.961-100.981 68.627h-8.823L682.37 949.643l88.235-35.294ZM760.801 468.271l41.176 5.882c18.95-4.565 37.255-13.066 54.902-25.49 24.173-16.988 36.274-36.596 36.274-58.824 0-2.604-.659-6.204-1.961-10.784l-2.941-5.883c-13.082 12.424-26.471 18.627-40.196 18.627-3.922 0-12.746-1.961-26.471-5.882-17.646-5.224-27.451-8.165-29.412-8.823 5.224 10.462 7.843 20.588 7.843 30.392.002 24.188-13.08 44.454-39.214 60.785zm202.942 640.195h8.823l-3.921 2.941z" transform="translate(-65.929 -36.232) scale(1.04878)"/></svg>