<svg xmlns="http://www.w3.org/2000/svg" xml:space="preserve" viewBox="0 0 1210 1210"><path d="M223.115 1122.162c-22.896-6.536-43.479-27.443-61.773-62.735l295.109-261.766L183.9 743.735l51.963-72.546-65.699-97.066 16.672-60.787-28.432-99.015 91.18 19.608 63.723-5.887 5.887-156.865h66.66l142.17-149.017 99.988 223.524 66.674 23.533 108.824-94.116 52.939 47.051 50-37.254 28.432 38.242 40.205.974 49.012-15.684-28.43 85.294 32.355 32.355-34.318 44.114 35.291 62.749-92.152 82.356-5.887 64.711 91.18 52.938 19.607 36.279L1129 845.7l-71.572 23.519-19.607 36.279-73.52 20.583-3.926 43.141-140.193-9.797-29.418 41.178-8.824 67.647-81.367-19.608-31.383 16.658-47.051-36.266h-64.711l-32.355 46.077-32.355-245.109z" style="fill:#089848" transform="translate(-38.702 -17.161)"/></svg>