<svg xmlns="http://www.w3.org/2000/svg" xml:space="preserve" viewBox="0 0 1210 1210"><path d="M756.795 331.552c126.588 56.405 155.432-77.622 155.432-77.622s-97.77 10.702-150.232-46.634c-87.463-95.53-155.361-46.611-155.361-46.611l2.611 189.031c-.001 0 59.202-57.523 147.55-18.164zm155.49 340.917 75.304 2.236-374.285-287.052-360.866 282.264 69.339 2.237 4.474 388.021H242v72.322h745.589v-72.322h-75.304ZM671.594 798.336c-22.966 59.365-75.064 108.363-128.933 125.423-18.042 39.805-2.341 140.602-2.341 140.602l-10.982 2.704c-25.659-57.136-28.234-137.201-28.49-154.397-26.485-39.999-78.625-139.871.205-244.113 51.018-65.801 121.482-80.444 148.834-130.482 49.595 64.238 48.685 189.868 21.707 260.263z" style="fill:#ff6432" transform="translate(-9.794 -35.33)"/><path d="M511.312 863.088c5.643 26.465 42.018 29.006 30.592-26.186-6.855-32.971 5.387-134.539 87.299-221.068-113.086 80.957-120.875 212.744-117.891 247.254z" style="fill:#ff6432" transform="translate(-9.794 -35.33)"/></svg>