<svg xmlns="http://www.w3.org/2000/svg" xml:space="preserve" viewBox="0 0 1210 1210"><path d="M899.276 641.29s-91.015 52.553-100.604 58.094c-14.818 8.55-27.969 1.354-35.566-10.53-4.185-6.555-95.893-170.801-177.101-316.431C648.661 269.075 701.388 182.23 701.388 182.23c5.792-8.601 7.521-17.827 5.14-27.556-2.344-9.753-7.71-17.074-16.122-21.889l-3.585-2.105c-8.399-4.84-17.4-5.867-27.028-3.009-9.641 2.808-16.736 8.926-21.325 18.228 0 0-39.5 69.721-90.111 158.997-48.982-87.875-86.928-156.013-86.928-156.013-4.538-9.327-11.646-15.444-21.3-18.253-9.615-2.858-18.592-1.855-27.028 3.009l-3.586 2.081c-8.387 4.839-13.765 12.11-16.134 21.889-2.332 9.754-.614 18.955 5.127 27.58 0 0 50.449 85.749 110.85 188.492-82.424 145.351-174.322 307.262-176.778 310.936-4.476 6.694-12.7 18.654-35.83 5.29-11.095-6.394-31.893-17.626-48.378-23.242-17.05-5.742-41.308-11.96-68.398-6.243-13.465 2.883-27.43 8.9-40.431 18.905-13 10.028-25.022 23.919-35.54 42.172-6.833 11.835-34.776 60.2-61.016 105.607 0 0-9.265 15.996-20.321 35.152-11.069 19.181-33.711 58.395-16.298 68.449 19.068 11.007 40.079-29.135 50.635-47.438 10.556-18.278 81.851-141.662 81.851-141.662 8.375-14.492 17-24.02 25.262-30.388 12.41-9.478 24.183-12.486 36.368-12.812 12.135-.275 24.445 2.733 34.926 6.344 5.379 1.83 11.045 4.212 17 7.07-24.346 42.147-113.981 197.424-123.108 213.195-10.556 18.277-34.55 56.739-15.783 67.546 17.714 10.255 40.054-29.16 51.124-48.315 6.117-10.581 98.912-171.298 123.008-213.02l79.192 45.884c-23.856 41.32-114.282 197.926-123.434 213.771-10.556 18.303-33.724 57.191-15.771 67.597 19.432 11.208 38.049-25.7 51.124-48.341 6.105-10.581 98.536-170.696 122.857-212.769 8.273 5.266 15.532 10.506 21.55 15.796 8.362 7.271 17.112 16.423 22.941 27.079 5.83 10.706 9.102 22.415 7.134 37.885-1.392 10.355-5.354 22.565-13.715 37.083 0 0-71.183 123.434-81.738 141.712-10.567 18.304-35.941 55.938-15.771 67.597 17.25 9.929 40.054-29.186 51.124-48.341 11.057-19.181 20.271-35.202 20.271-35.202 26.201-45.433 54.119-93.823 60.952-105.657 10.518-18.253 16.586-35.554 18.742-51.851 2.193-16.298.426-31.392-3.837-44.455-8.6-26.326-26.088-44.253-39.59-56.138-13.126-11.483-28.145-20.886-44.342-30.288-4.287-2.457-.752-.275-13.088-7.371-16.686-9.628-15.695-23.594-10.957-33.598 2.418-5.09 84.834-141.379 165.423-274.379C626.415 572.847 709.015 713.54 711.63 718.59c5.077 9.854 9.516 25.55-8.801 36.105-18.29 10.58-95.377 55.085-95.377 55.085l174.708 302.605s66.907-14.342 153.947-64.588c87.041-50.247 137.863-103.902 137.863-103.902z" transform="translate(95.453 10.893) scale(.9489)"/></svg>