<svg xmlns="http://www.w3.org/2000/svg" xml:space="preserve" viewBox="0 0 1210 1210"><path d="m556.438 667.392 44.074-99.514-53.211-23.057c-12.699 0-15.555-.545-40.895 2.771-25.34 3.373-122.355.109-158.137-9.025-98.48-25.016-150.82-107.401-152.156-270.269 0-11.312-18.023-23.981-54.051-38.012-26.051-10.658-49.051-18-69.062-22.023 31.348-12.671 69.387-35.021 114.09-67.051 28.711-20.719 61.719-31.051 99.105-31.051 34.695 0 61.043 5.981 79.066 18 8.676 6.036 22.707 20.393 42.066 43.068 17.344 20.719 33.332 34.694 48.016 42.036 8.699 4.023 24.715 6.688 48.07 7.993 77.41 4.024 178.531 32.411 303.305 85.104 9.328 4.024 20.691 5.982 34.016 5.982 55.414 0 132.824-22.622 232.258-68.029-8.023 20.99-12.02 43.286-12.02 66.941 0 20.99 4.352 36.435 13.023 46.277-22.703 5.221-51.391 7.885-86.082 7.885H896.8c-59.383 0-103.105 9.68-131.109 29.039.652 2.012 12.152 10.169 34.531 24.471 22.348 14.411 35.863 27.571 40.512 39.588-11.312-1.305-24.008-2.011-38.012-2.011-74.066 0-153.516 26.103-202.211 63.462 11.988 8.699 46.113 40.783 46.113 40.783s-18.352 57.59-60.254 113.873c0 0 28.359 6.688 171.977 66.994 143.672 60.363 303.277 196.91 321.656 274.457 8.211 48.344 0 94.076 0 94.076H906.832c13.352-28.006 30.645-70.531 9.355-116.645-28.387-61.504-161.375-175.592-306.812-246.504-60.363-29.475-195.633-67.432-227.008-67.432-22.676 0-48.562 22.242-58.516 31.977-17.562 17.02-44.344 44.318-99.023 73.195l-53.754-5.928c22.023-2.012 132.141-74.066 140.137-104.084C294.543 655.374 73 645.694 73 645.694c56.039-27.352 106.203-31.105 153.023-32.139 60.579-1.359 330.415 53.837 330.415 53.837z" style="fill:#089848" transform="translate(26.674 -5.155)"/></svg>