<svg xmlns="http://www.w3.org/2000/svg" version="1.0" viewBox="0 0 320 320"><path d="M87.1 53.7c-4.6 17.7-17 66.1-25.2 98.3-3.3 12.9-7.6 29.3-9.4 36.5-1.9 7.1-5.9 22.9-9 35s-6.9 27-8.6 33.2c-1.6 6.1-2.9 11.5-2.9 12 0 .4 44.8.8 99.5.8h99.6l.9-3.5c.5-1.9 2.5-9.7 4.4-17.3 2-7.5 5.1-19.7 7-27 1.9-7.2 6.5-24.9 10.1-39.2 7.9-30.8 13.4-52.2 18-70 10-38.4 15.5-60.3 15.5-61.4 0-.8-25.3-1.1-99.5-1.1H88.1l-1 3.7zM212.5 88c10.7 1.2 20.1 3.7 33.1 8.7l9.6 3.6-.7 5.6c-.4 3.1-1.8 9.8-3.1 14.9-6.3 24.9-20.2 40.6-40.3 45.2-10.5 2.5-28.7-.4-44.5-7.1-3.9-1.6-7.1-2.7-7.2-2.6-1.3 1.3-6.7 13.9-8.8 20.4-4.7 15.2-5.9 25.5-5.2 46.2.3 10.2.8 20.3 1.2 22.4l.6 3.8-8.8-.3-8.9-.3-1.2-6.5c-2.3-13.1-3.3-34-2.2-48.5.8-11.8 4-31.3 6.4-39.1.6-2.1.3-2.2-9.2-2.6-8.4-.3-10.7-.8-16.5-3.5-8.4-3.9-14.1-9.7-18.1-18.1-2.9-6.1-3.2-7.6-3.2-16.2 0-12 1.4-15.6 6.4-17 4.6-1.3 16.3-1.2 22.1.1 10.8 2.4 28 13.9 31.9 21.2l1.4 2.6 4.3-6c11.4-15.4 26-24.8 41.9-26.9 8.6-1.1 9.1-1.1 19 0z"/></svg>