<svg xmlns="http://www.w3.org/2000/svg" xml:space="preserve" viewBox="0 0 1210 1210"><path d="m351.926 749.631-159.117 25.615-112.715-85.392-43.942 51.728 79.528 60.891L0 830.094l23.273 75.519 223.45-29.881-160.809 82.75 88.879 60.438 103.109-49.762 15.028 91.447 61.625 15.477 77.043-57.84 11.578 77.102 65.465 7.681 46.261-46.259 92.41 61.679 111.727-3.896-15.422-76.988 119.465 30.783 92.465-65.465L911.781 910l169.781-4.896 10.676-81.733L1007.781 790l114.508-53.896-38.879-69.451-228.066 89.812-127.203-49.508L549.934 858.9z" transform="translate(101.782 50.397) scale(.89677)"/><path d="m208.09 714.244 154.344-24.91 180.496 99.582 174.082-148.385 138.219 53.83 156.559-61.63c30.512-89.463 44.658-215.936-6.082-346.358 0 0-22.086 88.004-222.664 210.971-85.688 52.473-176.004 80.15-278.297 59.646-93.426-18.582-93.371-121.271-121.387-192.838-17.932-45.848-36.067-85.562-57.247-116.824 44.108-32.699 110.146-45.004 110.146-45.004-52.898-40.441-154.797-14.742-154.797-14.742-4.855-21.238 43.719-61.85 43.719-61.85-65.52-10.902-116.414 40.047-116.414 40.047-18.242-14.572-7.285-47.334-7.285-47.334-24.271 6.074-53.6 52.562-62.693 67.873-18.061 16.809-12.715 44.624-36.213 59.273l-43.207 16.211s-27.508 30.785 6.605 30.785c20.064 0 39.631 7.144 53.787 18.932-5.172 29.695-17.295 67.545-30.967 86.186-27.347 37.29 59.51 105.615 95.486 59.005.444 16.385-1.524 34.421-6.975 54.415-11.972 43.852-39.738 97.735-33.066 154.742z" transform="translate(101.782 50.397) scale(.89677)"/></svg>