<svg xmlns="http://www.w3.org/2000/svg" xml:space="preserve" viewBox="0 0 1210 1210"><path d="M1168.65 704.82c0 49.425-16.502 90.444-49.537 123.143-33.033 32.699-74.248 49.034-123.617 49.034-39.4 0-76.426-13.654-111.107-41.048-19.379-15.33-58.416-55.345-117.111-120.1-6.703 6.674-25.049 20.301-55.066 40.964 10.668 18.625 29.684 52.58 57.049 101.865 20.691 37.921 31.051 75.869 31.051 113.817 0 47.917-16.699 88.07-50.066 120.351-33.369 32.279-74.418 48.419-123.115 48.419-45.404 0-85.418-16.978-120.129-50.933-34.709-33.955-52.049-73.216-52.049-117.837 0-36.58 29.348-108.818 88.1-216.688-6.004-3.295-17.033-11.951-33.033-25.941L383.887 847.984c-25.383 19.352-60.734 29.013-106.111 29.013-48.727 0-89.076-16-121.104-48.028-32.057-32.057-48.057-72.406-48.057-121.133 0-54.702 18.01-97.091 54.061-127.108 33.34-28.035 77.711-42.053 133.111-42.053-24.686 0-5.668 2.513 57.076 7.512 62.715 4.998 99.742 7.511 111.107 7.511.643-1.34 1.006-3.016 1.006-5.026 0-7.315-20.021-21.333-60.064-42.024-50.066-25.354-87.094-49.062-111.107-71.065-40.043-36.05-60.064-76.399-60.064-121.133 0-46.046 17.844-86.396 53.559-121.133 35.686-34.681 76.566-52.05 122.611-52.05 95.416 0 153.803 56.406 175.166 169.161 4.02 23.4 11.672 65.426 23.035 126.159h47.053c1.982-6.031 13.318-46.716 34.01-122.138 14.689-54.061 32.699-93.768 54.061-119.122 30.047-36.021 71.066-54.061 123.115-54.061 56.07 0 99.771 21.055 131.129 63.08 25.355 34.039 38.061 72.07 38.061 114.123 0 49.369-14.018 87.736-42.053 115.102-14.018 14.018-46.381 33.368-97.09 58.053-50.738 24.713-84.078 45.041-100.107 61.069 7.344 1.34 14.018 2.011 20.021 2.011 14.66 0 42.863-4.523 84.58-13.516 41.691-9.019 73.58-13.515 95.611-13.515 54.031 0 96.252 15.86 126.605 47.526 30.38 31.721 45.542 74.947 45.542 129.621zm-707.695-69.055c-98.096-15.33-153.133-23.036-165.168-23.036-30.688 0-56.713 8.042-78.074 24.042-23.373 18.011-35.018 41.718-35.018 71.065 0 26.024 9.998 48.559 30.02 67.575 20.02 19.016 43.029 28.538 69.055 28.538 29.375 0 65.396-20.691 108.119-62.074 40.685-40.685 64.392-76.092 71.066-106.11zm74.082-211.186a10482.825 10482.825 0 0 0-29.041-121.133c-20.691-58.724-52.721-88.099-96.086-88.099-24.014 0-47.051 10.694-69.082 32.028-22.004 21.39-33.006 43.729-33.006 67.072 0 30.716 14.994 56.74 45.041 78.074 18.652 13.348 47.357 26.695 86.088 40.043 42.025 14.688 71.066 26.694 87.066 36.021zm192.197 543.868c0-14.66-13.682-48.225-41.047-100.776-29.377-56.518-51.715-87.457-67.074-92.763-14.018 24.629-31.385 57.857-52.049 99.743-26.025 53.893-39.037 86.451-39.037 97.788 0 23.903 11.17 45.711 33.537 65.342 22.338 19.603 45.543 29.432 69.557 29.432 22.674 0 44.371-10.835 65.062-32.447 20.692-21.614 31.051-43.729 31.051-66.319zm0-363.705c0-25.354-9.689-47.554-29.041-66.57-19.35-19.016-41.717-28.538-67.072-28.538-28.705 0-51.881 9.383-69.557 28.036-17.705 18.708-26.527 42.388-26.527 71.093 0 26.695 9.326 48.699 28.035 66.039 18.652 17.369 41.354 26.025 68.049 26.025 27.365 0 50.207-9.159 68.58-27.505 18.346-18.374 27.533-41.215 27.533-68.58zm235.229-290.294c0-24.685-10.359-47.358-31.023-68.078-20.719-20.663-43.393-31.022-68.078-31.022-36.049 0-68.076 33.703-96.084 101.111-21.391 51.379-32.057 92.762-32.057 124.12v31.023c72.74-24.015 119.457-41.383 140.148-52.05 58.053-30.045 87.094-65.062 87.094-105.104zm132.135 393.388c0-26.695-10.527-50.542-31.555-71.568-20.998-21.026-44.873-31.525-71.568-31.525-37.361 0-101.082 10.667-191.164 32.028 34.012 38.729 65.369 73.076 94.074 103.122 40.713 42.694 75.729 64.057 105.105 64.057 22.031 0 43.365-10.527 64.057-31.554 20.691-21 31.051-42.529 31.051-64.56z" style="fill:#089848" transform="translate(-33.633 -36.266)"/></svg>