<svg xmlns="http://www.w3.org/2000/svg" xml:space="preserve" viewBox="0 0 1210 1210"><path d="M942.176 591.732c-23.529-49.033-55.873-90.178-97.033-123.51v-15.67c0-47.059-14.064-89.029-42.162-125.957-28.1-36.914-64.041-61.254-107.811-73.018 18.295-30.045 47.057-53.574 86.256-70.572 34.645-14.373 66.988-20.904 97.033-19.605 16.334 1.326 25.15-6.518 26.477-23.514.65-16.336-7.193-25.15-23.527-26.479-43.137-1.959-86.92 7.844-131.338 29.412-49.666 24.84-84.959 58.48-105.863 100.953-20.92-42.473-56.521-76.113-106.836-100.953-44.447-21.568-88.217-31.371-131.338-29.412-16.334 1.328-24.178 10.143-23.529 26.479 1.312 16.996 10.129 24.84 26.477 23.514 30.045-1.299 62.391 5.232 97.033 19.605 39.199 16.998 68.271 40.527 87.23 70.572-43.785 11.764-79.889 36.104-108.311 73.018-28.424 36.928-42.635 78.898-42.635 125.957v15.67c-41.16 33.332-73.504 74.477-97.033 123.51C321.088 642.682 309 696.932 309 754.426c0 98.686 32.668 183.128 98.021 253.359 65.322 70.231 144.398 105.377 237.186 105.377 92.139 0 170.861-35.146 236.229-105.377 65.307-70.231 98.006-154.674 98.006-253.359-.001-57.494-12.09-111.744-36.266-162.694zM605.98 1035.736c-62.729-10.468-115.504-42.311-158.287-95.559-26.276-32.683-44.468-68.637-54.612-107.85 17.106 14.446 39.208 23.156 63.341 23.156 54.311 0 98.301-43.99 98.301-98.301 0-54.252-43.99-98.301-98.301-98.301-24.952 0-47.731 9.322-65.063 24.665 9.733-41.938 28.502-80.225 56.335-114.843 42.783-53.264 95.559-85.121 158.287-95.574v562.607zm234.268-95.558c-42.486 53.248-95.426 85.091-158.787 95.559V473.131c63.361 10.453 116.301 42.311 158.787 95.574 28.4 35.619 47.287 75.123 56.69 118.491-16.171-11.688-36.029-18.583-57.487-18.583-54.25 0-98.256 44.049-98.256 98.301 0 54.25 44.006 98.24 98.256 98.24 17.904 0 34.695-4.794 49.16-13.163-10.61 31.646-26.722 61.045-48.363 88.187z" transform="translate(-38.721 -8.162)"/></svg>