<svg xmlns="http://www.w3.org/2000/svg" xml:space="preserve" viewBox="0 0 1210 1210"><path d="M550.26 770.439c-.039 1.77-.064 3.528-.07 5.273 0 8.857.506 17.318 1.312 25.479.553 5.896.807 11.638.807 17.174 0 26.453-6.451 49.164-19.293 66.386-12.553 17.054-32.555 27.753-53.4 27.753h-.445c-37.369-.505-70.057-28.908-89.445-75.099-8.401-19.958-14.842-40.882-19.44-62.167-134.169 16.825-230.289 62.242-230.289 115.614 0 67.746 154.567 122.627 345.312 122.627 190.672 0 345.264-54.881 345.264-122.627-.001-59.802-120.691-109.619-280.313-120.413Z" transform="translate(90.634 60.75) scale(1.05993)"/><path d="M413.393 650.461c-1.741 13.321-2.649 27.262-2.618 41.487-.048 42.616 8.015 87.64 24.383 126.32 15.104 35.817 35.155 45.433 44.013 44.928 8.617-.048 22.566-6.944 23.878-44.831 0-3.875-.205-8.16-.603-12.433a301.435 301.435 0 0 1-1.516-30.22c-.089-32.54 5.081-69.593 18.739-106.715 23.479-8.751 47.771-19.271 71.216-32.359 69.062-38.554 130.76-99.402 142.54-203.061 13.973-122.987-85.004-333.65-186.364-420.099-27.055 89.625-161.09 149.837-220.772 272.752-66.819 141.696-12.955 251.478 45.225 320.716 14.273 16.99 28.803 31.536 41.879 43.515zm129.142-480.718c-102.358 166.663-87.736 333.963-65.603 384.607 36.972 84.751-22.313 92.983-40.294 52.389-16.476-54.483-48.429-268.757 105.897-436.996z" transform="translate(90.634 60.75) scale(1.05993)"/></svg>