<svg xmlns="http://www.w3.org/2000/svg" xml:space="preserve" viewBox="0 0 1210 1210"><path d="M745.105 635.381c-80.599.016-152.346 37.667-198.684 96.314-22.493-139.293 57.816-289.168 57.816-289.168 343.232 129.754 406.68-247.968 406.68-247.968-250.672-109.057-376.808-41.532-464.05 126.628-50.582-111.007-143.686-172.952-241.033-159.059-35.678 56.102-30.602 183.531 81.561 224.352 58.354 21.242 102.903 12.09 132.221-1.573-59.528 167.476-62.93 346.82-26.832 483.736a256.78 256.78 0 0 0-.773 19.835c.027 139.719 113.244 253.069 253.096 253.069 139.799 0 253.004-113.351 253.004-253.069-.002-139.746-113.207-253.07-253.006-253.097Zm0 417.634c-90.91-.188-164.35-73.68-164.523-164.537.174-90.857 73.613-164.35 164.523-164.536 90.83.187 164.283 73.679 164.443 164.536-.159 90.857-73.612 164.349-164.443 164.537z" style="fill:#089848" transform="translate(-43.55 -36.548)"/><path d="M745.105 786.213c-56.541 0-102.385 45.736-102.385 102.265 0 56.556 45.844 102.318 102.385 102.318 56.475 0 102.266-45.763 102.266-102.318 0-56.529-45.791-102.265-102.266-102.265z" style="fill:#089848" transform="translate(-43.55 -36.548)"/></svg>