<svg xmlns="http://www.w3.org/2000/svg" xml:space="preserve" viewBox="0 0 1210 1210"><path d="M1115.633 251.133c-52.715-73.311-130.477-109.995-233.227-109.995-58.051 0-98.785 5.334-122.119 16.003-42.732 19.397-84.094 64.754-124.145 136.153C581.43 191.856 499.02 141.138 388.91 141.138c-102.779 0-180.197 40.991-232.229 123.003-42.047 65.98-63.07 148.677-63.07 247.975 0 91.368 23.676 171.384 71.057 240.017 36.713 53.343 101.438 114.331 194.205 183.021l277.27 205.984c49.379-41.334 147.479-117.669 294.301-228.977 92.109-70.002 154.809-128.708 188.186-176.004 44.699-63.327 67.062-139.349 67.062-228.007-.001-106.657-23.362-192.349-70.059-257.017zM974.801 755.27c-15.348 56.624-64.297 92.31-129.621 74.081-33.92-9.378-92.647-63.099-141.197-112.493a108.502 108.502 0 0 1-12.341 8.336c24.35 55.051 49.139 116.841 51.987 146.005 5.646 59.22-36 106.857-92.625 112.42-56.623 5.478-105.973-26.871-112.447-92.595-3.151-33.263 23.521-102.531 50.598-162.771a108.132 108.132 0 0 1-15.796-9.714c-45.933 45.758-98.086 91.852-129.307 100.485-65.268 18.114-114.219-17.543-129.564-74.195-15.404-56.538 15.09-114.331 73.824-130.763 26.63-7.355 86.195-7.019 143.375-4.451a106.96 106.96 0 0 1 3.952-14.139c-53.424-24.662-106.247-53.775-122.909-78.54-37.197-55.825-18.883-117.726 29.383-155.836 48.207-38.111 111.707-32.292 145.367 17.856 15.901 23.758 35.122 85.87 50.943 144.637 5.073.039 10.062.426 14.947 1.141 15.305-55.911 33.341-112.867 48.383-135.394 33.66-50.092 97.217-55.911 145.424-17.857 48.238 38.139 66.58 100.04 29.383 155.865-17.706 26.314-76.242 57.534-132.942 83.104a107.7 107.7 0 0 1 1.517 10.144c60.778-3.059 127.27-4.01 155.843 3.883 58.704 16.374 89.227 74.196 73.823 130.791z" style="fill:#089848" transform="translate(-4.333 -5.75) scale(.9526)"/><path d="M745.682 631.524a107.75 107.75 0 0 0-2.065-21.073c-8.814-44.477-44.988-79.098-90.248-85.718a109.088 109.088 0 0 0-14.947-1.141c-.285-.002-.568-.011-.854-.011-47.047 0-87.072 29.992-101.931 71.894a106.96 106.96 0 0 0-3.952 14.139 108.3 108.3 0 0 0-2.229 21.909c0 35.659 17.271 67.306 43.901 87.015a108.185 108.185 0 0 0 15.796 9.714c14.566 7.316 31.008 11.441 48.414 11.441 19.695 0 38.164-5.282 54.074-14.501a108.502 108.502 0 0 0 12.341-8.336c25.372-19.8 41.7-50.67 41.7-85.332z" style="fill:#089848" transform="translate(-4.333 -5.75) scale(.9526)"/></svg>