<svg xmlns="http://www.w3.org/2000/svg" xml:space="preserve" viewBox="0 0 1210 1210"><path d="M584.014 547.047c-46.275 5.139-61.834-31.86-59.791-49.127-11.383-9.764-27.107-46.608-27.107-46.608-9.107-16.547-14.221-33.454-15.031-50.823-1.207-21.377 4.189-37.615 16.252-48.664 6.527-6.063 13.002-5.756 19.438 1.027 5.949 6.526 5.691 13.002-1.156 19.374-4.611 4.65-7.002 12.358-7.271 23.33-.141 24.409 10.984 48.767 33.545 73.228 9.621-2.672 18.422-.668 26.129 6.013 1.428 1.182 2.854 2.774 4.318 4.625-7.863-58.429-.09-127.699 23.008-207.891 20.709-71.352 40.879-115.34 60.818-131.989 11.768-10.072 28.25-6.013 49.318 12.281 7.299 6.424 12.205 11.511 14.441 15.313 5.703 10.432 25.32 36.537 58.529 78.315 34.533 44.014 57.953 72.021 70.441 83.968 21.879 20.195 23.215 39.184 4.021 57.092-2.467 2.158-45.004 29.6-127.559 82.375 89.596-38.078 154.703-39.517 195.416-4.265 3.867 3.392 7.502 7.091 10.74 11.1 33.928 40.391 36.844 76.825 8.953 109.147-23.215 26.774-53.623 43.422-91.393 50.104-17.254 2.93-45.402-3.34-84.457-18.604a4072.484 4072.484 0 0 1-76.4-32.065c-3.354-1.028-7.709-1.901-11.691-4.574 40.648 27.083 54.201 68.295 46.75 76.002-15.029 15.572-122.816-45.938-140.261-108.684zm-415.782 478.885 12.655-229.139L242.758 1034 285.5 807.121l35.355 225.389 38.297-182.684 46.121 201.184 131.36-249.797-51.658 258.326 80.334-126.31-39.582 196.609-454.039 4.316L43 1030.814l63.684 36.125-34.186-180.062z" style="fill:#089848" transform="translate(103.307 -29.158)"/><path d="M532.639 602.086c17.361 25.076-3.895 38.672-.643 50.357-99.154 73.947-173.436 188.852-146.084 428.217l55.293 4.574C421.82 992.941 388.727 774.027 550.957 673c19.795 6.311 31.879-19.32 56.461-9.079 24.582 10.241 9.266 48.835 30.861 56.767 22.648 8.324 31.744-5.807 30.818-18.654-1.066-13.822-22.879-43.371-44.193-58.787-23.064-18.574-40.926-21.725-51.904-24.084-5.098-10.112-14.316-28.315-36.277-46.061-19.578-17.574-52.338-32.426-66.059-30.524-12.795 1.799-24.666 13.669-11.742 34.07 13.768 21.709 56.355.362 73.717 25.438z" style="fill:#089848" transform="translate(103.307 -29.158)"/></svg>