<svg xmlns="http://www.w3.org/2000/svg" xml:space="preserve" viewBox="0 0 1210 1210"><path d="M655.324 365.023c11.11 34.193 17.574 68.865 19.371 103.999 3.485-78.086 27.166-146.949 71.005-206.559 53.074-73.583 107.872-119.585 164.433-137.964 35.441-11.516 57.391-4.211 65.872 21.891 1.623 4.995 2.407 10.57 2.364 16.768 28.567-7.227 46.698.98 54.373 24.599 7.678 23.631 4.363 57.341-9.908 101.146-14.285 43.811-36.467 86.074-66.542 126.76-43.026 60.036-101.015 103.625-173.985 130.756 75.189-20.303 147.725-19.126 217.615 3.515 48.453 15.874 91.29 37.179 128.495 63.905 37.2 26.758 59.646 51.928 67.321 75.547 7.679 23.631-2.066 41.232-29.226 52.791 3.678 4.988 6.424 10.277 8.245 15.885 8.283 25.49-4.983 43.871-39.787 55.18-57.198 18.586-128.867 13.705-215.061-14.639-70.704-23.066-130.339-64.857-178.864-125.385 19.206 29.506 34.358 61.357 45.464 95.535 12.323 37.926 18.661 75.371 18.994 112.375-.009 57.057-8.47 108.777-25.363 155.139-16.884 46.387-36.816 73.299-59.822 80.773-15.529 5.047-30.885-.949-46.064-18.016-7.715 10.068-15.625 16.414-23.701 19.037-32.943 10.705-61.125-19.98-84.558-92.098-14.546-44.766-21.975-92.857-22.31-144.297-.192-74.146 21.265-143.652 64.353-208.525-48.821 61.229-108.362 103.252-178.605 126.076-58.422 18.984-113.669 26.625-165.743 22.928-52.048-3.709-81.918-17.355-89.597-40.984-3.635-11.186-.734-24.494 8.672-39.932-16.274-5.697-26.344-14.453-30.181-26.262-7.674-23.617 8.562-52.275 48.725-85.93 40.145-33.662 89.358-59.962 147.665-78.908 70.091-22.775 142.808-23.729 218.163-2.863-73.186-27.754-131.399-71.372-174.633-130.871-29.961-41.799-52.224-85.085-66.765-129.836-23.222-71.466-18.37-112.578 14.574-123.282 8.713-2.832 18.618-2.951 29.76-.39 1.628-22.514 10.205-36.3 25.747-41.35 22.994-7.472 55.165 2.679 96.496 30.489 41.343 27.804 78.779 64.779 112.321 110.922 21.48 30.132 38.369 64.164 50.687 102.075zm60.985 135.322c-22.648-11.528-46.092-13.376-70.334-5.499-23.618 7.675-41.194 22.851-52.739 45.489-11.537 22.663-13.474 45.786-5.8 69.403 7.878 24.244 23.144 42.141 45.795 53.682 22.65 11.541 45.781 13.461 69.399 5.787 24.243-7.877 42.132-23.127 53.674-45.777 11.552-22.655 13.37-46.103 5.492-70.347-7.674-23.617-22.82-41.189-45.487-52.738z" style="fill:#089848" transform="translate(-69.507 -14.65)"/></svg>