<svg xmlns="http://www.w3.org/2000/svg" xml:space="preserve" viewBox="0 0 1210 1210"><path d="M936.215 703.836c-5.191 18.209-30.432 90.091-50.838 111.589-47.438 50.212-105.908 82.484-175.41 96.816-1.104 16.541-1.656 27.879-1.656 33.916 0 5.521 9.523 31.561 28.555 78.188 19.031 46.629 28.541 72.938 28.541 79.023v29.793H519.674c3.301-6.65 15.719-27.584 37.229-62.899 16.541-27.584 24.812-56.519 24.812-86.876 0-17.646-2.75-32.812-8.271-45.5-2.76-5.521-11.754-44.493-28.945-55.438-51.869 41.867-130.414 37.106-180.416 6.184-40.125-24.836-90.473-107.295-90.473-161.924 0-44.665 16.873-117.553 61.551-134.683-11.596-17.081-17.377-36.125-17.377-57.084 0-33.67 11.707-62.604 35.168-86.876 23.438-24.271 51.979-36.42 85.625-36.42 12.137 0 22.062 1.964 29.793 5.792 6.051-48.003 27.572-79.686 64.533-95.122 22.062-9.399 59.574-14.087 112.533-14.087 52.396 0 95.418 9.104 129.076 27.314 41.916 23.143 83.662 58.776 81.061 102.951 192.501 23.439 119.663 260.14 80.642 265.343zm-54.973 15.633c0-4.442-1.105-9.939-3.312-16.565l-4.137-9.105c-19.312 18.774-38.885 28.125-58.738 28.125-4.971 0-17.928-3.019-38.887-9.105-27.598-8.245-42.199-12.663-43.855-13.228 7.719 15.437 11.572 30.604 11.572 45.5 0 35.314-19.303 65.354-57.895 90.189l60.396 7.461c28.125-6.087 55.145-18.21 81.072-36.42 35.856-25.377 53.784-54.336 53.784-86.852zm-662.851-228.8L56.529 410.002l-35.855 71.931 161.838 80.741zm200.724-211.596L312.201 133.15l-64.838 47.512L354.24 326.586zM217.717 856.017 42.504 900.903 22.6 822.984l175.189-44.838zm814.515-373.447 167.938-67.145 29.83 74.631-167.938 67.17zM831.521 279.073 938.436 133.15l64.837 47.512-106.877 145.924zm201.399 576.944 175.213 44.886 19.916-77.919-175.201-44.838z" style="fill:#089848" transform="translate(61.642 54.848) scale(.8689)"/></svg>