<svg xmlns="http://www.w3.org/2000/svg" xml:space="preserve" viewBox="0 0 1210 1210"><path d="M1036 505.281c0 55.526-11.717 94.637-35.108 117.356-16.719 16.061-48.141 29.106-94.28 39.138-15.581 43.852-80.741 162.551-272.823 202.593-3.385 11.154-2.001 33.766-2.001 41.11 0 6.688 11.539 38.26 34.602 94.773 23.077 56.514 34.602 88.442 34.602 95.815v36.095H403.103c4.015-8.03 19.062-33.464 45.14-76.219 20.048-33.437 30.079-68.572 30.079-105.325 0-21.405-3.344-39.768-10.031-55.171-3.343-6.687-15.033-29.078-35.095-67.202-14.046 11.401-41.467 22.748-82.248 34.095-37.452 10.031-66.874 15.074-88.265 15.074-66.873 0-120.7-20.062-161.482-60.187-40.795-40.123-61.187-93.293-61.187-159.481 0-54.184 10.36-93.595 31.093-118.37 18.062-21.378 54.17-42.427 108.327-63.174-14.046-20.72-21.062-43.769-21.062-69.202 0-40.782 14.197-75.891 42.632-105.325 28.407-29.408 63.009-44.126 103.804-44.126 14.704 0 26.736 2.33 36.109 7.017 7.345-58.186 33.423-96.609 78.233-115.356 26.735-11.347 72.217-17.047 136.405-17.047 63.516 0 115.671 11.045 156.467 33.107 50.812 28.093 78.562 70.546 83.249 127.388 4.673 0 16.705-3.508 36.109-10.524 19.391-7.016 34.108-10.523 44.139-10.523 56.828 0 99.625 29.051 128.375 87.236 21.389 43.495 32.106 92.279 32.106 146.435zM841.41 630.668c0-5.344-1.343-12.031-4.015-20.062l-5.016-11.045c-23.406 22.748-101.913 38.589-171.5 7.016 6.756 8.305 14.032 37.109 14.032 55.198 0 42.782-23.405 79.206-70.203 109.299.001 0 214.187 2.056 236.702-140.406z" transform="translate(66.993 -27.162)"/></svg>