<svg xmlns="http://www.w3.org/2000/svg" xml:space="preserve" viewBox="0 0 1210 1210"><path d="M1000.765 515.875c-36.451-69.476-94.704-104.245-174.668-104.245-24.127 0-41.894 1.927-53.238 5.688-8.532 2.385-24.861 10.397-49.049 24.127 0-16.543 5.718-38.561 17.094-66.021 14.188-34.065 21.956-54.4 23.423-61.036-13.241-6.666-29.111-12.109-47.581-16.329l-53.238 133.447c-11.345-38.315-18.225-61.525-20.58-69.567-7.095-22.262-16.696-38.438-28.775-48.621-12.048-10.183-29.448-15.259-52.198-15.259-32.628 0-73.574 16.329-122.806 48.988-44.951 29.784-77.61 59.14-97.976 88.007 16.574-6.177 45.93-12.538 88.068-19.143 37.857-6.146 60.792-9.235 68.864-9.235 67.213 0 119.962 14.433 158.278 43.3-4.22.458-18.225-.123-41.832-1.774-21.285-1.485-28.762-2.327-22.492-2.481-78.337.557-140.894 26.07-187.648 76.574-45.96 49.141-68.864 113.907-68.864 194.27 0 62.871 17.98 123.356 53.911 181.518 44.982 72.81 105.101 109.198 180.326 109.198 44.462 0 83.97-14.647 118.555-44.033 30.304 21.436 54.431 34.707 72.473 39.845 9.418 2.752 24.555 4.188 45.41 4.188 79.017 0 140.297-38.315 183.903-114.854 33.545-59.11 50.363-123.388 50.363-192.894 0-71.86-13.242-133.08-39.723-183.658zm-408.707-70.152c.874-.006 1.738-.026 2.615-.026-1.047-.001-1.913.009-2.615.026zM82.136 1031.868l49.752 96.264 214.36-110.85-49.905-96.294zm257.721-741.453L161.274 128.162l-72.9 80.24 178.613 162.284zM217.876 599.051 0 600.274l.581 108.403 217.968-1.223Zm790.503 418.2 214.299 110.911 49.813-96.294-214.329-110.88zm257.812-808.849-72.931-80.209-178.552 162.222 72.87 80.24zM1136.72 599.051l-.673 108.403 217.938 1.254.611-108.434z" style="fill:#2e67b1" transform="translate(79.268 122.645) scale(.76593)"/></svg>