<?xml version="1.0" encoding="UTF-8" standalone="no"?>
<!DOCTYPE svg PUBLIC "-//W3C//DTD SVG 1.1//EN" "http://www.w3.org/Graphics/SVG/1.1/DTD/svg11.dtd">
<svg width="100%" height="100%" viewBox="0 0 800 206" version="1.1" xmlns="http://www.w3.org/2000/svg" xmlns:xlink="http://www.w3.org/1999/xlink" xml:space="preserve" xmlns:serif="http://www.serif.com/" style="fill-rule:evenodd;clip-rule:evenodd;stroke-linecap:round;stroke-linejoin:round;stroke-miterlimit:1.5;">
    <g transform="matrix(1.33333,0,0,1.33333,0,0)">
        <g transform="matrix(1,0,0,1,0,-28.7607)">
            <g transform="matrix(0.534536,0,0,0.922716,60.5806,12.6844)">
                <path d="M130.151,176.836C130.151,176.836 138.722,159.535 140.396,150.048M140.396,150.048C140.396,150.048 96.458,155.041 73.745,159.654L130.151,176.836" style="fill:rgb(206,77,96);stroke:rgb(206,77,96);stroke-width:10.61px;"/>
            </g>
            <path d="M100,96.88C100,96.88 81.076,95.351 55.783,78.117C55.783,78.117 60.853,118.26 70.832,130.235C70.832,130.235 61.175,145.963 22.253,151.136C22.253,151.136 97.829,189.997 125.771,182.014C153.713,174.03 100.321,166.314 97.481,163.015" style="fill:url(#_Radial1);"/>
            <g transform="matrix(-0.534536,0,0,0.922716,539.097,12.6844)">
                <path d="M130.151,176.836C130.151,176.836 138.722,159.535 140.396,150.048M140.396,150.048C140.396,150.048 96.458,155.041 73.745,159.654L130.151,176.836" style="fill:rgb(206,77,96);stroke:rgb(206,77,96);stroke-width:10.61px;"/>
            </g>
            <g transform="matrix(-1,0,0,1,599.677,0)">
                <path d="M100,96.88C100,96.88 81.076,95.351 55.783,78.117C55.783,78.117 60.853,118.26 70.832,130.235C70.832,130.235 61.175,145.963 22.253,151.136C22.253,151.136 97.829,189.997 125.771,182.014C153.713,174.03 100.321,166.314 97.481,163.015" style="fill:url(#_Radial2);"/>
            </g>
            <path d="M100,60C100,60 300.416,0.962 500,60L500,160C500,160 300.083,102.5 100,160L100,60Z" style="fill:rgb(252,77,96);stroke:rgb(252,77,96);stroke-width:8px;"/>
            <g transform="matrix(1,0,0,1,0,-116.602)">
                <g transform="matrix(41.509,-6.40346,6.40346,41.509,169.443,247.335)">
                    <path d="M0.454,-0.278L0.434,-0.062L0.022,-0.029C0.024,-0.143 0.027,-0.256 0.029,-0.368C0.031,-0.48 0.035,-0.593 0.038,-0.707L0.292,-0.707C0.285,-0.636 0.277,-0.564 0.271,-0.493C0.264,-0.422 0.259,-0.351 0.256,-0.278C0.271,-0.278 0.286,-0.277 0.301,-0.277L0.347,-0.277C0.365,-0.277 0.383,-0.278 0.4,-0.278C0.418,-0.278 0.436,-0.278 0.454,-0.278Z" style="fill:white;fill-rule:nonzero;stroke:rgb(193,56,74);stroke-width:0.05px;stroke-linecap:butt;stroke-miterlimit:2;"/>
                </g>
                <g transform="matrix(41.6668,-5.28002,5.28002,41.6668,188.175,244.422)">
                    <path d="M0.487,-0.704C0.485,-0.674 0.484,-0.643 0.482,-0.613C0.48,-0.583 0.478,-0.553 0.476,-0.522L0.269,-0.512L0.264,-0.45L0.409,-0.45L0.398,-0.299L0.252,-0.294L0.247,-0.223L0.454,-0.223C0.452,-0.187 0.45,-0.151 0.448,-0.116C0.446,-0.081 0.444,-0.045 0.442,-0.01L0.021,-0L0.037,-0.704L0.487,-0.704Z" style="fill:white;fill-rule:nonzero;stroke:rgb(193,56,74);stroke-width:0.05px;stroke-linecap:butt;stroke-miterlimit:2;"/>
                </g>
                <g transform="matrix(41.8086,-4.0056,4.0056,41.8086,208.188,241.832)">
                    <path d="M0.641,-0.042L0.398,-0.011L0.369,-0.121L0.258,-0.121L0.233,-0.011L-0.016,-0.035L0.179,-0.686L0.45,-0.699L0.641,-0.042ZM0.352,-0.271L0.314,-0.44L0.278,-0.271L0.352,-0.271Z" style="fill:white;fill-rule:nonzero;stroke:rgb(193,56,74);stroke-width:0.05px;stroke-linecap:butt;stroke-miterlimit:2;"/>
                </g>
                <g transform="matrix(41.9206,-2.5818,2.5818,41.9206,234.337,239.337)">
                    <path d="M0.578,-0.388C0.578,-0.342 0.572,-0.301 0.561,-0.264C0.549,-0.228 0.532,-0.195 0.511,-0.167C0.49,-0.138 0.465,-0.114 0.437,-0.093C0.408,-0.073 0.376,-0.056 0.341,-0.042C0.307,-0.029 0.27,-0.02 0.231,-0.013C0.192,-0.007 0.152,-0.004 0.111,-0.004C0.096,-0.004 0.081,-0.004 0.066,-0.005C0.052,-0.006 0.037,-0.007 0.021,-0.009L0.035,-0.664C0.071,-0.675 0.108,-0.683 0.146,-0.688C0.184,-0.693 0.221,-0.695 0.259,-0.695C0.305,-0.695 0.348,-0.688 0.387,-0.674C0.426,-0.66 0.46,-0.64 0.488,-0.614C0.517,-0.587 0.539,-0.555 0.554,-0.517C0.57,-0.479 0.578,-0.436 0.578,-0.388ZM0.378,-0.356C0.378,-0.374 0.376,-0.391 0.372,-0.407C0.368,-0.424 0.361,-0.438 0.352,-0.45C0.343,-0.463 0.331,-0.473 0.317,-0.48C0.303,-0.488 0.285,-0.493 0.266,-0.493L0.246,-0.19C0.266,-0.193 0.283,-0.2 0.299,-0.209C0.315,-0.22 0.329,-0.232 0.34,-0.246C0.352,-0.261 0.361,-0.277 0.367,-0.294C0.374,-0.312 0.377,-0.331 0.378,-0.35L0.378,-0.356Z" style="fill:white;fill-rule:nonzero;stroke:rgb(193,56,74);stroke-width:0.05px;stroke-linecap:butt;stroke-miterlimit:2;"/>
                </g>
                <g transform="matrix(41.9781,-1.35499,1.35499,41.9781,258.786,237.85)">
                    <path d="M0.487,-0.704C0.485,-0.674 0.484,-0.643 0.482,-0.613C0.48,-0.583 0.478,-0.553 0.476,-0.522L0.269,-0.512L0.264,-0.45L0.409,-0.45L0.398,-0.299L0.252,-0.294L0.247,-0.223L0.454,-0.223C0.452,-0.187 0.45,-0.151 0.448,-0.116C0.446,-0.081 0.444,-0.045 0.442,-0.01L0.021,-0L0.037,-0.704L0.487,-0.704Z" style="fill:white;fill-rule:nonzero;stroke:rgb(193,56,74);stroke-width:0.05px;stroke-linecap:butt;stroke-miterlimit:2;"/>
                </g>
                <g transform="matrix(41.9997,-0.160866,0.160866,41.9997,278.846,237.153)">
                    <path d="M0.597,-0.471C0.597,-0.445 0.595,-0.422 0.59,-0.401C0.586,-0.381 0.579,-0.362 0.57,-0.345C0.56,-0.327 0.548,-0.312 0.533,-0.297C0.518,-0.282 0.5,-0.268 0.479,-0.255L0.595,-0.048L0.375,-0.005L0.3,-0.213L0.24,-0.211L0.231,-0.008L0.021,-0.008C0.023,-0.082 0.024,-0.156 0.025,-0.229C0.027,-0.303 0.029,-0.377 0.031,-0.451C0.031,-0.489 0.032,-0.526 0.033,-0.563C0.033,-0.599 0.035,-0.636 0.037,-0.674C0.059,-0.682 0.082,-0.689 0.104,-0.695C0.126,-0.7 0.148,-0.705 0.17,-0.708C0.193,-0.711 0.215,-0.713 0.238,-0.714C0.261,-0.715 0.285,-0.716 0.309,-0.716C0.346,-0.716 0.382,-0.711 0.417,-0.7C0.451,-0.69 0.482,-0.675 0.509,-0.654C0.535,-0.634 0.557,-0.608 0.573,-0.578C0.589,-0.547 0.597,-0.511 0.597,-0.471ZM0.378,-0.455C0.378,-0.469 0.376,-0.481 0.373,-0.493C0.369,-0.504 0.363,-0.514 0.356,-0.522C0.349,-0.53 0.34,-0.537 0.329,-0.542C0.318,-0.546 0.305,-0.549 0.291,-0.549C0.284,-0.549 0.278,-0.548 0.271,-0.547C0.265,-0.547 0.259,-0.546 0.253,-0.544L0.246,-0.362L0.257,-0.362C0.271,-0.362 0.285,-0.364 0.3,-0.368C0.314,-0.371 0.327,-0.377 0.339,-0.384C0.351,-0.392 0.36,-0.401 0.367,-0.413C0.375,-0.425 0.378,-0.439 0.378,-0.455Z" style="fill:white;fill-rule:nonzero;stroke:rgb(193,56,74);stroke-width:0.05px;stroke-linecap:butt;stroke-miterlimit:2;"/>
                </g>
                <g transform="matrix(41.9835,1.17646,-1.17646,41.9835,304.337,237.049)">
                    <path d="M0.593,-0.174C0.593,-0.147 0.588,-0.124 0.578,-0.104C0.568,-0.084 0.555,-0.068 0.539,-0.054C0.522,-0.041 0.503,-0.029 0.481,-0.021C0.459,-0.012 0.437,-0.005 0.414,-0C0.39,0.004 0.367,0.008 0.343,0.009C0.319,0.011 0.297,0.012 0.277,0.012C0.257,0.012 0.236,0.011 0.214,0.009C0.192,0.008 0.171,0.006 0.149,0.002C0.128,-0.002 0.107,-0.006 0.086,-0.012C0.065,-0.018 0.045,-0.026 0.027,-0.035L0.026,-0.664C0.044,-0.672 0.063,-0.678 0.084,-0.684C0.104,-0.69 0.125,-0.695 0.146,-0.699C0.168,-0.703 0.189,-0.707 0.21,-0.708C0.232,-0.711 0.252,-0.712 0.272,-0.712C0.295,-0.712 0.318,-0.71 0.342,-0.708C0.366,-0.705 0.388,-0.7 0.41,-0.693C0.432,-0.686 0.452,-0.677 0.471,-0.666C0.49,-0.655 0.507,-0.642 0.521,-0.626C0.535,-0.61 0.546,-0.591 0.554,-0.57C0.562,-0.549 0.566,-0.525 0.566,-0.497C0.566,-0.479 0.563,-0.462 0.558,-0.446C0.553,-0.43 0.545,-0.416 0.536,-0.403C0.526,-0.39 0.514,-0.379 0.5,-0.37C0.486,-0.361 0.47,-0.355 0.453,-0.351C0.474,-0.345 0.493,-0.337 0.51,-0.326C0.528,-0.315 0.543,-0.302 0.555,-0.287C0.567,-0.272 0.576,-0.255 0.583,-0.235C0.59,-0.216 0.593,-0.196 0.593,-0.174ZM0.345,-0.452C0.345,-0.462 0.343,-0.47 0.339,-0.476C0.335,-0.483 0.331,-0.488 0.325,-0.493C0.319,-0.497 0.313,-0.5 0.306,-0.502C0.3,-0.504 0.294,-0.505 0.289,-0.505C0.282,-0.505 0.276,-0.504 0.27,-0.502C0.263,-0.5 0.257,-0.498 0.251,-0.495L0.249,-0.387C0.256,-0.387 0.265,-0.387 0.276,-0.389C0.287,-0.39 0.298,-0.393 0.308,-0.397C0.319,-0.402 0.327,-0.408 0.334,-0.417C0.342,-0.425 0.345,-0.437 0.345,-0.452ZM0.276,-0.293C0.266,-0.293 0.257,-0.292 0.249,-0.29L0.247,-0.179C0.251,-0.178 0.256,-0.177 0.261,-0.176C0.266,-0.175 0.27,-0.175 0.275,-0.175C0.282,-0.175 0.289,-0.175 0.297,-0.177C0.306,-0.178 0.313,-0.181 0.32,-0.186C0.327,-0.19 0.333,-0.196 0.338,-0.204C0.343,-0.211 0.345,-0.221 0.345,-0.233C0.345,-0.246 0.343,-0.256 0.338,-0.264C0.333,-0.271 0.328,-0.278 0.321,-0.282C0.314,-0.286 0.306,-0.289 0.298,-0.291C0.29,-0.292 0.283,-0.293 0.276,-0.293Z" style="fill:white;fill-rule:nonzero;stroke:rgb(193,56,74);stroke-width:0.05px;stroke-linecap:butt;stroke-miterlimit:2;"/>
                </g>
                <g transform="matrix(41.928,2.45768,-2.45768,41.928,328.87,237.709)">
                    <path d="M0.628,-0.345C0.628,-0.315 0.625,-0.286 0.618,-0.259C0.611,-0.231 0.601,-0.206 0.588,-0.182C0.576,-0.158 0.56,-0.135 0.542,-0.115C0.523,-0.095 0.503,-0.078 0.479,-0.064C0.457,-0.05 0.432,-0.038 0.405,-0.03C0.378,-0.022 0.349,-0.019 0.319,-0.019C0.29,-0.019 0.262,-0.022 0.235,-0.03C0.208,-0.037 0.184,-0.048 0.161,-0.061C0.138,-0.075 0.117,-0.091 0.098,-0.11C0.079,-0.129 0.063,-0.15 0.05,-0.173C0.037,-0.197 0.027,-0.222 0.019,-0.249C0.012,-0.275 0.008,-0.303 0.008,-0.332C0.008,-0.36 0.012,-0.388 0.019,-0.415C0.025,-0.442 0.035,-0.468 0.048,-0.492C0.061,-0.516 0.076,-0.538 0.095,-0.559C0.113,-0.579 0.133,-0.596 0.156,-0.611C0.179,-0.625 0.203,-0.637 0.229,-0.645C0.256,-0.653 0.284,-0.657 0.313,-0.657C0.36,-0.657 0.403,-0.65 0.442,-0.635C0.481,-0.621 0.514,-0.6 0.542,-0.572C0.569,-0.545 0.59,-0.512 0.605,-0.474C0.621,-0.435 0.628,-0.392 0.628,-0.345ZM0.412,-0.332C0.412,-0.346 0.41,-0.36 0.405,-0.373C0.401,-0.386 0.396,-0.398 0.388,-0.408C0.38,-0.418 0.37,-0.426 0.358,-0.433C0.347,-0.439 0.334,-0.442 0.319,-0.442C0.304,-0.442 0.29,-0.44 0.278,-0.434C0.266,-0.429 0.255,-0.421 0.247,-0.411C0.238,-0.402 0.232,-0.39 0.227,-0.377C0.222,-0.365 0.22,-0.351 0.22,-0.337C0.22,-0.323 0.222,-0.31 0.226,-0.296C0.23,-0.282 0.236,-0.27 0.244,-0.259C0.251,-0.248 0.261,-0.239 0.272,-0.232C0.284,-0.225 0.298,-0.222 0.313,-0.222C0.328,-0.222 0.342,-0.225 0.354,-0.23C0.366,-0.237 0.377,-0.245 0.385,-0.255C0.394,-0.265 0.4,-0.277 0.405,-0.291C0.409,-0.304 0.412,-0.318 0.412,-0.332Z" style="fill:white;fill-rule:nonzero;stroke:rgb(193,56,74);stroke-width:0.05px;stroke-linecap:butt;stroke-miterlimit:2;"/>
                </g>
                <g transform="matrix(41.8323,3.74987,-3.74987,41.8323,354.669,239.212)">
                    <path d="M0.641,-0.042L0.398,-0.011L0.369,-0.121L0.258,-0.121L0.233,-0.011L-0.016,-0.035L0.179,-0.686L0.45,-0.699L0.641,-0.042ZM0.352,-0.271L0.314,-0.44L0.278,-0.271L0.352,-0.271Z" style="fill:white;fill-rule:nonzero;stroke:rgb(193,56,74);stroke-width:0.05px;stroke-linecap:butt;stroke-miterlimit:2;"/>
                </g>
                <g transform="matrix(41.6956,5.04752,-5.04752,41.6956,380.892,241.567)">
                    <path d="M0.597,-0.471C0.597,-0.445 0.595,-0.422 0.59,-0.401C0.586,-0.381 0.579,-0.362 0.57,-0.345C0.56,-0.327 0.548,-0.312 0.533,-0.297C0.518,-0.282 0.5,-0.268 0.479,-0.255L0.595,-0.048L0.375,-0.005L0.3,-0.213L0.24,-0.211L0.231,-0.008L0.021,-0.008C0.023,-0.082 0.024,-0.156 0.025,-0.229C0.027,-0.303 0.029,-0.377 0.031,-0.451C0.031,-0.489 0.032,-0.526 0.033,-0.563C0.033,-0.599 0.035,-0.636 0.037,-0.674C0.059,-0.682 0.082,-0.689 0.104,-0.695C0.126,-0.7 0.148,-0.705 0.17,-0.708C0.193,-0.711 0.215,-0.713 0.238,-0.714C0.261,-0.715 0.285,-0.716 0.309,-0.716C0.346,-0.716 0.382,-0.711 0.417,-0.7C0.451,-0.69 0.482,-0.675 0.509,-0.654C0.535,-0.634 0.557,-0.608 0.573,-0.578C0.589,-0.547 0.597,-0.511 0.597,-0.471ZM0.378,-0.455C0.378,-0.469 0.376,-0.481 0.373,-0.493C0.369,-0.504 0.363,-0.514 0.356,-0.522C0.349,-0.53 0.34,-0.537 0.329,-0.542C0.318,-0.546 0.305,-0.549 0.291,-0.549C0.284,-0.549 0.278,-0.548 0.271,-0.547C0.265,-0.547 0.259,-0.546 0.253,-0.544L0.246,-0.362L0.257,-0.362C0.271,-0.362 0.285,-0.364 0.3,-0.368C0.314,-0.371 0.327,-0.377 0.339,-0.384C0.351,-0.392 0.36,-0.401 0.367,-0.413C0.375,-0.425 0.378,-0.439 0.378,-0.455Z" style="fill:white;fill-rule:nonzero;stroke:rgb(193,56,74);stroke-width:0.05px;stroke-linecap:butt;stroke-miterlimit:2;"/>
                </g>
                <g transform="matrix(41.5297,6.26799,-6.26799,41.5297,406.164,244.626)">
                    <path d="M0.578,-0.388C0.578,-0.342 0.572,-0.301 0.561,-0.264C0.549,-0.228 0.532,-0.195 0.511,-0.167C0.49,-0.138 0.465,-0.114 0.437,-0.093C0.408,-0.073 0.376,-0.056 0.341,-0.042C0.307,-0.029 0.27,-0.02 0.231,-0.013C0.192,-0.007 0.152,-0.004 0.111,-0.004C0.096,-0.004 0.081,-0.004 0.066,-0.005C0.052,-0.006 0.037,-0.007 0.021,-0.009L0.035,-0.664C0.071,-0.675 0.108,-0.683 0.146,-0.688C0.184,-0.693 0.221,-0.695 0.259,-0.695C0.305,-0.695 0.348,-0.688 0.387,-0.674C0.426,-0.66 0.46,-0.64 0.488,-0.614C0.517,-0.587 0.539,-0.555 0.554,-0.517C0.57,-0.479 0.578,-0.436 0.578,-0.388ZM0.378,-0.356C0.378,-0.374 0.376,-0.391 0.372,-0.407C0.368,-0.424 0.361,-0.438 0.352,-0.45C0.343,-0.463 0.331,-0.473 0.317,-0.48C0.303,-0.488 0.285,-0.493 0.266,-0.493L0.246,-0.19C0.266,-0.193 0.283,-0.2 0.299,-0.209C0.315,-0.22 0.329,-0.232 0.34,-0.246C0.352,-0.261 0.361,-0.277 0.367,-0.294C0.374,-0.312 0.377,-0.331 0.378,-0.35L0.378,-0.356Z" style="fill:white;fill-rule:nonzero;stroke:rgb(193,56,74);stroke-width:0.05px;stroke-linecap:butt;stroke-miterlimit:2;"/>
                </g>
            </g>
            <g transform="matrix(1,0,0,1,0,-162.602)">
                <g transform="matrix(35.2562,-7.27999,7.27999,35.2562,137.888,253.438)">
                    <path d="M0.366,-0.702L0.338,-0.008L0.125,-0.018L0.137,-0.479L0.059,-0.426L-0.015,-0.593L0.145,-0.712L0.366,-0.702Z" style="fill:white;fill-rule:nonzero;stroke:rgb(193,56,74);stroke-width:0.06px;stroke-linecap:butt;stroke-miterlimit:2;"/>
                </g>
                <g transform="matrix(35.4406,-6.32192,6.32192,35.4406,151.578,250.56)">
                    <path d="M0.619,-0.35C0.619,-0.321 0.615,-0.292 0.609,-0.264C0.603,-0.236 0.594,-0.209 0.582,-0.183C0.569,-0.157 0.555,-0.132 0.537,-0.11C0.52,-0.087 0.5,-0.068 0.478,-0.051C0.455,-0.035 0.43,-0.022 0.403,-0.012C0.377,-0.003 0.348,0.002 0.317,0.002C0.286,0.002 0.257,-0.003 0.229,-0.012C0.202,-0.022 0.178,-0.035 0.155,-0.051C0.133,-0.068 0.113,-0.087 0.096,-0.11C0.078,-0.132 0.063,-0.157 0.051,-0.183C0.039,-0.209 0.03,-0.236 0.023,-0.264C0.017,-0.293 0.014,-0.321 0.014,-0.35C0.014,-0.378 0.017,-0.406 0.023,-0.435C0.03,-0.464 0.039,-0.491 0.051,-0.517C0.063,-0.543 0.078,-0.567 0.096,-0.59C0.113,-0.613 0.133,-0.632 0.155,-0.649C0.178,-0.666 0.202,-0.679 0.229,-0.688C0.257,-0.697 0.286,-0.702 0.317,-0.702C0.348,-0.702 0.377,-0.697 0.403,-0.688C0.43,-0.679 0.455,-0.666 0.478,-0.649C0.5,-0.632 0.52,-0.613 0.537,-0.59C0.555,-0.567 0.569,-0.543 0.582,-0.517C0.594,-0.491 0.603,-0.464 0.609,-0.435C0.615,-0.406 0.619,-0.378 0.619,-0.35ZM0.413,-0.335C0.413,-0.349 0.411,-0.365 0.407,-0.383C0.403,-0.4 0.397,-0.417 0.389,-0.432C0.381,-0.447 0.37,-0.46 0.357,-0.471C0.345,-0.481 0.33,-0.486 0.312,-0.486C0.294,-0.486 0.279,-0.481 0.266,-0.471C0.253,-0.46 0.243,-0.447 0.234,-0.432C0.226,-0.417 0.22,-0.4 0.216,-0.383C0.212,-0.365 0.21,-0.349 0.21,-0.335C0.21,-0.321 0.212,-0.305 0.216,-0.287C0.22,-0.27 0.226,-0.253 0.234,-0.238C0.243,-0.222 0.253,-0.21 0.266,-0.199C0.279,-0.189 0.294,-0.184 0.312,-0.184C0.33,-0.184 0.345,-0.189 0.357,-0.199C0.37,-0.21 0.381,-0.222 0.389,-0.238C0.397,-0.253 0.403,-0.27 0.407,-0.287C0.411,-0.305 0.413,-0.321 0.413,-0.335Z" style="fill:white;fill-rule:nonzero;stroke:rgb(193,56,74);stroke-width:0.06px;stroke-linecap:butt;stroke-miterlimit:2;"/>
                </g>
                <g transform="matrix(35.6236,-5.19197,5.19197,35.6236,174.016,246.559)">
                    <path d="M0.619,-0.35C0.619,-0.321 0.615,-0.292 0.609,-0.264C0.603,-0.236 0.594,-0.209 0.582,-0.183C0.569,-0.157 0.555,-0.132 0.537,-0.11C0.52,-0.087 0.5,-0.068 0.478,-0.051C0.455,-0.035 0.43,-0.022 0.403,-0.012C0.377,-0.003 0.348,0.002 0.317,0.002C0.286,0.002 0.257,-0.003 0.229,-0.012C0.202,-0.022 0.178,-0.035 0.155,-0.051C0.133,-0.068 0.113,-0.087 0.096,-0.11C0.078,-0.132 0.063,-0.157 0.051,-0.183C0.039,-0.209 0.03,-0.236 0.023,-0.264C0.017,-0.293 0.014,-0.321 0.014,-0.35C0.014,-0.378 0.017,-0.406 0.023,-0.435C0.03,-0.464 0.039,-0.491 0.051,-0.517C0.063,-0.543 0.078,-0.567 0.096,-0.59C0.113,-0.613 0.133,-0.632 0.155,-0.649C0.178,-0.666 0.202,-0.679 0.229,-0.688C0.257,-0.697 0.286,-0.702 0.317,-0.702C0.348,-0.702 0.377,-0.697 0.403,-0.688C0.43,-0.679 0.455,-0.666 0.478,-0.649C0.5,-0.632 0.52,-0.613 0.537,-0.59C0.555,-0.567 0.569,-0.543 0.582,-0.517C0.594,-0.491 0.603,-0.464 0.609,-0.435C0.615,-0.406 0.619,-0.378 0.619,-0.35ZM0.413,-0.335C0.413,-0.349 0.411,-0.365 0.407,-0.383C0.403,-0.4 0.397,-0.417 0.389,-0.432C0.381,-0.447 0.37,-0.46 0.357,-0.471C0.345,-0.481 0.33,-0.486 0.312,-0.486C0.294,-0.486 0.279,-0.481 0.266,-0.471C0.253,-0.46 0.243,-0.447 0.234,-0.432C0.226,-0.417 0.22,-0.4 0.216,-0.383C0.212,-0.365 0.21,-0.349 0.21,-0.335C0.21,-0.321 0.212,-0.305 0.216,-0.287C0.22,-0.27 0.226,-0.253 0.234,-0.238C0.243,-0.222 0.253,-0.21 0.266,-0.199C0.279,-0.189 0.294,-0.184 0.312,-0.184C0.33,-0.184 0.345,-0.189 0.357,-0.199C0.37,-0.21 0.381,-0.222 0.389,-0.238C0.397,-0.253 0.403,-0.27 0.407,-0.287C0.411,-0.305 0.413,-0.321 0.413,-0.335Z" style="fill:white;fill-rule:nonzero;stroke:rgb(193,56,74);stroke-width:0.06px;stroke-linecap:butt;stroke-miterlimit:2;"/>
                </g>
                <g transform="matrix(35.7679,-4.08136,4.08136,35.7679,196.547,243.276)">
                    <path d="M0.619,-0.35C0.619,-0.321 0.615,-0.292 0.609,-0.264C0.603,-0.236 0.594,-0.209 0.582,-0.183C0.569,-0.157 0.555,-0.132 0.537,-0.11C0.52,-0.087 0.5,-0.068 0.478,-0.051C0.455,-0.035 0.43,-0.022 0.403,-0.012C0.377,-0.003 0.348,0.002 0.317,0.002C0.286,0.002 0.257,-0.003 0.229,-0.012C0.202,-0.022 0.178,-0.035 0.155,-0.051C0.133,-0.068 0.113,-0.087 0.096,-0.11C0.078,-0.132 0.063,-0.157 0.051,-0.183C0.039,-0.209 0.03,-0.236 0.023,-0.264C0.017,-0.293 0.014,-0.321 0.014,-0.35C0.014,-0.378 0.017,-0.406 0.023,-0.435C0.03,-0.464 0.039,-0.491 0.051,-0.517C0.063,-0.543 0.078,-0.567 0.096,-0.59C0.113,-0.613 0.133,-0.632 0.155,-0.649C0.178,-0.666 0.202,-0.679 0.229,-0.688C0.257,-0.697 0.286,-0.702 0.317,-0.702C0.348,-0.702 0.377,-0.697 0.403,-0.688C0.43,-0.679 0.455,-0.666 0.478,-0.649C0.5,-0.632 0.52,-0.613 0.537,-0.59C0.555,-0.567 0.569,-0.543 0.582,-0.517C0.594,-0.491 0.603,-0.464 0.609,-0.435C0.615,-0.406 0.619,-0.378 0.619,-0.35ZM0.413,-0.335C0.413,-0.349 0.411,-0.365 0.407,-0.383C0.403,-0.4 0.397,-0.417 0.389,-0.432C0.381,-0.447 0.37,-0.46 0.357,-0.471C0.345,-0.481 0.33,-0.486 0.312,-0.486C0.294,-0.486 0.279,-0.481 0.266,-0.471C0.253,-0.46 0.243,-0.447 0.234,-0.432C0.226,-0.417 0.22,-0.4 0.216,-0.383C0.212,-0.365 0.21,-0.349 0.21,-0.335C0.21,-0.321 0.212,-0.305 0.216,-0.287C0.22,-0.27 0.226,-0.253 0.234,-0.238C0.243,-0.222 0.253,-0.21 0.266,-0.199C0.279,-0.189 0.294,-0.184 0.312,-0.184C0.33,-0.184 0.345,-0.189 0.357,-0.199C0.37,-0.21 0.381,-0.222 0.389,-0.238C0.397,-0.253 0.403,-0.27 0.407,-0.287C0.411,-0.305 0.413,-0.321 0.413,-0.335Z" style="fill:white;fill-rule:nonzero;stroke:rgb(193,56,74);stroke-width:0.06px;stroke-linecap:butt;stroke-miterlimit:2;"/>
                </g>
                <g transform="matrix(35.901,-2.6678,2.6678,35.901,226.182,240.042)">
                    <path d="M0.597,-0.471C0.597,-0.445 0.595,-0.422 0.59,-0.401C0.586,-0.381 0.579,-0.362 0.57,-0.345C0.56,-0.327 0.548,-0.312 0.533,-0.297C0.518,-0.282 0.5,-0.268 0.479,-0.255L0.595,-0.048L0.375,-0.005L0.3,-0.213L0.24,-0.211L0.231,-0.008L0.021,-0.008C0.023,-0.082 0.024,-0.156 0.025,-0.229C0.027,-0.303 0.029,-0.377 0.031,-0.451C0.031,-0.489 0.032,-0.526 0.033,-0.563C0.033,-0.599 0.035,-0.636 0.037,-0.674C0.059,-0.682 0.082,-0.689 0.104,-0.695C0.126,-0.7 0.148,-0.705 0.17,-0.708C0.193,-0.711 0.215,-0.713 0.238,-0.714C0.261,-0.715 0.285,-0.716 0.309,-0.716C0.346,-0.716 0.382,-0.711 0.417,-0.7C0.451,-0.69 0.482,-0.675 0.509,-0.654C0.535,-0.634 0.557,-0.608 0.573,-0.578C0.589,-0.547 0.597,-0.511 0.597,-0.471ZM0.378,-0.455C0.378,-0.469 0.376,-0.481 0.373,-0.493C0.369,-0.504 0.363,-0.514 0.356,-0.522C0.349,-0.53 0.34,-0.537 0.329,-0.542C0.318,-0.546 0.305,-0.549 0.291,-0.549C0.284,-0.549 0.278,-0.548 0.271,-0.547C0.265,-0.547 0.259,-0.546 0.253,-0.544L0.246,-0.362L0.257,-0.362C0.271,-0.362 0.285,-0.364 0.3,-0.368C0.314,-0.371 0.327,-0.377 0.339,-0.384C0.351,-0.392 0.36,-0.401 0.367,-0.413C0.375,-0.425 0.378,-0.439 0.378,-0.455Z" style="fill:white;fill-rule:nonzero;stroke:rgb(193,56,74);stroke-width:0.06px;stroke-linecap:butt;stroke-miterlimit:2;"/>
                </g>
                <g transform="matrix(35.9626,-1.63966,1.63966,35.9626,247.915,238.42)">
                    <path d="M0.641,-0.042L0.398,-0.011L0.369,-0.121L0.258,-0.121L0.233,-0.011L-0.016,-0.035L0.179,-0.686L0.45,-0.699L0.641,-0.042ZM0.352,-0.271L0.314,-0.44L0.278,-0.271L0.352,-0.271Z" style="fill:white;fill-rule:nonzero;stroke:rgb(193,56,74);stroke-width:0.06px;stroke-linecap:butt;stroke-miterlimit:2;"/>
                </g>
                <g transform="matrix(35.9899,-0.853323,0.853323,35.9899,270.444,237.454)">
                    <path d="M0.289,-0.688L0.235,-0.022L0.029,-0.012L0.029,-0.674L0.289,-0.688Z" style="fill:white;fill-rule:nonzero;stroke:rgb(193,56,74);stroke-width:0.06px;stroke-linecap:butt;stroke-miterlimit:2;"/>
                </g>
                <g transform="matrix(36,-0.0439104,0.0439104,36,281.138,237.113)">
                    <path d="M0.689,-0.7L0.654,-0.038L0.398,-0.015L0.261,-0.369L0.24,-0.008L0.02,-0.008L0.038,-0.7L0.282,-0.712L0.451,-0.36L0.458,-0.692L0.689,-0.7Z" style="fill:white;fill-rule:nonzero;stroke:rgb(193,56,74);stroke-width:0.06px;stroke-linecap:butt;stroke-miterlimit:2;"/>
                </g>
                <g transform="matrix(35.9753,1.33389,-1.33389,35.9753,313.545,237.239)">
                    <path d="M0.614,-0.1C0.599,-0.08 0.58,-0.064 0.558,-0.049C0.535,-0.035 0.511,-0.023 0.485,-0.014C0.46,-0.004 0.433,0.003 0.406,0.007C0.379,0.012 0.354,0.015 0.329,0.015C0.282,0.015 0.238,0.006 0.199,-0.011C0.159,-0.028 0.125,-0.051 0.096,-0.081C0.067,-0.111 0.045,-0.146 0.028,-0.186C0.012,-0.226 0.004,-0.27 0.004,-0.316C0.004,-0.352 0.008,-0.387 0.016,-0.42C0.024,-0.455 0.036,-0.487 0.051,-0.517C0.066,-0.547 0.085,-0.575 0.106,-0.6C0.128,-0.625 0.153,-0.647 0.181,-0.665C0.208,-0.683 0.239,-0.697 0.271,-0.708C0.304,-0.718 0.34,-0.723 0.377,-0.723C0.391,-0.723 0.406,-0.722 0.422,-0.721C0.438,-0.72 0.454,-0.718 0.469,-0.715C0.485,-0.712 0.501,-0.708 0.516,-0.704C0.531,-0.699 0.544,-0.693 0.557,-0.686L0.543,-0.499C0.525,-0.506 0.506,-0.51 0.486,-0.513C0.467,-0.515 0.448,-0.517 0.43,-0.517C0.404,-0.517 0.379,-0.513 0.356,-0.504C0.334,-0.497 0.314,-0.485 0.297,-0.47C0.281,-0.455 0.268,-0.437 0.258,-0.416C0.248,-0.394 0.243,-0.37 0.243,-0.343C0.243,-0.326 0.245,-0.309 0.25,-0.293C0.255,-0.278 0.261,-0.264 0.271,-0.251C0.28,-0.239 0.292,-0.23 0.305,-0.222C0.319,-0.215 0.335,-0.211 0.354,-0.211C0.366,-0.211 0.379,-0.213 0.392,-0.216C0.405,-0.219 0.416,-0.225 0.426,-0.232L0.428,-0.271L0.311,-0.272L0.316,-0.419C0.365,-0.421 0.413,-0.422 0.462,-0.423C0.51,-0.424 0.559,-0.426 0.608,-0.428L0.614,-0.1Z" style="fill:white;fill-rule:nonzero;stroke:rgb(193,56,74);stroke-width:0.06px;stroke-linecap:butt;stroke-miterlimit:2;"/>
                </g>
                <g transform="matrix(35.9247,2.32771,-2.32771,35.9247,336.054,238.077)">
                    <path d="M0.641,-0.042L0.398,-0.011L0.369,-0.121L0.258,-0.121L0.233,-0.011L-0.016,-0.035L0.179,-0.686L0.45,-0.699L0.641,-0.042ZM0.352,-0.271L0.314,-0.44L0.278,-0.271L0.352,-0.271Z" style="fill:white;fill-rule:nonzero;stroke:rgb(193,56,74);stroke-width:0.06px;stroke-linecap:butt;stroke-miterlimit:2;"/>
                </g>
                <g transform="matrix(35.8489,3.2954,-3.2954,35.8489,358.549,239.537)">
                    <path d="M0.597,-0.471C0.597,-0.445 0.595,-0.422 0.59,-0.401C0.586,-0.381 0.579,-0.362 0.57,-0.345C0.56,-0.327 0.548,-0.312 0.533,-0.297C0.518,-0.282 0.5,-0.268 0.479,-0.255L0.595,-0.048L0.375,-0.005L0.3,-0.213L0.24,-0.211L0.231,-0.008L0.021,-0.008C0.023,-0.082 0.024,-0.156 0.025,-0.229C0.027,-0.303 0.029,-0.377 0.031,-0.451C0.031,-0.489 0.032,-0.526 0.033,-0.563C0.033,-0.599 0.035,-0.636 0.037,-0.674C0.059,-0.682 0.082,-0.689 0.104,-0.695C0.126,-0.7 0.148,-0.705 0.17,-0.708C0.193,-0.711 0.215,-0.713 0.238,-0.714C0.261,-0.715 0.285,-0.716 0.309,-0.716C0.346,-0.716 0.382,-0.711 0.417,-0.7C0.451,-0.69 0.482,-0.675 0.509,-0.654C0.535,-0.634 0.557,-0.608 0.573,-0.578C0.589,-0.547 0.597,-0.511 0.597,-0.471ZM0.378,-0.455C0.378,-0.469 0.376,-0.481 0.373,-0.493C0.369,-0.504 0.363,-0.514 0.356,-0.522C0.349,-0.53 0.34,-0.537 0.329,-0.542C0.318,-0.546 0.305,-0.549 0.291,-0.549C0.284,-0.549 0.278,-0.548 0.271,-0.547C0.265,-0.547 0.259,-0.546 0.253,-0.544L0.246,-0.362L0.257,-0.362C0.271,-0.362 0.285,-0.364 0.3,-0.368C0.314,-0.371 0.327,-0.377 0.339,-0.384C0.351,-0.392 0.36,-0.401 0.367,-0.413C0.375,-0.425 0.378,-0.439 0.378,-0.455Z" style="fill:white;fill-rule:nonzero;stroke:rgb(193,56,74);stroke-width:0.06px;stroke-linecap:butt;stroke-miterlimit:2;"/>
                </g>
                <g transform="matrix(35.7532,4.20837,-4.20837,35.7532,380.278,241.534)">
                    <path d="M0.578,-0.388C0.578,-0.342 0.572,-0.301 0.561,-0.264C0.549,-0.228 0.532,-0.195 0.511,-0.167C0.49,-0.138 0.465,-0.114 0.437,-0.093C0.408,-0.073 0.376,-0.056 0.341,-0.042C0.307,-0.029 0.27,-0.02 0.231,-0.013C0.192,-0.007 0.152,-0.004 0.111,-0.004C0.096,-0.004 0.081,-0.004 0.066,-0.005C0.052,-0.006 0.037,-0.007 0.021,-0.009L0.035,-0.664C0.071,-0.675 0.108,-0.683 0.146,-0.688C0.184,-0.693 0.221,-0.695 0.259,-0.695C0.305,-0.695 0.348,-0.688 0.387,-0.674C0.426,-0.66 0.46,-0.64 0.488,-0.614C0.517,-0.587 0.539,-0.555 0.554,-0.517C0.57,-0.479 0.578,-0.436 0.578,-0.388ZM0.378,-0.356C0.378,-0.374 0.376,-0.391 0.372,-0.407C0.368,-0.424 0.361,-0.438 0.352,-0.45C0.343,-0.463 0.331,-0.473 0.317,-0.48C0.303,-0.488 0.285,-0.493 0.266,-0.493L0.246,-0.19C0.266,-0.193 0.283,-0.2 0.299,-0.209C0.315,-0.22 0.329,-0.232 0.34,-0.246C0.352,-0.261 0.361,-0.277 0.367,-0.294C0.374,-0.312 0.377,-0.331 0.378,-0.35L0.378,-0.356Z" style="fill:white;fill-rule:nonzero;stroke:rgb(193,56,74);stroke-width:0.06px;stroke-linecap:butt;stroke-miterlimit:2;"/>
                </g>
                <g transform="matrix(35.6485,5.01851,-5.01851,35.6485,401.105,243.997)">
                    <path d="M0.487,-0.704C0.485,-0.674 0.484,-0.643 0.482,-0.613C0.48,-0.583 0.478,-0.553 0.476,-0.522L0.269,-0.512L0.264,-0.45L0.409,-0.45L0.398,-0.299L0.252,-0.294L0.247,-0.223L0.454,-0.223C0.452,-0.187 0.45,-0.151 0.448,-0.116C0.446,-0.081 0.444,-0.045 0.442,-0.01L0.021,-0L0.037,-0.704L0.487,-0.704Z" style="fill:white;fill-rule:nonzero;stroke:rgb(193,56,74);stroke-width:0.06px;stroke-linecap:butt;stroke-miterlimit:2;"/>
                </g>
                <g transform="matrix(35.5166,5.87996,-5.87996,35.5166,418.184,246.345)">
                    <path d="M0.689,-0.7L0.654,-0.038L0.398,-0.015L0.261,-0.369L0.24,-0.008L0.02,-0.008L0.038,-0.7L0.282,-0.712L0.451,-0.36L0.458,-0.692L0.689,-0.7Z" style="fill:white;fill-rule:nonzero;stroke:rgb(193,56,74);stroke-width:0.06px;stroke-linecap:butt;stroke-miterlimit:2;"/>
                </g>
                <g transform="matrix(35.3544,6.78705,-6.78705,35.3544,443.167,250.519)">
                    <path d="M0.525,-0.26C0.525,-0.215 0.517,-0.176 0.501,-0.143C0.486,-0.109 0.465,-0.082 0.438,-0.06C0.411,-0.037 0.38,-0.021 0.344,-0.01C0.308,0.001 0.269,0.007 0.228,0.007C0.212,0.007 0.194,0.005 0.175,0C0.156,-0.004 0.137,-0.009 0.118,-0.015C0.098,-0.022 0.079,-0.028 0.061,-0.036C0.043,-0.043 0.027,-0.05 0.013,-0.057L0.035,-0.258C0.062,-0.241 0.093,-0.229 0.126,-0.22C0.16,-0.211 0.194,-0.207 0.226,-0.207C0.232,-0.207 0.24,-0.207 0.249,-0.208C0.257,-0.208 0.266,-0.21 0.273,-0.212C0.282,-0.215 0.288,-0.218 0.294,-0.223C0.299,-0.228 0.302,-0.235 0.302,-0.244C0.302,-0.25 0.3,-0.256 0.296,-0.26C0.292,-0.264 0.287,-0.268 0.281,-0.271C0.275,-0.273 0.268,-0.276 0.26,-0.277C0.252,-0.278 0.245,-0.28 0.237,-0.28C0.23,-0.281 0.223,-0.281 0.216,-0.281L0.201,-0.281C0.173,-0.281 0.147,-0.286 0.124,-0.296C0.101,-0.306 0.082,-0.319 0.065,-0.336C0.049,-0.354 0.036,-0.375 0.027,-0.398C0.018,-0.423 0.013,-0.449 0.013,-0.477C0.013,-0.515 0.021,-0.549 0.036,-0.58C0.052,-0.61 0.072,-0.636 0.098,-0.657C0.124,-0.679 0.154,-0.695 0.188,-0.707C0.221,-0.718 0.256,-0.724 0.292,-0.724C0.307,-0.724 0.324,-0.723 0.341,-0.722C0.358,-0.721 0.375,-0.719 0.391,-0.716C0.408,-0.713 0.424,-0.709 0.44,-0.705C0.456,-0.7 0.472,-0.694 0.486,-0.688L0.467,-0.489C0.445,-0.497 0.422,-0.503 0.397,-0.508C0.373,-0.513 0.35,-0.516 0.327,-0.516C0.322,-0.516 0.317,-0.515 0.31,-0.515C0.304,-0.515 0.297,-0.515 0.289,-0.514C0.282,-0.513 0.275,-0.512 0.267,-0.51C0.26,-0.509 0.253,-0.506 0.247,-0.503C0.241,-0.501 0.236,-0.497 0.233,-0.493C0.229,-0.488 0.228,-0.483 0.228,-0.477C0.228,-0.469 0.231,-0.464 0.236,-0.459C0.241,-0.455 0.248,-0.451 0.255,-0.449C0.264,-0.446 0.272,-0.445 0.282,-0.444C0.292,-0.443 0.301,-0.442 0.311,-0.442L0.337,-0.442C0.345,-0.442 0.352,-0.442 0.357,-0.441C0.383,-0.44 0.406,-0.434 0.427,-0.425C0.448,-0.415 0.466,-0.403 0.48,-0.387C0.495,-0.372 0.506,-0.353 0.513,-0.331C0.521,-0.31 0.525,-0.286 0.525,-0.26Z" style="fill:white;fill-rule:nonzero;stroke:rgb(193,56,74);stroke-width:0.06px;stroke-linecap:butt;stroke-miterlimit:2;"/>
                </g>
            </g>
        </g>
    </g>
    <defs>
        <radialGradient id="_Radial1" cx="0" cy="0" r="1" gradientUnits="userSpaceOnUse" gradientTransform="matrix(91.1905,0,0,103.558,38.9605,130.235)"><stop offset="0" style="stop-color:rgb(252,77,96);stop-opacity:1"/><stop offset="0.43" style="stop-color:rgb(242,73,92);stop-opacity:1"/><stop offset="0.58" style="stop-color:rgb(218,65,83);stop-opacity:1"/><stop offset="0.71" style="stop-color:rgb(193,56,74);stop-opacity:1"/><stop offset="0.86" style="stop-color:rgb(208,63,80);stop-opacity:1"/><stop offset="1" style="stop-color:rgb(252,83,99);stop-opacity:1"/></radialGradient>
        <radialGradient id="_Radial2" cx="0" cy="0" r="1" gradientUnits="userSpaceOnUse" gradientTransform="matrix(91.1905,0,0,103.558,38.9605,130.235)"><stop offset="0" style="stop-color:rgb(252,77,96);stop-opacity:1"/><stop offset="0.43" style="stop-color:rgb(242,73,92);stop-opacity:1"/><stop offset="0.58" style="stop-color:rgb(218,65,83);stop-opacity:1"/><stop offset="0.71" style="stop-color:rgb(193,56,74);stop-opacity:1"/><stop offset="0.86" style="stop-color:rgb(208,63,80);stop-opacity:1"/><stop offset="1" style="stop-color:rgb(252,83,99);stop-opacity:1"/></radialGradient>
    </defs>
</svg>
