<?xml version="1.0" standalone="no"?>
<!DOCTYPE svg PUBLIC "-//W3C//DTD SVG 20010904//EN"
 "http://www.w3.org/TR/2001/REC-SVG-20010904/DTD/svg10.dtd">
<svg version="1.0" xmlns="http://www.w3.org/2000/svg"
 width="700.000000pt" height="700.000000pt" viewBox="0 0 700.000000 700.000000"
 preserveAspectRatio="xMidYMid meet">
<metadata>
Created by potrace 1.14, written by Peter Selinger 2001-2017
</metadata>
<g transform="translate(0.000000,700.000000) scale(0.100000,-0.100000)"
fill="#000000" stroke="none">
<path d="M737 6990 c-337 -57 -599 -290 -704 -627 l-28 -88 0 -2775 0 -2775
28 -88 c95 -304 300 -509 604 -604 l88 -28 2775 0 2775 0 88 28 c304 95 509
300 604 604 l28 88 0 2775 0 2775 -28 88 c-95 304 -300 509 -604 604 l-88 28
-2745 1 c-1510 1 -2767 -2 -2793 -6z m3723 -1684 c0 -436 4 -775 10 -835 30
-285 133 -398 381 -418 197 -15 343 53 413 192 58 118 59 127 63 998 l4 797
317 -2 317 -3 0 -795 c0 -864 -1 -886 -56 -1055 -127 -394 -455 -584 -1009
-585 -181 0 -299 13 -429 46 -299 78 -500 260 -590 534 -55 169 -54 153 -58
1024 -2 445 -2 815 1 822 4 11 64 14 321 14 l315 0 0 -734z m-1975 691 c249
-42 405 -106 508 -210 111 -111 166 -271 154 -452 -18 -263 -161 -440 -438
-535 l-78 -27 42 -13 c129 -38 262 -147 365 -298 54 -80 452 -763 452 -776 0
-3 -168 -6 -373 -6 l-372 0 -159 278 c-211 367 -246 420 -321 490 -98 92 -140
105 -357 110 l-178 4 0 -441 0 -441 -355 0 -355 0 0 1171 0 1170 683 -4 c578
-3 697 -6 782 -20z m55 -2772 c190 -22 356 -51 528 -90 l22 -5 0 -250 c0 -138
-4 -250 -8 -250 -5 0 -46 14 -93 31 -127 47 -369 105 -507 123 -232 30 -475
15 -593 -35 -174 -75 -189 -290 -24 -365 72 -33 178 -59 407 -99 352 -62 500
-102 654 -176 248 -121 357 -319 341 -619 -24 -426 -292 -655 -835 -711 -145
-15 -511 -6 -670 16 -160 22 -336 59 -492 103 l-135 38 -3 262 -2 262 57 -26
c105 -48 322 -124 436 -153 166 -43 313 -63 477 -64 245 -1 392 47 455 148 25
41 30 59 30 114 0 78 -21 120 -81 166 -58 45 -167 77 -434 130 -284 56 -409
88 -517 131 -253 102 -381 237 -429 452 -24 110 -16 281 20 385 96 284 361
453 779 497 113 12 453 4 617 -15z m1850 -490 l0 -445 475 0 475 0 0 445 0
445 320 0 320 0 0 -1170 0 -1170 -320 0 -320 0 0 495 0 495 -475 0 -475 0 0
-495 0 -495 -320 0 -320 0 0 1170 0 1170 320 0 320 0 0 -445z"/>
<path d="M1730 5280 l0 -302 228 4 c255 6 323 19 395 79 65 54 82 98 82 219 0
90 -3 112 -24 153 -14 28 -41 61 -64 78 -75 54 -119 62 -379 67 l-238 4 0
-302z"/>
</g>
</svg>
