<?xml version="1.0" encoding="UTF-8"?>
<svg id="Layer_2" data-name="Layer 2" xmlns="http://www.w3.org/2000/svg" viewBox="0 0 1629.39 500">
  <defs>
    <style>
      .cls-1 {
        opacity: .8;
      }

      .cls-1, .cls-2, .cls-3, .cls-4, .cls-5 {
        fill: #006b35;
        stroke-width: 0px;
      }

      .cls-2 {
        opacity: .2;
      }

      .cls-3 {
        opacity: .4;
      }

      .cls-5 {
        opacity: .6;
      }
    </style>
  </defs>
  <g id="Layer_1-2" data-name="Layer 1">
    <g id="Primary-Logo-oak-leaf">
      <g>
        <path class="cls-4" d="M735.77,108.62c-12.73,0-24-.59-33.81-1.75-9.81-1.17-16.88-2.34-21.2-3.5v-4.73l-3.5-21.02c1.98,1.87,5.46,3.85,10.42,5.96,4.96,2.1,11.41,3.88,19.36,5.34,7.94,1.46,17.22,2.19,27.86,2.19,7.59,0,13.37-.53,17.34-1.58,3.97-1.05,6.68-2.51,8.14-4.38,1.46-1.87,2.19-4.09,2.19-6.66,0-3.04-1.11-5.46-3.33-7.27-2.22-1.81-5.96-3.3-11.21-4.47-5.26-1.17-12.33-2.28-21.2-3.33-10.98-1.52-20-3.5-27.07-5.96-7.07-2.45-12.29-5.87-15.68-10.25-3.39-4.38-5.08-10.13-5.08-17.26,0-5.96,1.6-11.15,4.82-15.59,3.21-4.44,8.29-7.94,15.24-10.51,6.95-2.57,16.03-3.85,27.24-3.85,12.15,0,22.6.59,31.36,1.75,8.76,1.17,14.83,2.34,18.22,3.5v4.73l5.26,18.04c-2.81-1.52-6.86-3.09-12.18-4.73-5.31-1.63-11.59-3.01-18.83-4.12-7.24-1.11-15.13-1.66-23.65-1.66-5.84,0-10.45.47-13.84,1.4-3.39.94-5.78,2.28-7.18,4.03-1.4,1.75-2.1,3.85-2.1,6.31,0,3.15,1.19,5.69,3.59,7.62,2.4,1.93,6.13,3.45,11.21,4.56,5.08,1.11,11.71,2.13,19.88,3.07,12.73,1.4,22.63,3.48,29.7,6.22,7.07,2.75,12.03,6.31,14.89,10.69,2.86,4.38,4.29,9.78,4.29,16.21,0,5.02-1.02,9.49-3.07,13.4-2.04,3.91-5.17,7.18-9.37,9.81-4.21,2.63-9.52,4.59-15.94,5.87-6.43,1.28-14.02,1.93-22.77,1.93Z"/>
        <path class="cls-4" d="M827.55,106.87c.81,0,1.37-.76,1.66-2.28.29-1.52-.26-4.26-1.66-8.23-.47-1.52-1.49-4.21-3.07-8.06-1.58-3.85-3.45-8.29-5.6-13.32-2.16-5.02-4.35-10.13-6.57-15.33-2.22-5.2-4.24-9.92-6.05-14.19-1.81-4.26-3.24-7.5-4.29-9.72-1.64-3.85-3.3-6.63-4.99-8.32-1.7-1.69-3.01-2.54-3.94-2.54h33.46c-.82,0-1.38.82-1.67,2.45-.29,1.64.26,4.44,1.67,8.41.7,2.1,1.75,5.17,3.15,9.2,1.4,4.03,3.01,8.64,4.82,13.84,1.81,5.2,3.68,10.48,5.61,15.85,1.93,5.37,3.71,10.34,5.34,14.89h.18c1.4-4.67,2.95-9.72,4.64-15.15,1.69-5.43,3.33-10.77,4.91-16.03,1.58-5.26,2.98-9.9,4.21-13.93,1.22-4.03,2.13-7.04,2.71-9.02,1.29-3.85,1.78-6.57,1.49-8.15-.29-1.58-.79-2.36-1.49-2.36h35.22c-.82,0-1.34.82-1.58,2.45-.24,1.64.29,4.44,1.58,8.41.7,2.1,1.72,5.17,3.07,9.2,1.34,4.03,2.8,8.64,4.38,13.84,1.57,5.2,3.18,10.48,4.82,15.85,1.63,5.37,3.15,10.34,4.55,14.89h.17c1.75-4.67,3.65-9.72,5.69-15.15,2.04-5.43,4.06-10.77,6.04-16.03,1.98-5.26,3.74-9.9,5.26-13.93,1.52-4.03,2.57-7.04,3.15-9.02,1.17-3.74,1.64-6.42,1.4-8.06-.24-1.63-.7-2.45-1.4-2.45h32.41c-.82,0-1.99.76-3.5,2.28-1.52,1.52-3.1,4.21-4.73,8.06-.94,2.1-2.37,5.2-4.29,9.29-1.93,4.09-4.03,8.64-6.31,13.66-2.28,5.02-4.55,10.05-6.83,15.07-2.28,5.02-4.26,9.58-5.96,13.66-1.69,4.09-2.89,7.24-3.59,9.46-1.05,3.74-1.46,6.42-1.23,8.06.23,1.64.64,2.45,1.23,2.45h-35.39c.82,0,1.34-.82,1.58-2.45.23-1.63-.29-4.32-1.58-8.06-.35-1.05-1.08-3.44-2.19-7.18-1.11-3.74-2.45-8.26-4.03-13.58-1.58-5.31-3.24-10.83-4.99-16.56-1.75-5.72-3.39-11.15-4.91-16.29h-.53c-1.64,4.91-3.33,10.13-5.08,15.68-1.75,5.55-3.42,10.92-5,16.12-1.57,5.2-2.98,9.75-4.2,13.66-1.23,3.91-2.02,6.63-2.37,8.15-1.05,3.85-1.46,6.57-1.22,8.15.23,1.58.64,2.36,1.22,2.36h-35.39Z"/>
        <path class="cls-4" d="M1006.26,108.62c-11.21,0-19.77-2.16-25.66-6.48-5.9-4.32-8.85-10.86-8.85-19.62,0-6.07,1.55-11.09,4.64-15.07,3.09-3.97,7.45-6.95,13.05-8.93,5.61-1.98,12.26-2.98,19.97-2.98,5.6,0,10.42.47,14.45,1.4,4.03.94,7.3,1.96,9.81,3.07,2.51,1.11,4.17,1.96,4.99,2.54,0-5.61-.61-10.13-1.84-13.58-1.23-3.44-3.39-5.98-6.48-7.62-3.09-1.63-7.33-2.45-12.7-2.45-7.12,0-13.4.73-18.83,2.19-5.43,1.46-9.84,3.13-13.22,4.99-3.39,1.87-5.67,3.33-6.83,4.38v-4.55l-1.75-15.94c.93-.47,3.15-1.22,6.66-2.28,3.5-1.05,8.23-2.07,14.19-3.07,5.96-.99,13.02-1.49,21.2-1.49,10.98,0,19.53,1.58,25.67,4.73,6.13,3.15,10.45,7.74,12.96,13.75,2.51,6.02,3.76,13.34,3.76,21.99v32.76c0,3.27.38,5.64,1.14,7.09.76,1.46,1.55,2.6,2.36,3.42h-26.1v-4.21l.35-3.33-.35-.35c-1.29,1.29-2.92,2.51-4.91,3.68-1.99,1.17-4.35,2.19-7.1,3.07-2.74.88-5.84,1.58-9.28,2.1-3.45.53-7.21.79-11.3.79ZM1013.62,92.68c5.37,0,9.93-.47,13.66-1.4,3.74-.93,6.6-2.22,8.59-3.85,1.98-1.64,2.98-3.5,2.98-5.61,0-3.04-2.1-5.55-6.31-7.53-4.2-1.98-10.22-2.98-18.04-2.98s-12.73,1.02-15.77,3.07c-3.04,2.04-4.55,4.76-4.55,8.15,0,3.85,1.63,6.51,4.9,7.97,3.27,1.46,8.12,2.19,14.54,2.19Z"/>
        <path class="cls-4" d="M1077.61,106.87c.81,0,1.6-.82,2.36-2.45.76-1.63,1.14-4.32,1.14-8.06v-59.21c0-3.74-.38-6.4-1.14-7.97-.76-1.58-1.55-2.42-2.36-2.54,5.14,0,10.13-.38,14.98-1.14,4.85-.76,8.5-1.55,10.95-2.36v10.69l-.35,2.28.35.35c.81-1.28,2.3-2.95,4.47-4.99,2.16-2.04,5.11-3.94,8.85-5.69,3.74-1.75,8.23-2.63,13.49-2.63,10.86,0,19.19,3.09,24.96,9.28,5.78,6.19,8.67,15.89,8.67,29.08v34.86c0,3.74.38,6.42,1.14,8.06.76,1.64,1.55,2.45,2.37,2.45h-29.61c.81,0,1.6-.82,2.36-2.45.76-1.63,1.14-4.32,1.14-8.06v-34.34c0-5.96-.67-10.6-2.02-13.93-1.34-3.33-3.21-5.69-5.6-7.09-2.4-1.4-5.17-2.1-8.32-2.1-3.62,0-7.13.85-10.51,2.54-3.39,1.69-6.13,4.32-8.24,7.88-2.1,3.56-3.15,8.32-3.15,14.28v32.76c0,3.74.38,6.42,1.14,8.06.76,1.64,1.55,2.45,2.37,2.45h-29.43Z"/>
        <path class="cls-4" d="M1228.98,106.87c.81,0,1.63-.82,2.45-2.45.82-1.63,1.23-4.32,1.23-8.06V12.26c0-3.74-.41-6.4-1.23-7.97-.82-1.58-1.64-2.42-2.45-2.54h31.88c-.82,0-1.64.82-2.45,2.45-.82,1.64-1.22,4.38-1.22,8.23v71.3c0,2.57.32,4.12.96,4.64.64.53,2.72.79,6.22.79h42.92c6.77,0,12.23-.79,16.38-2.37,4.14-1.58,6.86-3.12,8.15-4.64l-4.55,19.8v4.91h-98.28Z"/>
        <path class="cls-4" d="M1377.19,108.62c-11.21,0-19.77-2.16-25.66-6.48-5.9-4.32-8.85-10.86-8.85-19.62,0-6.07,1.55-11.09,4.64-15.07,3.09-3.97,7.45-6.95,13.05-8.93,5.61-1.98,12.26-2.98,19.97-2.98,5.6,0,10.42.47,14.45,1.4,4.03.94,7.3,1.96,9.81,3.07,2.51,1.11,4.17,1.96,4.99,2.54,0-5.61-.61-10.13-1.84-13.58-1.23-3.44-3.39-5.98-6.48-7.62-3.09-1.63-7.33-2.45-12.7-2.45-7.12,0-13.4.73-18.83,2.19-5.43,1.46-9.84,3.13-13.22,4.99-3.39,1.87-5.67,3.33-6.83,4.38v-4.55l-1.75-15.94c.93-.47,3.15-1.22,6.66-2.28,3.5-1.05,8.23-2.07,14.19-3.07,5.96-.99,13.02-1.49,21.2-1.49,10.98,0,19.53,1.58,25.67,4.73,6.13,3.15,10.45,7.74,12.96,13.75,2.51,6.02,3.76,13.34,3.76,21.99v32.76c0,3.27.38,5.64,1.14,7.09.76,1.46,1.55,2.6,2.36,3.42h-26.1v-4.21l.35-3.33-.35-.35c-1.29,1.29-2.92,2.51-4.91,3.68-1.99,1.17-4.35,2.19-7.1,3.07-2.74.88-5.84,1.58-9.28,2.1-3.45.53-7.21.79-11.3.79ZM1384.55,92.68c5.37,0,9.93-.47,13.66-1.4,3.74-.93,6.6-2.22,8.59-3.85,1.98-1.64,2.98-3.5,2.98-5.61,0-3.04-2.1-5.55-6.31-7.53-4.2-1.98-10.22-2.98-18.04-2.98s-12.73,1.02-15.77,3.07c-3.04,2.04-4.55,4.76-4.55,8.15,0,3.85,1.63,6.51,4.9,7.97,3.27,1.46,8.12,2.19,14.54,2.19Z"/>
        <path class="cls-4" d="M1448.54,106.87c.81,0,1.6-.82,2.36-2.45.76-1.63,1.14-4.32,1.14-8.06V12.26c0-3.74-.38-6.4-1.14-7.97-.76-1.58-1.55-2.42-2.36-2.54h25.93v51.16c0,2.57.23,4.12.7,4.64.47.53,1.87.79,4.21.79,3.04,0,6.02-.88,8.93-2.63,2.92-1.75,5.58-4.32,7.97-7.71,2.39-3.39,4.12-7.53,5.17-12.44.82-3.85,1.17-6.6,1.05-8.23-.12-1.63-.47-2.45-1.05-2.45h33.11c-.7,0-1.84.79-3.41,2.36-1.58,1.58-3.42,4.35-5.52,8.32-2.45,4.79-4.88,9.05-7.27,12.79-2.4,3.74-4.99,6.92-7.79,9.55-2.8,2.63-6.02,4.82-9.64,6.57,5.49,2.22,10.13,4.99,13.93,8.32,3.79,3.33,7.15,7.04,10.07,11.13,2.92,4.09,5.66,8.23,8.24,12.44,2.33,3.74,4.41,6.42,6.22,8.06,1.81,1.64,3.12,2.45,3.94,2.45h-32.93c.7-.11.96-1.11.79-2.98-.17-1.87-1.38-4.96-3.59-9.28-2.22-4.32-4.79-8.09-7.71-11.3-2.92-3.21-6.13-5.69-9.64-7.45-3.5-1.75-7.13-2.63-10.86-2.63-2.45,0-3.88.21-4.29.61-.41.41-.61,1.96-.61,4.64v17.87c0,3.74.38,6.42,1.14,8.06.76,1.64,1.55,2.45,2.37,2.45h-29.43Z"/>
        <path class="cls-4" d="M1590.15,108.62c-9.23,0-16.88-.99-22.95-2.98-6.07-1.98-10.86-4.85-14.37-8.58-3.5-3.74-5.98-8.23-7.45-13.49-1.46-5.26-2.19-11.09-2.19-17.52,0-13.2,3.71-23.65,11.13-31.36,7.41-7.71,18.66-11.56,33.72-11.56,8.76,0,15.88,1.2,21.37,3.59,5.49,2.4,9.66,5.61,12.53,9.64,2.86,4.03,4.82,8.44,5.87,13.23,1.05,4.79,1.58,9.58,1.58,14.37v8.23c0-.35-1.61-.73-4.82-1.14-3.21-.41-8.62-.61-16.21-.61h-42.4c0,7.24,2.16,12.76,6.48,16.56,4.32,3.8,11.09,5.69,20.32,5.69,7.94,0,14.83-.96,20.67-2.89,5.84-1.93,9.92-3.77,12.26-5.52v4.56l1.75,12.79c-2.34,1.52-6.69,3.07-13.05,4.64-6.37,1.58-14.45,2.36-24.26,2.36ZM1572.63,56.59h34.34c0-2.68-.59-5.4-1.75-8.15-1.17-2.74-3.12-5.02-5.87-6.83-2.74-1.81-6.51-2.72-11.3-2.72s-8.35.7-11.39,2.1c-3.04,1.4-5.29,3.18-6.75,5.34-1.46,2.16-2.19,4.41-2.19,6.74,0,1.17.35,2.04,1.05,2.63.7.59,1.98.88,3.85.88Z"/>
        <path class="cls-4" d="M679.53,282.06c.81,0,1.63-.82,2.45-2.45.82-1.63,1.23-4.32,1.23-8.06v-84.09c0-3.74-.41-6.4-1.23-7.97-.82-1.58-1.64-2.42-2.45-2.54h32.06c-.59.12-.59,1.02,0,2.72.59,1.7,2.45,4.41,5.61,8.15.93.94,2.54,2.78,4.82,5.52,2.28,2.75,5.11,6.04,8.5,9.9,3.38,3.85,6.98,8.06,10.77,12.61,3.79,4.55,7.68,9.11,11.65,13.66,3.97,4.55,7.77,8.93,11.39,13.14h.18v-55.19c0-3.74-.41-6.4-1.23-7.97-.82-1.58-1.64-2.42-2.45-2.54h31.89c-.82,0-1.64.82-2.45,2.45-.82,1.64-1.22,4.38-1.22,8.23v83.92c0,3.74.41,6.42,1.22,8.06.81,1.64,1.64,2.45,2.45,2.45h-27.68c.47-.11.35-1.02-.35-2.72-.7-1.69-2.51-4.41-5.43-8.15-1.75-2.1-4.06-4.93-6.92-8.5-2.86-3.56-6.1-7.59-9.72-12.09-3.62-4.49-7.45-9.17-11.48-14.02-4.03-4.85-8-9.64-11.91-14.37-3.91-4.73-7.56-9.14-10.95-13.23h-.52v62.54c0,3.74.41,6.42,1.22,8.06.82,1.64,1.64,2.45,2.45,2.45h-31.88Z"/>
        <path class="cls-4" d="M842.32,283.81c-11.21,0-19.77-2.16-25.66-6.48-5.9-4.32-8.85-10.86-8.85-19.62,0-6.07,1.55-11.09,4.64-15.07,3.09-3.97,7.45-6.95,13.05-8.93,5.61-1.98,12.26-2.98,19.97-2.98,5.6,0,10.42.47,14.45,1.4,4.03.94,7.3,1.96,9.81,3.07,2.51,1.11,4.17,1.96,4.99,2.54,0-5.61-.61-10.13-1.84-13.58-1.23-3.44-3.39-5.98-6.48-7.62-3.09-1.63-7.33-2.45-12.7-2.45-7.12,0-13.4.73-18.83,2.19-5.43,1.46-9.84,3.13-13.22,4.99-3.39,1.87-5.67,3.33-6.83,4.38v-4.55l-1.75-15.94c.93-.47,3.15-1.22,6.66-2.28,3.5-1.05,8.23-2.07,14.19-3.07,5.96-.99,13.02-1.49,21.2-1.49,10.98,0,19.53,1.58,25.67,4.73,6.13,3.15,10.45,7.74,12.96,13.75,2.51,6.02,3.76,13.34,3.76,21.99v32.76c0,3.27.38,5.64,1.14,7.09.76,1.46,1.55,2.6,2.36,3.42h-26.1v-4.21l.35-3.33-.35-.35c-1.29,1.29-2.92,2.51-4.91,3.68-1.99,1.17-4.35,2.19-7.1,3.07-2.74.88-5.84,1.58-9.28,2.1-3.45.53-7.21.79-11.3.79ZM849.68,267.87c5.37,0,9.93-.47,13.66-1.4,3.74-.93,6.6-2.22,8.59-3.85,1.98-1.64,2.98-3.5,2.98-5.61,0-3.04-2.1-5.55-6.31-7.53-4.2-1.98-10.22-2.98-18.04-2.98s-12.73,1.02-15.77,3.07c-3.04,2.04-4.55,4.76-4.55,8.15,0,3.85,1.63,6.51,4.9,7.97,3.27,1.46,8.12,2.19,14.54,2.19Z"/>
        <path class="cls-4" d="M946.97,283.81c-8.06,0-13.9-1.72-17.52-5.17-3.62-3.44-5.43-9.08-5.43-16.9v-45.9h-15.77v-15.77c5.37,0,9.57-.67,12.61-2.02,3.04-1.34,5.2-3.71,6.48-7.09,1.28-3.39,1.93-8.12,1.93-14.19h17.34v23.3h31.01c-.82,1.99-1.6,4.5-2.36,7.53-.76,3.04-1.14,5.78-1.14,8.23h-27.5v38.54c0,5.37.58,8.96,1.75,10.77,1.17,1.81,3.27,2.72,6.31,2.72,2.33,0,4.73-.67,7.18-2.02,2.45-1.34,4.76-2.98,6.92-4.91,2.16-1.93,3.88-3.82,5.17-5.69v5.43l1.75,14.72c-1.29,1.17-3.27,2.42-5.96,3.77-2.69,1.34-5.96,2.45-9.81,3.33-3.85.88-8.18,1.31-12.96,1.31Z"/>
        <path class="cls-4" d="M1023.9,283.81c-6.77,0-12.61-1.2-17.52-3.59-4.91-2.39-8.62-6.54-11.12-12.44-2.51-5.9-3.77-14.1-3.77-24.61v-32.59c0-3.74-.38-6.42-1.14-8.06-.76-1.63-1.55-2.45-2.36-2.45h29.78c-.82,0-1.66.82-2.54,2.45-.88,1.64-1.31,4.32-1.31,8.06v35.04c0,8.18,1.49,13.93,4.47,17.26,2.98,3.33,6.63,4.99,10.95,4.99,5.37,0,9.69-1.25,12.96-3.77,3.27-2.51,5.69-5.9,7.27-10.16,1.58-4.26,2.36-8.85,2.36-13.75v-29.61c0-3.74-.38-6.4-1.14-7.97-.76-1.58-1.55-2.42-2.36-2.54h26.1v71.48c0,3.74.38,6.42,1.14,8.06.76,1.64,1.55,2.45,2.36,2.45h-26.1v-8.06l.35-3.5-.35-.35c-1.05,1.64-2.43,3.27-4.12,4.91-1.69,1.64-3.71,3.1-6.05,4.38-2.34,1.29-5.02,2.34-8.06,3.15-3.04.82-6.31,1.23-9.81,1.23Z"/>
        <path class="cls-4" d="M1091.78,282.06c.81,0,1.6-.82,2.36-2.45.76-1.63,1.14-4.32,1.14-8.06v-59.21c0-3.74-.38-6.4-1.14-7.97-.76-1.58-1.55-2.42-2.36-2.54,5.14,0,10.13-.38,14.98-1.14,4.85-.76,8.5-1.55,10.95-2.36v7.53l-.35,2.98.35.35c1.16-1.64,2.77-3.27,4.82-4.91,2.04-1.63,4.55-3.04,7.53-4.2,2.98-1.17,6.45-1.75,10.43-1.75,5.72,0,10.71.79,14.98,2.36,4.26,1.58,7.33,3.18,9.2,4.82l-4.73,20.5v5.26c-1.64-2.22-3.91-4.53-6.83-6.92-2.92-2.39-6.19-4.41-9.81-6.04-3.62-1.63-7.3-2.45-11.04-2.45-4.44,0-7.97,1.64-10.6,4.91-2.63,3.27-3.94,8.53-3.94,15.77v35.04c0,3.74.38,6.42,1.14,8.06.76,1.64,1.55,2.45,2.37,2.45h-29.43Z"/>
        <path class="cls-4" d="M1218.94,283.81c-9.23,0-16.88-.99-22.95-2.98-6.07-1.98-10.86-4.85-14.37-8.58-3.5-3.74-5.98-8.23-7.45-13.49-1.46-5.26-2.19-11.09-2.19-17.52,0-13.2,3.71-23.65,11.13-31.36,7.41-7.71,18.66-11.56,33.72-11.56,8.76,0,15.88,1.2,21.37,3.59,5.49,2.4,9.66,5.61,12.53,9.64,2.86,4.03,4.82,8.44,5.87,13.23,1.05,4.79,1.58,9.58,1.58,14.37v8.23c0-.35-1.61-.73-4.82-1.14-3.21-.41-8.62-.61-16.21-.61h-42.4c0,7.24,2.16,12.76,6.48,16.56,4.32,3.8,11.09,5.69,20.32,5.69,7.94,0,14.83-.96,20.67-2.89,5.84-1.93,9.92-3.77,12.26-5.52v4.56l1.75,12.79c-2.34,1.52-6.69,3.07-13.05,4.64-6.37,1.58-14.45,2.36-24.26,2.36ZM1201.42,231.78h34.34c0-2.68-.59-5.4-1.75-8.15-1.17-2.74-3.12-5.02-5.87-6.83-2.74-1.81-6.51-2.72-11.3-2.72s-8.35.7-11.39,2.1c-3.04,1.4-5.29,3.18-6.75,5.34-1.46,2.16-2.19,4.41-2.19,6.74,0,1.17.35,2.04,1.05,2.63.7.59,1.98.88,3.85.88Z"/>
        <path class="cls-4" d="M735.77,459c-12.73,0-24-.59-33.81-1.75-9.81-1.17-16.88-2.34-21.2-3.5v-4.73l-3.5-21.02c1.98,1.87,5.46,3.86,10.42,5.96,4.96,2.1,11.41,3.88,19.36,5.34,7.94,1.46,17.22,2.19,27.86,2.19,7.59,0,13.37-.53,17.34-1.58,3.97-1.05,6.68-2.51,8.14-4.38,1.46-1.87,2.19-4.09,2.19-6.66,0-3.04-1.11-5.46-3.33-7.27-2.22-1.81-5.96-3.3-11.21-4.47-5.26-1.17-12.33-2.28-21.2-3.33-10.98-1.52-20-3.5-27.07-5.96-7.07-2.45-12.29-5.87-15.68-10.25-3.39-4.38-5.08-10.13-5.08-17.26,0-5.96,1.6-11.15,4.82-15.59,3.21-4.44,8.29-7.94,15.24-10.51,6.95-2.57,16.03-3.85,27.24-3.85,12.15,0,22.6.59,31.36,1.75,8.76,1.17,14.83,2.34,18.22,3.5v4.73l5.26,18.04c-2.81-1.52-6.86-3.09-12.18-4.73-5.31-1.63-11.59-3.01-18.83-4.12-7.24-1.11-15.13-1.66-23.65-1.66-5.84,0-10.45.47-13.84,1.4-3.39.94-5.78,2.28-7.18,4.03-1.4,1.75-2.1,3.85-2.1,6.31,0,3.15,1.19,5.69,3.59,7.62,2.4,1.93,6.13,3.45,11.21,4.56,5.08,1.11,11.71,2.13,19.88,3.07,12.73,1.4,22.63,3.48,29.7,6.22,7.07,2.75,12.03,6.31,14.89,10.69,2.86,4.38,4.29,9.79,4.29,16.21,0,5.02-1.02,9.49-3.07,13.4-2.04,3.91-5.17,7.18-9.37,9.81-4.21,2.63-9.52,4.59-15.94,5.87-6.43,1.28-14.02,1.93-22.77,1.93Z"/>
        <path class="cls-4" d="M834.68,459c-11.21,0-19.77-2.16-25.66-6.48-5.9-4.32-8.85-10.86-8.85-19.62,0-6.07,1.55-11.09,4.64-15.07,3.09-3.97,7.45-6.95,13.05-8.93,5.61-1.98,12.26-2.98,19.97-2.98,5.6,0,10.42.47,14.45,1.4,4.03.93,7.3,1.96,9.81,3.07,2.51,1.11,4.17,1.96,4.99,2.54,0-5.6-.61-10.13-1.84-13.58-1.23-3.44-3.39-5.98-6.48-7.62-3.09-1.63-7.33-2.45-12.7-2.45-7.12,0-13.4.73-18.83,2.19-5.43,1.46-9.84,3.13-13.22,4.99-3.39,1.87-5.67,3.33-6.83,4.38v-4.55l-1.75-15.94c.93-.47,3.15-1.22,6.66-2.28,3.5-1.05,8.23-2.07,14.19-3.07,5.96-.99,13.02-1.49,21.2-1.49,10.98,0,19.53,1.58,25.67,4.73,6.13,3.15,10.45,7.74,12.96,13.75,2.51,6.02,3.76,13.35,3.76,21.99v32.76c0,3.27.38,5.64,1.14,7.09.76,1.46,1.55,2.6,2.36,3.42h-26.1v-4.21l.35-3.33-.35-.35c-1.29,1.29-2.92,2.51-4.91,3.68-1.99,1.17-4.35,2.19-7.1,3.07-2.74.88-5.84,1.58-9.28,2.1-3.45.53-7.21.79-11.3.79ZM842.04,443.06c5.37,0,9.93-.47,13.66-1.4,3.74-.93,6.6-2.22,8.59-3.85,1.98-1.64,2.98-3.5,2.98-5.61,0-3.04-2.1-5.55-6.31-7.53-4.2-1.98-10.22-2.98-18.04-2.98s-12.73,1.02-15.77,3.07c-3.04,2.05-4.55,4.76-4.55,8.15,0,3.85,1.63,6.51,4.9,7.97,3.27,1.46,8.12,2.19,14.54,2.19Z"/>
        <path class="cls-4" d="M906.03,457.25c.81,0,1.6-.82,2.36-2.45.76-1.64,1.14-4.32,1.14-8.06v-59.22c0-3.74-.38-6.4-1.14-7.97-.76-1.58-1.55-2.42-2.36-2.54,5.14,0,10.13-.38,14.98-1.14,4.85-.76,8.5-1.55,10.95-2.36v10.69l-.35,2.28.35.35c.81-1.28,2.3-2.95,4.47-4.99,2.16-2.04,5.11-3.94,8.85-5.69,3.74-1.75,8.23-2.63,13.49-2.63,10.86,0,19.19,3.09,24.96,9.28,5.78,6.19,8.67,15.89,8.67,29.08v34.86c0,3.74.38,6.42,1.14,8.06.76,1.64,1.55,2.45,2.37,2.45h-29.61c.81,0,1.6-.82,2.36-2.45.76-1.64,1.14-4.32,1.14-8.06v-34.34c0-5.96-.67-10.6-2.02-13.93-1.34-3.33-3.21-5.69-5.6-7.09-2.4-1.4-5.17-2.1-8.32-2.1-3.62,0-7.13.85-10.51,2.54-3.39,1.69-6.13,4.32-8.24,7.88-2.1,3.56-3.15,8.32-3.15,14.28v32.76c0,3.74.38,6.42,1.14,8.06.76,1.64,1.55,2.45,2.37,2.45h-29.43Z"/>
        <path class="cls-4" d="M1054.16,459c-12.15,0-21.7-1.87-28.65-5.61-6.95-3.74-11.83-8.81-14.63-15.24-2.8-6.42-4.21-13.67-4.21-21.72,0-14.25,3.88-24.94,11.65-32.06,7.77-7.12,19.12-10.69,34.08-10.69,8.17,0,15.47.59,21.9,1.75,6.42,1.17,11.04,2.28,13.84,3.33v4.73l3.5,17.52c-2.57-2.45-7.18-4.99-13.84-7.62-6.66-2.63-14.72-3.94-24.18-3.94-5.02,0-9.4.88-13.14,2.63-3.74,1.75-6.6,4.62-8.59,8.59-1.99,3.97-2.98,9.29-2.98,15.94s1.08,11.59,3.24,15.51c2.16,3.91,5.43,6.69,9.81,8.32,4.38,1.64,9.84,2.45,16.38,2.45,8.29,0,15.15-1.16,20.59-3.5,5.43-2.33,9.08-4.61,10.95-6.83v4.73l1.75,13.31c-2.22,1.87-6.57,3.74-13.05,5.61-6.48,1.86-14.63,2.8-24.44,2.8Z"/>
        <path class="cls-4" d="M1140.49,459c-8.06,0-13.9-1.72-17.52-5.17-3.62-3.44-5.43-9.08-5.43-16.9v-45.9h-15.77v-15.77c5.37,0,9.57-.67,12.61-2.02,3.04-1.34,5.2-3.71,6.48-7.09,1.28-3.39,1.93-8.12,1.93-14.19h17.34v23.3h31.01c-.82,1.99-1.6,4.5-2.36,7.53-.76,3.04-1.14,5.78-1.14,8.23h-27.5v38.54c0,5.38.58,8.96,1.75,10.77,1.17,1.81,3.27,2.72,6.31,2.72,2.33,0,4.73-.67,7.18-2.02,2.45-1.34,4.76-2.98,6.92-4.91,2.16-1.93,3.88-3.82,5.17-5.69v5.43l1.75,14.72c-1.29,1.17-3.27,2.43-5.96,3.77-2.69,1.34-5.96,2.45-9.81,3.33-3.85.88-8.18,1.31-12.96,1.31Z"/>
        <path class="cls-4" d="M1217.41,459c-6.77,0-12.61-1.2-17.52-3.59-4.91-2.39-8.62-6.54-11.12-12.44-2.51-5.9-3.77-14.1-3.77-24.62v-32.59c0-3.74-.38-6.42-1.14-8.06-.76-1.63-1.55-2.45-2.36-2.45h29.78c-.82,0-1.66.82-2.54,2.45-.88,1.64-1.31,4.32-1.31,8.06v35.04c0,8.18,1.49,13.93,4.47,17.26,2.98,3.33,6.63,5,10.95,5,5.37,0,9.69-1.26,12.96-3.77,3.27-2.51,5.69-5.9,7.27-10.16,1.58-4.26,2.36-8.85,2.36-13.75v-29.61c0-3.74-.38-6.4-1.14-7.97-.76-1.58-1.55-2.42-2.36-2.54h26.1v71.48c0,3.74.38,6.42,1.14,8.06.76,1.64,1.55,2.45,2.36,2.45h-26.1v-8.06l.35-3.5-.35-.35c-1.05,1.64-2.43,3.27-4.12,4.91-1.69,1.64-3.71,3.1-6.05,4.38-2.34,1.29-5.02,2.34-8.06,3.15-3.04.82-6.31,1.23-9.81,1.23Z"/>
        <path class="cls-4" d="M1318.3,459c-11.21,0-19.77-2.16-25.66-6.48-5.9-4.32-8.85-10.86-8.85-19.62,0-6.07,1.55-11.09,4.64-15.07,3.09-3.97,7.45-6.95,13.05-8.93,5.61-1.98,12.26-2.98,19.97-2.98,5.6,0,10.42.47,14.45,1.4,4.03.93,7.3,1.96,9.81,3.07,2.51,1.11,4.17,1.96,4.99,2.54,0-5.6-.61-10.13-1.84-13.58-1.23-3.44-3.39-5.98-6.48-7.62-3.09-1.63-7.33-2.45-12.7-2.45-7.12,0-13.4.73-18.83,2.19-5.43,1.46-9.84,3.13-13.22,4.99-3.39,1.87-5.67,3.33-6.83,4.38v-4.55l-1.75-15.94c.93-.47,3.15-1.22,6.66-2.28,3.5-1.05,8.23-2.07,14.19-3.07,5.96-.99,13.02-1.49,21.2-1.49,10.98,0,19.53,1.58,25.67,4.73,6.13,3.15,10.45,7.74,12.96,13.75,2.51,6.02,3.76,13.35,3.76,21.99v32.76c0,3.27.38,5.64,1.14,7.09.76,1.46,1.55,2.6,2.36,3.42h-26.1v-4.21l.35-3.33-.35-.35c-1.29,1.29-2.92,2.51-4.91,3.68-1.99,1.17-4.35,2.19-7.1,3.07-2.74.88-5.84,1.58-9.28,2.1-3.45.53-7.21.79-11.3.79ZM1325.66,443.06c5.37,0,9.93-.47,13.66-1.4,3.74-.93,6.6-2.22,8.59-3.85,1.98-1.64,2.98-3.5,2.98-5.61,0-3.04-2.1-5.55-6.31-7.53-4.2-1.98-10.22-2.98-18.04-2.98s-12.73,1.02-15.77,3.07c-3.04,2.05-4.55,4.76-4.55,8.15,0,3.85,1.63,6.51,4.9,7.97,3.27,1.46,8.12,2.19,14.54,2.19Z"/>
        <path class="cls-4" d="M1389.66,457.25c.81,0,1.6-.82,2.36-2.45.76-1.64,1.14-4.32,1.14-8.06v-59.22c0-3.74-.38-6.4-1.14-7.97-.76-1.58-1.55-2.42-2.36-2.54,5.14,0,10.13-.38,14.98-1.14,4.85-.76,8.5-1.55,10.95-2.36v7.53l-.35,2.98.35.35c1.16-1.64,2.77-3.27,4.82-4.91,2.04-1.63,4.55-3.04,7.53-4.2,2.98-1.17,6.45-1.75,10.43-1.75,5.72,0,10.71.79,14.98,2.36,4.26,1.58,7.33,3.18,9.2,4.82l-4.73,20.5v5.26c-1.64-2.22-3.91-4.53-6.83-6.92-2.92-2.39-6.19-4.41-9.81-6.04-3.62-1.63-7.3-2.45-11.04-2.45-4.44,0-7.97,1.64-10.6,4.91-2.63,3.27-3.94,8.53-3.94,15.77v35.04c0,3.74.38,6.42,1.14,8.06.76,1.64,1.55,2.45,2.37,2.45h-29.43Z"/>
        <path class="cls-4" d="M1481.44,500c-7.01,0-12.55-.7-16.64-2.1-4.09-1.4-6.71-2.74-7.88-4.03l3.5-24.18v-5.26c1.17,2.8,2.86,5.75,5.08,8.85,2.22,3.09,4.85,5.69,7.88,7.79,3.04,2.1,6.24,3.15,9.64,3.15,2.92,0,5.49-.59,7.71-1.75,2.22-1.17,4.23-2.95,6.04-5.34,1.81-2.4,3.59-5.29,5.34-8.67,2.33-4.67,3.79-7.88,4.38-9.64-.7-.94-1.81-3.09-3.33-6.48-1.52-3.38-3.36-7.5-5.52-12.35-2.16-4.85-4.41-9.99-6.74-15.42-2.34-5.43-4.62-10.71-6.83-15.86-2.22-5.14-4.18-9.69-5.87-13.66-1.69-3.97-2.95-6.89-3.77-8.76-1.75-3.85-3.47-6.66-5.17-8.41-1.69-1.75-2.95-2.63-3.77-2.63h33.46c-.7,0-1.2.82-1.49,2.45-.29,1.64.2,4.5,1.49,8.59.7,2.22,1.75,5.37,3.15,9.46,1.4,4.09,2.98,8.58,4.73,13.49,1.75,4.91,3.59,9.87,5.52,14.89,1.93,5.02,3.71,9.7,5.34,14.02h.18c1.63-4.55,3.44-9.43,5.43-14.63,1.98-5.2,3.94-10.31,5.87-15.33,1.93-5.02,3.62-9.49,5.08-13.4,1.46-3.91,2.54-6.86,3.24-8.85,1.4-3.85,1.95-6.6,1.66-8.23-.29-1.63-.85-2.45-1.66-2.45h32.41c-.82,0-2.02.79-3.59,2.36-1.57,1.58-3.12,4.29-4.64,8.15-.94,2.1-2.37,5.55-4.29,10.34-1.93,4.79-4.23,10.28-6.92,16.47-2.69,6.19-5.43,12.55-8.24,19.1-2.8,6.54-5.52,12.7-8.14,18.48-2.63,5.78-4.88,10.54-6.75,14.28-3.85,7.71-7.91,14.22-12.17,19.53-4.26,5.31-9.08,9.31-14.45,12-5.37,2.69-11.8,4.03-19.27,4.03Z"/>
      </g>
      <g>
        <polygon class="cls-4" points="527.63 54.51 527.63 33.38 569.77 54.51 527.63 54.51"/>
        <g>
          <path class="cls-3" d="M163.75,155.93c19.11,0,28.81,3.05,38.18,6,8.97,2.82,17.46,5.49,34.87,5.49s25.91-2.67,34.89-5.49c9.38-2.95,19.07-6,38.18-6,16.36,0,25.8,2.24,34.07,4.73l-19.35-19.35c-5.91-5.91-12.95-10.58-20.75-13.58-1.09-.42-2.17-.84-3.24-1.27-8.82-3.5-17.15-6.8-34.22-6.8s-25.39,3.3-34.21,6.8c-9.38,3.72-19.1,7.58-38.26,7.58s-28.87-3.85-38.26-7.58c-8.82-3.5-17.14-6.8-34.21-6.8s-25.39,3.3-34.21,6.8c-9.19,3.65-18.75,7.4-37.14,7.55l33.21,33.21c2.29.12,4.7.2,7.37.2,17.42,0,25.9-2.67,34.87-5.49,9.38-2.95,19.07-6,38.18-6Z"/>
          <path class="cls-1" d="M248.33,250.44c18.99,0,28.64,1.49,37.96,2.94,9.33,1.45,18.15,2.81,36.29,2.81s26.95-1.36,36.29-2.81c9.33-1.45,18.97-2.94,37.96-2.94,20.49,0,30.1,1.73,40.18,3.28h0s-19.65-19.65-19.65-19.65c-7.77-7.77-17.58-13.18-28.28-15.68-.05-.01-.1-.02-.14-.03-9.15-2.14-17.8-4.17-35.58-4.17s-26.42,2.03-35.58,4.17c-9.35,2.19-19.03,4.46-38.08,4.46s-28.72-2.26-38.08-4.46c-9.15-2.14-17.8-4.17-35.58-4.17s-26.42,2.03-35.57,4.17c-8.24,1.93-16.75,3.91-31.67,4.36l33.46,33.46h.03c19.37.11,28.45-1.3,38.08-2.79,9.33-1.45,18.97-2.94,37.95-2.94Z"/>
          <path class="cls-2" d="M121.46,108.67c19.17,0,28.88,3.85,38.26,7.58,8.82,3.5,17.14,6.8,34.2,6.8s25.39-3.3,34.21-6.8c9.38-3.72,19.1-7.58,38.26-7.58,13.8,0,22.67,2.01,30.08,4.51l-29.83-29.83c-6.29-6.29-13.88-11.29-22.42-13.76-5.61-1.62-12.34-2.7-21.33-2.7-35.94,0-35.94,17.31-71.88,17.31s-35.94-17.31-71.88-17.31-35.87,17.31-71.81,17.31c-2.64,0-5.06-.07-7.33-.29l31.96,31.96c4.5,4.5,10.56,7.17,16.92,7.17.04,0,.08,0,.12,0,17.06,0,25.38-3.3,34.2-6.8,9.38-3.72,19.1-7.58,38.26-7.58Z"/>
          <path class="cls-5" d="M206.04,203.18c19.05,0,28.73,2.26,38.08,4.46,9.15,2.14,17.79,4.17,35.57,4.17s26.42-2.03,35.58-4.17c9.35-2.19,19.03-4.46,38.08-4.46s28.26,2.16,37.42,4.3l-19.87-19.87c-6.73-6.73-15.01-11.73-24.1-14.55-.69-.21-1.37-.43-2.05-.64-8.97-2.82-17.46-5.49-34.88-5.49s-25.9,2.67-34.87,5.49c-9.38,2.95-19.07,6-38.19,6s-28.81-3.05-38.18-6c-8.97-2.82-17.46-5.49-34.87-5.49s-25.9,2.67-34.87,5.49c-8.72,2.75-17.83,5.55-34.43,5.93l33.39,33.39c1.47.03,2.94.07,4.56.07,17.78,0,26.42-2.03,35.58-4.17,9.35-2.19,19.03-4.46,38.08-4.46Z"/>
        </g>
        <path class="cls-4" d="M584.93,252.21c-7.04-20.46-18.78-39.61-35.13-55.89l-4.54-4.62-83.91-83.91c-6.67-6.6-10.41-15.7-10.41-25.23v-5.28c0-6.31,2.57-11.96,6.68-16.06,2.05-2.05,4.47-3.74,7.19-4.91,2.79-1.1,5.72-1.76,8.87-1.76h42.83v-7.19c0-4.77-.73-9.32-2.12-13.64-.81-2.86-2.06-5.65-3.45-8.21-.66-1.25-1.39-2.49-2.27-3.67,0-.07-.07-.07-.07-.07-.73-1.17-1.62-2.35-2.57-3.45v-.07c-.96-1.1-1.98-2.2-3.01-3.23-8.22-8.29-19.58-13.35-32.27-13.35-7.85,0-15.48,1.17-22.59,3.45-3.6,1.1-6.97,2.42-10.27,4.03-5.58,2.71-10.71,6.01-15.4,9.83-1.83,1.61-3.67,3.23-5.43,4.99-.81.81-1.68,1.76-2.49,2.57-2.42,2.79-4.62,5.57-6.75,8.58-.66,1.03-1.32,2.13-1.98,3.15-1.25,2.05-2.42,4.18-3.52,6.38-.51,1.1-1.03,2.27-1.54,3.45-.95,2.2-1.76,4.55-2.57,6.97-.29,1.17-.66,2.35-.95,3.59-1.62,6.09-2.42,12.47-2.42,19v16.8c0,20.32,6.6,39.9,18.48,55.96.88,1.25,1.83,2.49,2.79,3.67,1.98,2.42,4.11,4.69,6.31,6.89l56.47,56.55h.08c10.41,10.42,11.59,27.36,1.91,38.36l-2.2,2.2c-5.58,5.57-13.2,8.8-21.05,8.8-.52,0-1.03-.07-1.54-.07-9.83-.51-16.43-1.54-22.96-2.57-9.32-1.47-18.12-2.79-36.31-2.79s-26.92,1.32-36.23,2.79c-9.32,1.47-19,2.93-37.99,2.93s-28.6-1.47-37.99-2.93c-9.32-1.47-18.12-2.79-36.24-2.79s-26.99,1.32-36.3,2.79c-7.7,1.17-15.7,2.42-28.9,2.79l33.52,33.52c17.9,0,27.14-.73,36.09-1.39,9.32-.73,18.92-1.47,37.85-1.47s28.53.73,37.85,1.47c9.09.66,18.48,1.39,37.04,1.39s27.87-.73,36.97-1.39c9.09-.73,18.55-1.39,36.6-1.47h0c-7.01,7.01-16.36,11.15-26.26,11.74-3.39.2-6.44.43-9.46.66-9.32.73-18.92,1.47-37.85,1.47s-28.53-.73-37.85-1.47c-9.09-.66-18.48-1.39-37.04-1.39s-27.87.73-36.97,1.39c-7.12.59-14.52,1.17-26.11,1.39l8.58,8.51c17.02,17.02,40.05,26.55,64.11,26.55h89.99v.07l-113.03,113.02h161.73c36.97,0,72.39-14.67,98.5-40.78l12.39-12.32c41.73-41.81,53.47-102.17,35.13-154.32ZM483.56,28.65c.59-.59,1.25-1.03,2.05-1.32.81-.37,1.69-.59,2.57-.59.81,0,1.62.15,2.35.44.88.29,1.68.81,2.35,1.47.29.29.59.66.81,1.03h.07c.73,1.1,1.17,2.35,1.17,3.74,0,1.83-.81,3.52-2.05,4.69-1.17,1.17-2.86,1.91-4.7,1.91s-3.45-.73-4.62-1.91c-1.17-1.25-1.91-2.86-1.91-4.69s.73-3.52,1.91-4.77Z"/>
      </g>
    </g>
  </g>
</svg>