<svg viewBox="0 0 1210 1210" fill="none" xmlns="http://www.w3.org/2000/svg"><g clip-path="url(#a)"><circle cx="605" cy="605" r="605" fill="#C8DDFF"/><path d="M1021 859.416V933H190v-73.584h103.066V421.975H191.635L605.5 99l413.86 322.975h-100.6v437.433l102.24.008Zm-204.48-375.3c-22.9-39.782-57.531-59.689-103.866-59.689-28.366 0-52.901 10.625-73.616 31.884-18.546 18.539-29.725 39.798-33.538 63.776-3.27-23.978-14.183-45.237-32.712-63.776-21.274-21.259-46.085-31.884-74.433-31.884-46.352 0-80.975 19.899-103.867 59.689-16.368 28.348-23.193 61.316-20.456 98.929 2.719 41.984 14.316 77.821 34.764 107.52 20.439 29.723 47.845 56.561 82.2 80.539L605.5 851.235l114.512-80.131c34.347-23.978 61.753-50.824 82.201-80.539 20.439-29.699 32.019-65.536 34.755-107.52 2.72-37.613-4.088-70.581-20.439-98.929h-.009Z" fill="#36F"/></g><defs><clipPath id="a"><path fill="#fff" d="M0 0h1210v1210H0z"/></clipPath></defs></svg>