<svg viewBox="0 0 1210 1210" fill="none" xmlns="http://www.w3.org/2000/svg"><g clip-path="url(#a)"><circle cx="605" cy="605" r="605" fill="#C8DDFF"/><path d="M855.784 223.181c-119.706 0-218.685 55.459-250.751 82.246-66.416-56.609-142.556-73.586-224.731-73.586-79.245 0-143.52 19.259-196.529 80.413v589.983c0 11.121 7.837 23.5 23.534 37.153 15.695 13.654 29.951 20.48 42.727 20.48 4.648 0 8.728-1.275 12.228-3.809l47.885-50.122c32.81-38.788 78.582-43.082 116.952-43.082 43.66 0 95.355 45.075 155.064 116.236 9.474 11.282 68.281 9.899 76.813-2.138 50.865-71.717 74.212-121.339 113.546-121.339 41.269 0 101.131 3.755 159.618 99.69 4.64 7.6 18.886 4.564 28.783 4.564 44.187 0 66.307-29.337 66.307-87.976V323.625c-7.02-36.397-91.641-100.444-171.446-100.444ZM584.648 804.955c-34.395-31.35-103.151-61.98-154.422-61.98-50.69 0-132.441 22.978-176.733 54.309V329.087c30.304-25.296 96.619-41.392 130.433-41.392 42.511 0 149.597 10.258 201.085 98.414l-.363 418.846Zm375.665-7.671c-44.292-31.331-126.053-54.309-176.744-54.309-51.26 0-120.016 30.63-154.412 61.98l3.654-418.846c51.468-88.156 154.577-98.414 197.088-98.414 33.794 0 100.109 16.096 130.413 41.392v468.197h.001Z" fill="#36F"/></g><defs><clipPath id="a"><path fill="#fff" d="M0 0h1210v1210H0z"/></clipPath></defs></svg>