<svg viewBox="0 0 100 100" xmlns="http://www.w3.org/2000/svg" width="100%" height="100%"><path d="M92.591 24.885c-11.34.788-21.365-9.454-37.884-10.943C23.032 11.46 11.692 36.124 12.228 44.32c.235 3.616 2.248 6.297 5.354 8.23 1.183-4.883 5.579-8.506 10.823-8.506 6.156 0 11.142 4.986 11.142 11.142 0 .56-.042 1.108-.122 1.646 5.264-.075 10.45-.66 14.678-1.52a46.41 46.41 0 0 0 4.444-1.16c.526-5.671 5.29-10.108 11.093-10.108 2.126 0 4.111.594 5.8 1.626 7.705-5.455 14.25-12.69 17.151-20.786ZM17.05 43.518a2.27 2.27 0 0 1-2.273-2.273 2.27 2.27 0 1 1 4.54 0 2.27 2.27 0 0 1-2.267 2.273Zm21.752-12.114c-3.966 1.586-9.953 3.936-12.322 5.112-1.712.846-6.456.512-5.286-3.85 1.112-4.12 11.737-13.637 16.181-12.525 2.534.948 2.694 3.487 2.694 3.487.319 1.272 2.693 6.19-1.267 7.776Zm31.414-1.272c-5.078-.319-16.2-.372-18.715-.319-1.427.034-5.233.793-5.866-1.74-.638-2.54-2.38-8.725 0-9.837 2.374-1.107 10.465-.474 16.33 1.112 5.871 1.586 9.358 3.806 10.785 5.392 1.426 1.586 2.538 5.711-2.534 5.392Z" /><path d="M17.582 52.551c-3.106-1.933-5.12-4.614-5.354-8.23-.229 1.959-.574 1.886-1.992 4.004-.886 1.323-1.78 2.74-2.384 4.389-.606 1.647-.415 7.388-.414 9.393 0 .726.046 1.475.143 2.244.294 2.381 1.077 4.46 2.273 6.151a12.167 12.167 0 0 0 3.234 3.124c1.848 1.227 3.942 1.97 6.116 2.421 2.176.45 4.447.61 6.712.612h5.959l-.026 2.673a.538.538 0 0 0 .543.558l4.766.05c1.558 4.965 5.357 6.012 6.72 6.012 1.731 0 14.49.28 14.49.28v-3.606l9.752.1.042-4.425-9.795-.1v-6.8l9.884.103.042-4.425-9.926-.107v-3.764H44.821c-1.971 0-5.566 1.356-7.323 5.78l-4.998-.052a.545.545 0 0 0-.556.547l-.02 2.097h-6.008c-1.796 0-3.532-.117-5.101-.394-1.177-.207-2.258-.504-3.204-.893-1.423-.586-2.524-1.356-3.343-2.367-.815-1.017-1.406-2.314-1.648-4.206a12.993 12.993 0 0 1-.103-1.613c0-1.409-.34-6.534.103-7.645.92-2.306 3.148-2.585 4.962-1.911Z" /><path d="M37.303 55.187a8.907 8.907 0 0 0-8.898-8.893 8.904 8.904 0 0 0-8.894 8.893 8.907 8.907 0 0 0 8.894 8.893 8.91 8.91 0 0 0 8.898-8.893Zm-8.898 3.143a3.143 3.143 0 1 1 0-6.286 3.144 3.144 0 1 1 0 6.286ZM69.64 46.294a8.907 8.907 0 0 0-8.893 8.893 8.91 8.91 0 0 0 8.893 8.893 8.907 8.907 0 0 0 8.894-8.893 8.903 8.903 0 0 0-8.894-8.893Zm-.019 12.036a3.143 3.143 0 1 1 0-6.286 3.143 3.143 0 0 1 0 6.286Z"/></svg>