<?xml version="1.0" encoding="UTF-8"?>
<svg xmlns="http://www.w3.org/2000/svg" xmlns:xlink="http://www.w3.org/1999/xlink" viewBox="0 0 64 64" width="100%" height="100%">
<defs>
<clipPath id="clip-0">
<path clip-rule="nonzero" d="M 0.984375 0.984375 L 63.015625 0.984375 L 63.015625 63.015625 L 0.984375 63.015625 Z M 0.984375 0.984375 "/>
</clipPath>
<clipPath id="clip-1">
<path clip-rule="nonzero" d="M 32 0.984375 C 14.871094 0.984375 0.984375 14.871094 0.984375 32 C 0.984375 49.128906 14.871094 63.015625 32 63.015625 C 49.128906 63.015625 63.015625 49.128906 63.015625 32 C 63.015625 14.871094 49.128906 0.984375 32 0.984375 Z M 32 0.984375 "/>
</clipPath>
</defs>
<g clip-path="url(#clip-0)">
<g clip-path="url(#clip-1)">
<path fill-rule="nonzero" fill="inherit" fill-opacity="1" d="M 0.984375 0.984375 L 63.015625 0.984375 L 63.015625 63.015625 L 0.984375 63.015625 Z M 0.984375 0.984375 "/>
</g>
</g>
<path fill-rule="nonzero" fill="rgb(100%, 100%, 100%)" fill-opacity="1" d="M 24.605469 19.003906 C 24.429688 16.078125 26.582031 7.804688 30.742188 10.902344 C 31.386719 11.4375 32.015625 11.828125 32.980469 11.277344 C 38.738281 7.636719 40.578125 16.75 40.113281 21.125 C 43.105469 19.566406 53.265625 17.128906 52.15625 22.867188 C 51.855469 24.050781 52.148438 24.746094 53.234375 25.285156 C 55.042969 26.1875 55.121094 27.675781 54.375 29.320312 C 52.296875 33.910156 47.6875 34.902344 43.125 36.007812 C 46.894531 38.171875 53.316406 49.507812 46.007812 49.941406 C 45.128906 50.039062 44.714844 50.34375 44.371094 51.144531 C 42.527344 56.371094 36.472656 52.066406 34.488281 49.101562 C 33.617188 47.828125 32.855469 46.484375 31.917969 44.964844 C 29.933594 48.484375 27.507812 51.546875 23.574219 52.828125 C 21.773438 53.394531 20.035156 53.464844 19.476562 51.011719 C 19.234375 49.9375 18.4375 49.59375 17.417969 49.570312 C 12.386719 49.175781 14.902344 41.246094 17.355469 39.136719 C 19.089844 37.355469 18.363281 36.9375 16.496094 36.316406 C 13.667969 35.511719 6.417969 31.132812 10.585938 28.011719 C 11.199219 27.617188 11.835938 27.347656 11.667969 26.300781 C 9.90625 18.570312 20.507812 20.507812 24.605469 23.136719 C 24.605469 21.480469 24.601562 20.242188 24.605469 19.003906 Z M 36.546875 28.105469 C 36.589844 28 36.644531 27.902344 36.71875 27.816406 C 36.789062 27.726562 36.875 27.652344 36.96875 27.589844 C 37.066406 27.527344 37.167969 27.484375 37.28125 27.457031 C 37.390625 27.425781 37.5 27.417969 37.617188 27.425781 C 37.730469 27.429688 37.839844 27.457031 37.945312 27.5 C 38.050781 27.542969 38.148438 27.597656 38.234375 27.671875 C 38.320312 27.746094 38.394531 27.832031 38.453125 27.929688 C 38.515625 28.023438 38.558594 28.128906 38.585938 28.238281 C 39.046875 29.859375 35.46875 29.585938 34.425781 31.625 C 35.882812 32.789062 37.117188 30.535156 38.203125 31.582031 C 38.75 32.648438 37.472656 33.136719 36.628906 32.730469 C 36.066406 32.59375 35.484375 32.453125 34.894531 32.996094 C 36.03125 34.699219 37.867188 33.996094 39.367188 34.273438 C 40.597656 34.519531 41.839844 34.617188 43.09375 34.574219 C 44.347656 34.53125 45.578125 34.34375 46.789062 34.015625 C 50.53125 33.488281 51.332031 27.910156 47.085938 27.492188 C 45.734375 27.308594 46.007812 26.53125 46.527344 25.710938 C 47.269531 24.535156 47.421875 23.382812 46.34375 22.308594 C 41.691406 18.265625 35.910156 26.492188 33.648438 30.632812 C 35.359375 29.894531 36.023438 29.085938 36.546875 28.105469 Z M 25.996094 34.378906 C 25.257812 35.09375 23.894531 34.222656 24.308594 33.253906 C 25.179688 31.492188 27.71875 33.910156 29.347656 32.304688 C 28.539062 30.949219 26.402344 32.191406 26.019531 30.597656 C 26.054688 29.46875 27.316406 29.730469 27.84375 30.335938 C 28.019531 30.464844 28.253906 30.515625 28.890625 30.785156 C 26.863281 27.832031 26.027344 24.507812 22.613281 23.214844 C 20.703125 22.347656 18 21.929688 16.847656 24.152344 C 16.175781 25.328125 16.277344 26.402344 17.15625 27.378906 C 18.019531 28.335938 18.550781 29.117188 16.734375 29.574219 C 15.492188 29.886719 14.671875 30.644531 14.707031 32.0625 C 15.308594 38.023438 25.257812 36.132812 29.574219 33.777344 C 28.042969 33.3125 26.988281 33.632812 25.996094 34.378906 Z M 36.136719 36.96875 C 38.601562 38.253906 35.347656 40.476562 34.796875 37.859375 C 34.632812 37.214844 34.503906 36.5625 33.589844 35.992188 C 30.09375 49.210938 40.1875 53.085938 40.753906 46.082031 C 40.738281 44.636719 41.601562 44.820312 42.613281 44.960938 C 50.410156 45.253906 44.535156 35.191406 38.855469 36.324219 C 37.363281 36.527344 36.515625 34.585938 34.929688 35.316406 C 34.789062 36.285156 35.492188 36.609375 36.136719 36.96875 Z M 30.953125 28 C 30.128906 26.03125 32.761719 25.671875 32.332031 27.8125 C 32.296875 28.433594 31.953125 29.097656 32.984375 30.113281 C 32.882812 26.25 36.144531 25.214844 37.898438 22.96875 C 40.902344 19.734375 37.320312 12.613281 33.316406 17.011719 C 32.441406 18.175781 31.898438 18.542969 30.988281 17.148438 C 30.261719 16.042969 29.15625 15.742188 27.910156 16.09375 C 24.355469 17.109375 25.375 24.472656 28.273438 26.042969 C 29.644531 26.984375 28.953125 29.210938 30.867188 29.867188 C 31.335938 29.117188 31.105469 28.554688 30.953125 28 Z M 30.246094 38.300781 C 30.300781 41.21875 26.582031 39.453125 28.832031 37.613281 C 29.371094 37.078125 29.816406 36.496094 29.878906 35.707031 C 28.796875 35.035156 27.746094 38.386719 23.390625 37.023438 C 20.460938 36.125 15.972656 40.660156 18.035156 43.523438 C 18.921875 44.734375 20.09375 45.339844 21.503906 44.734375 C 23.050781 44.066406 23.421875 44.519531 23.253906 46.046875 C 22.632812 48.738281 26.316406 49.996094 28.117188 48.316406 C 32.066406 44.867188 32.074219 40.019531 31.523438 35.160156 C 30.4375 36.164062 30.28125 37.210938 30.246094 38.300781 Z M 30.246094 38.300781 "/>
</svg>