<svg width="45" height="27" xmlns="http://www.w3.org/2000/svg" fill="inherit"><circle cx="5.513" cy="5.519" r="1.489" transform="translate(-4.024 -3.394)"/><circle cx="5.513" cy="5.519" r="1.489" transform="translate(3.476 -3.394)"/><circle cx="5.513" cy="5.519" r="1.489" transform="translate(10.976 -3.394)"/><circle cx="5.513" cy="5.519" r="1.489" transform="translate(18.476 -3.394)"/><circle cx="5.513" cy="5.519" r="1.489" transform="translate(25.976 -3.394)"/><circle cx="5.513" cy="5.519" r="1.489" transform="translate(33.476 -3.394)"/><circle cx="5.513" cy="5.519" r="1.489" transform="translate(-4.024 11.605)"/><circle cx="5.513" cy="5.519" r="1.489" transform="translate(3.476 11.605)"/><circle cx="5.513" cy="5.519" r="1.489" transform="translate(10.976 11.605)"/><circle cx="5.513" cy="5.519" r="1.489" transform="translate(18.476 11.605)"/><circle cx="5.513" cy="5.519" r="1.489" transform="translate(25.976 11.605)"/><circle cx="5.513" cy="5.519" r="1.489" transform="translate(33.476 11.605)"/><circle cx="5.513" cy="5.519" r="1.489" transform="translate(-.244 4.106)"/><circle cx="5.513" cy="5.519" r="1.489" transform="translate(7.256 4.106)"/><circle cx="5.513" cy="5.519" r="1.489" transform="translate(14.756 4.106)"/><circle cx="5.513" cy="5.519" r="1.489" transform="translate(22.256 4.106)"/><circle cx="5.513" cy="5.519" r="1.489" transform="translate(29.756 4.106)"/><circle cx="5.513" cy="5.519" r="1.489" transform="translate(37.256 4.106)"/><circle cx="5.513" cy="5.519" r="1.489" transform="translate(-.244 19.105)"/><circle cx="5.513" cy="5.519" r="1.489" transform="translate(7.256 19.105)"/><circle cx="5.513" cy="5.519" r="1.489" transform="translate(14.756 19.105)"/><circle cx="5.513" cy="5.519" r="1.489" transform="translate(22.256 19.105)"/><circle cx="5.513" cy="5.519" r="1.489" transform="translate(29.756 19.105)"/><circle cx="5.513" cy="5.519" r="1.489" transform="translate(37.256 19.105)"/></svg>