<svg xmlns="http://www.w3.org/2000/svg" xml:space="preserve" viewBox="0 0 1210 1210" width="100%" height="100%">
  <path d="M1078.58 153.94v658.94c-14.89 22.02-96.14 75.89-243.75 161.6 6.54 10.12 8.32 17.86 5.35 23.22-3.57 7.14-15.18 10.71-34.82 10.71-6.56 0-14.89-1.2-25-3.57-58.93 32.73-101.5 49.1-127.68 49.1-30.35 0-43.75-11.01-40.18-33.03 4.16-24.41 17.26-48.81 39.29-73.21-5.96-3.57-10.42-5.96-13.4-7.15a7174.23 7174.23 0 0 1-56.24 36.61c3.57 8.33 5.94 16.07 7.14 23.22 0 13.68-7.45 20.22-22.32 19.64a1551.62 1551.62 0 0 1-37.5-11.6c-64.29 37.5-110.13 56.24-137.5 56.24-14.29 0-23.22-5.35-26.79-16.07l-6.25-6.25 2.68-8.03c5.94-26.79 24.4-54.77 55.36-83.93l-11.61-7.15c-55.96 26.79-95.84 40.18-119.64 40.18-36.92 0-55.36-13.1-55.36-39.28 0-19.06 19.04-44.06 57.14-75l-13.4-8.93c-34.52 14.88-58.92 22.32-73.2 22.32-11.32 0-21.88-3.43-31.7-10.27s-13.84-18.89-12.06-36.16c1.19-11.9 10.72-28.27 28.58-49.1-2.4-1.2-6.25-2.69-11.61-4.47-5.36-1.79-13.4-3.57-24.1-5.36V166.44h182.14c5.94-.58 52.07 14.6 138.39 45.54l211.6 76.79zm-837.5 684.83c-3-1.79-4.78-2.97-5.37-3.57-6.55-2.97-15.77-11.3-27.67-25-13.1 14.88-19.65 26.5-19.65 34.82v1.78c4.16 2.4 8.33 3.58 12.5 3.58 7.15 0 20.54-3.87 40.18-11.61zm132.13 84.82a7214.15 7214.15 0 0 1-57.14-36.6c-35.71 27.97-53.57 47-53.57 57.14 0 5.36 7.73 8.03 23.21 8.03 16.66 0 45.83-9.53 87.5-28.57zm235-2.06c-41.66-24.42-87.8-54.18-138.38-89.3l-87.5-58.95c-5.38 0-16.45 6.36-33.22 19.06 33.33 19.64 80.94 50 142.86 91.07 31.58 20.83 56.02 42.86 73.32 66.07a4661.05 4661.05 0 0 0 42.93-27.95zm-211.78 110.1c19.04-1.2 50.9-14 95.54-38.4-12.5-6.55-27.68-15.18-45.54-25.89-26.2 23.22-42.86 44.64-50 64.29zm650.9-833.04c-145.85 48.81-267.28 90.48-364.3 125-170.23 60.71-255.35 112.5-255.35 155.36 0 16.67 13.69 30.66 41.07 41.96 7.73 2.99 22.02 4.46 42.86 4.46 43.44 0 77.37-4.75 101.79-14.28 38.68-14.87 55.35-22.32 50-22.32 18.44 0 75.89 33.63 172.32 100.89 102.37 72.03 153.57 122.32 153.57 150.9 0 7.74-3.43 13.99-10.27 18.75-6.85 4.77-14.15 7.14-21.87 7.14-30.36 0-96.43-27.97-198.22-83.93l-150.9-83.93c-5.95 0-11.75 2.68-17.4 8.04-5.67 5.35-8.2 11.02-7.6 16.96 50 20.24 116.66 55.96 200 107.14 96.44 59.53 152.98 104.18 169.65 133.93 52.97-34.51 84.52-56.83 94.65-66.96zm-232.15 750a5125.21 5125.21 0 0 0 81.25-49.1c-28.57-6.56-70.84-24.11-126.78-52.68-42.86-22.02-103.88-56.25-183.04-102.68-63.7-36.9-97.63-55.36-101.79-55.36-5.95 0-11.91 2.68-17.85 8.04-5.96 5.35-8.35 11.02-7.15 16.96a42921.5 42921.5 0 0 1 225 134.82c55.36 33.33 98.8 66.66 130.36 100zm-75.9 42.86c-17.26-7.15-36.6-16.38-58.03-27.68-19.05 19.64-30.66 38.98-34.82 58.04 11.3 1.78 26.19-.6 44.64-7.15 9.52-3.57 25.59-11.31 48.22-23.21z"/>
</svg>