<svg viewBox="0 0 349 349" fill="none" xmlns="http://www.w3.org/2000/svg" width="100%" height="100%"><path d="M115.56 58.635a129.598 129.598 0 0 1 143.85 17.916l-85.203 97.656L115.56 58.635Z" fill="#6A3924" stroke="#fff" stroke-linejoin="round"/><path d="M259.508 76.637a129.616 129.616 0 0 1 32.208 42.909 129.618 129.618 0 0 1 12.069 52.278l-129.578 2.383 85.301-97.57Z" fill="#888" stroke="#fff" stroke-linejoin="round"/><path d="M303.787 171.953a129.607 129.607 0 0 1-63.039 113.467l-66.541-111.213 129.58-2.254Z" fill="#171" stroke="#fff" stroke-linejoin="round"/><path d="M240.637 285.486a129.594 129.594 0 0 1-98.722 14.233l32.292-125.512 66.43 111.279Z" fill="#69C" stroke="#fff" stroke-linejoin="round"/><path d="M141.79 299.687a129.592 129.592 0 0 1-85.602-71.928l118.019-53.552-32.417 125.48Z" fill="#DC7" stroke="#fff" stroke-linejoin="round"/><path d="M56.135 227.641a129.6 129.6 0 0 1-11.528-53.567l129.6.133-118.072 53.434Z" fill="#825" stroke="#fff" stroke-linejoin="round"/><path d="M44.607 173.945a129.607 129.607 0 0 1 6.62-40.632l122.98 40.894-129.6-.262Z" fill="#CD2165" stroke="#fff" stroke-linejoin="round"/><path d="M51.268 133.19a129.599 129.599 0 0 1 64.155-74.485l58.784 115.502L51.268 133.19Z" fill="#000" stroke="#fff" stroke-linejoin="round"/><path d="M98.18 109.607c0 .872-.166 1.614-.497 2.226a3.434 3.434 0 0 1-1.344 1.402c-.565.321-1.2.481-1.906.481-.71 0-1.349-.162-1.914-.484a3.45 3.45 0 0 1-1.34-1.403c-.328-.612-.492-1.353-.492-2.222 0-.873.164-1.615.492-2.227a3.418 3.418 0 0 1 1.34-1.398c.565-.323 1.203-.485 1.914-.485a3.77 3.77 0 0 1 1.906.485c.568.32 1.016.786 1.344 1.398.33.612.496 1.354.496 2.227Zm-1.716 0c0-.566-.084-1.042-.254-1.43-.166-.388-.402-.682-.706-.883a1.907 1.907 0 0 0-1.07-.301c-.41 0-.766.101-1.071.301-.305.201-.542.495-.711.883-.167.388-.25.864-.25 1.43 0 .565.083 1.041.25 1.429.17.388.406.683.71.883.306.201.662.301 1.071.301.409 0 .766-.1 1.07-.301.305-.2.54-.495.707-.883.17-.388.254-.864.254-1.429Zm6.128-2v1.25h-3.613v-1.25h3.613Zm-2.793-1.438h1.664v5.594c0 .153.024.273.071.359a.391.391 0 0 0 .195.176.804.804 0 0 0 .297.051c.078 0 .156-.007.234-.02l.18-.035.262 1.238a4.881 4.881 0 0 1-.352.09 2.781 2.781 0 0 1-.551.067c-.401.015-.752-.038-1.054-.161a1.47 1.47 0 0 1-.7-.57c-.166-.258-.248-.583-.246-.976v-5.813Zm5.67 3.969v3.469h-1.664v-8h1.617v3.058h.071c.135-.354.354-.631.656-.832.302-.203.681-.305 1.137-.305.416 0 .78.092 1.09.274.312.18.554.439.726.777.175.336.261.738.258 1.207v3.821h-1.664v-3.524c.002-.37-.091-.657-.281-.863-.188-.206-.451-.309-.789-.309-.227 0-.428.048-.602.145a1.021 1.021 0 0 0-.406.422 1.423 1.423 0 0 0-.149.66Zm7.935 3.586c-.617 0-1.149-.125-1.594-.375a2.566 2.566 0 0 1-1.023-1.071c-.24-.463-.36-1.011-.36-1.644 0-.617.12-1.159.36-1.625.239-.466.577-.83 1.011-1.09.438-.26.951-.391 1.539-.391.396 0 .765.064 1.106.192.344.125.643.314.898.566.258.253.459.571.602.953.143.381.215.826.215 1.336v.457h-5.067v-1.031h3.5c0-.24-.052-.452-.156-.637a1.12 1.12 0 0 0-.433-.433 1.238 1.238 0 0 0-.637-.16 1.28 1.28 0 0 0-.672.175c-.193.115-.344.27-.453.465-.11.193-.166.408-.168.645v.98c0 .297.055.554.164.77.112.216.269.383.473.5.203.117.444.176.722.176.185 0 .354-.027.508-.079.154-.052.285-.13.395-.234.109-.104.192-.232.25-.383l1.539.102c-.078.37-.239.692-.481.969a2.4 2.4 0 0 1-.93.64c-.377.151-.813.227-1.308.227Zm3.84-.117v-6h1.613v1.046h.063c.109-.372.292-.653.55-.843.258-.193.555-.289.891-.289.083 0 .173.005.269.015.097.011.181.025.254.043v1.477a2.945 2.945 0 0 0-.703-.09c-.245 0-.463.053-.656.16-.19.104-.341.25-.453.438-.11.187-.164.403-.164.648v3.395h-1.664Zm-25.03 5v8h-1.69v-6.395h-.047l-1.832 1.148v-1.5l1.98-1.253h1.59Zm1.902 8v-1.219l2.848-2.637c.242-.234.445-.445.61-.633.166-.187.292-.371.378-.551a1.36 1.36 0 0 0 .13-.589 1.11 1.11 0 0 0-.161-.606 1.049 1.049 0 0 0-.438-.394 1.368 1.368 0 0 0-.628-.141c-.245 0-.459.049-.641.148a1.023 1.023 0 0 0-.422.426 1.38 1.38 0 0 0-.148.66h-1.606c0-.523.119-.977.356-1.363a2.37 2.37 0 0 1 .996-.894c.427-.211.919-.317 1.476-.317.573 0 1.072.102 1.496.305.428.2.76.479.997.836s.355.765.355 1.226c0 .302-.06.601-.18.895-.117.294-.327.621-.629.98-.302.357-.728.785-1.277 1.285l-1.168 1.145v.055h3.36v1.383h-5.704Zm7.917.101a.913.913 0 0 1-.664-.273.915.915 0 0 1-.273-.664c0-.256.091-.474.273-.657a.913.913 0 0 1 .664-.273c.25 0 .469.091.657.273a.886.886 0 0 1 .281.657.877.877 0 0 1-.133.472 1.005 1.005 0 0 1-.34.34.898.898 0 0 1-.465.125Zm2.167-1.508v-1.332l3.34-5.261h1.149v1.843h-.68l-2.106 3.332v.063h4.746v1.355H104.2Zm3.84 1.407v-1.813l.031-.59v-5.597h1.586v8h-1.617Zm10.661-1.5v-.422c0-.321.068-.615.203-.883.138-.271.338-.487.598-.649.263-.164.583-.246.961-.246.383 0 .704.081.965.242.263.162.461.378.594.649.135.268.203.564.203.887v.422c0 .32-.068.615-.203.886a1.592 1.592 0 0 1-.598.645c-.263.164-.583.246-.961.246-.383 0-.704-.082-.965-.246a1.603 1.603 0 0 1-.594-.645 1.959 1.959 0 0 1-.203-.886Zm1.137-.422v.422c0 .184.044.359.133.523.091.164.255.246.492.246s.398-.081.484-.242c.089-.162.133-.337.133-.527v-.422c0-.19-.042-.368-.125-.532-.083-.164-.247-.246-.492-.246-.234 0-.397.082-.488.246a1.081 1.081 0 0 0-.137.532Zm-5.242-4.157v-.421c0-.323.069-.619.207-.887.138-.271.337-.487.597-.649.263-.161.581-.242.954-.242.385 0 .708.081.968.242.261.162.459.378.594.649.136.268.203.564.203.887v.421c0 .323-.069.619-.207.887a1.583 1.583 0 0 1-.597.645c-.261.159-.581.238-.961.238-.381 0-.702-.081-.965-.242a1.614 1.614 0 0 1-.594-.645 1.957 1.957 0 0 1-.199-.883Zm1.144-.421v.421c0 .191.045.366.133.528.091.161.251.242.481.242.239 0 .402-.081.488-.242.088-.162.133-.337.133-.528v-.421a1.16 1.16 0 0 0-.125-.532c-.084-.164-.249-.246-.496-.246-.232 0-.392.084-.481.25a1.118 1.118 0 0 0-.133.528Zm-.629 6.5 5.5-8h1.024l-5.5 8h-1.024Zm-64.114 34.394v-1.394h6.57v1.394h-2.449v6.606h-1.672v-6.606h-2.449Zm9.486 6.723c-.618 0-1.149-.125-1.594-.375a2.572 2.572 0 0 1-1.024-1.071c-.24-.463-.36-1.011-.36-1.644 0-.617.12-1.159.36-1.625.24-.466.577-.83 1.012-1.09.438-.26.95-.391 1.54-.391.395 0 .763.064 1.105.192.343.125.643.314.898.566.258.253.458.571.602.953.143.381.214.826.214 1.336v.457H58.17v-1.031h3.5c0-.24-.052-.452-.156-.637a1.115 1.115 0 0 0-.434-.433 1.235 1.235 0 0 0-.637-.16 1.28 1.28 0 0 0-.671.175c-.193.115-.344.27-.454.465a1.312 1.312 0 0 0-.167.645v.98c0 .297.054.554.163.77a1.2 1.2 0 0 0 .473.5c.203.117.444.176.723.176.185 0 .354-.027.508-.079a1.019 1.019 0 0 0 .645-.617l1.538.102c-.078.37-.238.692-.48.969a2.41 2.41 0 0 1-.93.64 3.506 3.506 0 0 1-1.308.227Zm5.123-6.117 1.101 2.097 1.129-2.097h1.707l-1.738 3 1.785 3h-1.7l-1.183-2.075-1.164 2.075h-1.719l1.782-3-1.72-3h1.72Zm8.117 0v1.25h-3.614v-1.25h3.614Zm-2.793-1.438h1.664v5.594a.76.76 0 0 0 .07.359.39.39 0 0 0 .195.176.802.802 0 0 0 .297.051c.078 0 .157-.007.235-.02l.18-.035.261 1.238c-.083.026-.2.056-.351.09a2.787 2.787 0 0 1-.551.067c-.401.015-.753-.038-1.055-.161a1.468 1.468 0 0 1-.7-.57c-.166-.258-.248-.583-.245-.976v-5.813Zm3.877 7.438v-6h1.664v6h-1.664Zm.836-6.774a.905.905 0 0 1-.637-.246.799.799 0 0 1-.262-.598c0-.229.088-.425.262-.59a.9.9 0 0 1 .637-.25c.247 0 .458.084.632.25a.778.778 0 0 1 .266.59.793.793 0 0 1-.266.598.89.89 0 0 1-.632.246Zm3.825-1.226v8h-1.664v-8h1.664Zm4.067 8.117c-.617 0-1.148-.125-1.593-.375a2.572 2.572 0 0 1-1.024-1.071c-.24-.463-.36-1.011-.36-1.644 0-.617.12-1.159.36-1.625.24-.466.577-.83 1.012-1.09.437-.26.95-.391 1.539-.391.396 0 .764.064 1.105.192.344.125.644.314.899.566.258.253.458.571.601.953.144.381.215.826.215 1.336v.457h-5.066v-1.031h3.5c0-.24-.052-.452-.156-.637a1.116 1.116 0 0 0-.434-.433 1.234 1.234 0 0 0-.637-.16 1.248 1.248 0 0 0-1.125.64c-.11.193-.165.408-.168.645v.98c0 .297.055.554.164.77a1.2 1.2 0 0 0 .473.5c.203.117.444.176.723.176.184 0 .354-.027.507-.079a1.019 1.019 0 0 0 .644-.617l1.54.102c-.078.37-.238.692-.48.969a2.41 2.41 0 0 1-.93.64 3.506 3.506 0 0 1-1.309.227Zm8.832-4.407-1.523.094a.786.786 0 0 0-.168-.351.885.885 0 0 0-.34-.254 1.156 1.156 0 0 0-.496-.098 1.22 1.22 0 0 0-.652.164c-.178.107-.266.25-.266.43 0 .143.057.264.172.363.114.099.311.179.59.238l1.086.219c.583.12 1.018.313 1.304.578.287.266.43.615.43 1.047 0 .393-.116.738-.348 1.035-.229.297-.544.529-.945.696-.398.164-.858.246-1.379.246-.794 0-1.427-.166-1.898-.496a1.935 1.935 0 0 1-.825-1.36l1.637-.086c.05.242.17.427.36.555.19.125.433.187.73.187.292 0 .526-.055.703-.167.18-.115.271-.262.274-.442a.459.459 0 0 0-.192-.371c-.125-.099-.317-.174-.578-.227l-1.039-.207c-.586-.117-1.022-.32-1.309-.609-.283-.289-.425-.657-.425-1.105 0-.386.104-.718.312-.997.211-.278.507-.493.887-.644.383-.151.83-.227 1.344-.227.757 0 1.354.161 1.789.481.437.32.692.756.765 1.308Zm2.157 4.391a.913.913 0 0 1-.664-.273.914.914 0 0 1-.273-.664c0-.256.091-.474.273-.657a.913.913 0 0 1 .665-.273c.25 0 .468.091.656.273a.884.884 0 0 1 .281.657.881.881 0 0 1-.133.472 1.005 1.005 0 0 1-.34.34.898.898 0 0 1-.465.125Zm0-4.203a.913.913 0 0 1-.664-.273.906.906 0 0 1-.273-.665c0-.255.091-.472.273-.652a.913.913 0 0 1 .665-.273c.25 0 .468.091.656.273a.87.87 0 0 1 .281.652.888.888 0 0 1-.133.477.97.97 0 0 1-.34.336.898.898 0 0 1-.465.125Zm7.756 4.211c-.552 0-1.044-.102-1.476-.305a2.567 2.567 0 0 1-1.024-.84 2.153 2.153 0 0 1-.394-1.226h1.64c.019.31.149.561.391.754.242.192.53.289.863.289.266 0 .5-.059.703-.176a1.26 1.26 0 0 0 .481-.496c.117-.214.176-.458.176-.734 0-.282-.06-.529-.18-.743a1.275 1.275 0 0 0-.488-.5 1.442 1.442 0 0 0-.715-.183c-.234 0-.462.048-.684.144a1.238 1.238 0 0 0-.511.395l-1.504-.27.379-4.218h4.89v1.382h-3.496l-.207 2.004h.047c.141-.198.353-.362.637-.492.284-.13.601-.195.953-.195.482 0 .911.113 1.289.34.377.226.676.537.894.933.219.393.327.847.325 1.36a2.713 2.713 0 0 1-.375 1.437c-.25.417-.601.745-1.051.984-.448.237-.969.356-1.563.356Zm4.899-.008a.913.913 0 0 1-.664-.273.912.912 0 0 1-.274-.664c0-.256.091-.474.274-.657a.913.913 0 0 1 .664-.273c.25 0 .469.091.656.273a.882.882 0 0 1 .281.657.877.877 0 0 1-.133.472 1.002 1.002 0 0 1-.339.34.9.9 0 0 1-.465.125Zm4.769-8.101v8h-1.691v-6.395h-.047l-1.832 1.148v-1.5l1.98-1.253h1.59Zm8.826 6.5v-.422c0-.321.068-.615.204-.883.138-.271.337-.487.597-.649.263-.164.584-.246.961-.246.383 0 .705.081.965.242.263.162.461.378.594.649.135.268.203.564.203.887v.422c0 .32-.068.615-.203.886a1.592 1.592 0 0 1-.598.645c-.263.164-.583.246-.961.246-.383 0-.704-.082-.965-.246a1.593 1.593 0 0 1-.593-.645 1.946 1.946 0 0 1-.204-.886Zm1.137-.422v.422c0 .184.044.359.133.523.091.164.255.246.492.246s.399-.081.485-.242c.088-.162.132-.337.132-.527v-.422c0-.19-.041-.368-.125-.532-.083-.164-.247-.246-.492-.246-.234 0-.397.082-.488.246a1.081 1.081 0 0 0-.137.532Zm-5.242-4.157v-.421c0-.323.069-.619.207-.887a1.61 1.61 0 0 1 .598-.649c.263-.161.58-.242.953-.242.385 0 .708.081.969.242.26.162.458.378.593.649.136.268.203.564.203.887v.421c0 .323-.069.619-.207.887a1.583 1.583 0 0 1-.597.645c-.261.159-.581.238-.961.238s-.702-.081-.965-.242a1.629 1.629 0 0 1-.594-.645 1.957 1.957 0 0 1-.199-.883Zm1.145-.421v.421c0 .191.044.366.132.528.092.161.252.242.481.242.239 0 .402-.081.488-.242.089-.162.133-.337.133-.528v-.421a1.16 1.16 0 0 0-.125-.532c-.083-.164-.249-.246-.496-.246-.232 0-.392.084-.481.25a1.117 1.117 0 0 0-.132.528Zm-.629 6.5 5.5-8h1.023l-5.5 8h-1.023Zm-62.883 19v-8h1.691v3.3h3.434v-3.3h1.687v8h-1.687v-3.305h-3.434v3.305h-1.691Zm10.887.117c-.607 0-1.132-.129-1.575-.387-.44-.26-.78-.622-1.02-1.086-.239-.466-.359-1.006-.359-1.621 0-.62.12-1.161.36-1.625.24-.466.58-.828 1.02-1.086.442-.26.967-.391 1.574-.391.606 0 1.13.131 1.57.391.443.258.784.62 1.023 1.086.24.464.36 1.005.36 1.625 0 .615-.12 1.155-.36 1.621-.24.464-.58.826-1.023 1.086-.44.258-.964.387-1.57.387Zm.007-1.289c.276 0 .507-.078.692-.235.185-.159.324-.375.418-.648.096-.274.144-.585.144-.934 0-.349-.048-.66-.144-.933a1.453 1.453 0 0 0-.418-.649 1.023 1.023 0 0 0-.692-.238 1.06 1.06 0 0 0-.703.238c-.187.159-.33.375-.425.649a2.858 2.858 0 0 0-.141.933c0 .349.047.66.14.934.097.273.239.489.426.648.19.157.425.235.703.235Zm7.875-1.383v-3.445h1.664v6h-1.597v-1.09h-.063a1.77 1.77 0 0 1-.675.847c-.313.214-.695.321-1.145.321-.401 0-.754-.091-1.059-.274a1.877 1.877 0 0 1-.715-.777c-.169-.336-.255-.738-.257-1.207v-3.82h1.664v3.523c.002.354.097.634.285.84.187.206.439.308.754.308.2 0 .388-.045.562-.136.175-.094.315-.232.422-.414a1.27 1.27 0 0 0 .16-.676Zm7.988-1.735-1.524.094a.786.786 0 0 0-.168-.351.885.885 0 0 0-.34-.254 1.156 1.156 0 0 0-.496-.098 1.22 1.22 0 0 0-.652.164c-.177.107-.266.25-.266.43 0 .143.058.264.172.363.115.099.311.179.59.238l1.086.219c.583.12 1.018.313 1.305.578.286.266.43.615.43 1.047 0 .393-.117.738-.348 1.035a2.26 2.26 0 0 1-.946.696c-.398.164-.858.246-1.379.246-.794 0-1.427-.166-1.898-.496a1.935 1.935 0 0 1-.824-1.36l1.637-.086c.05.242.169.427.359.555.19.125.434.187.73.187.292 0 .526-.055.704-.167.18-.115.27-.262.273-.442a.459.459 0 0 0-.191-.371c-.125-.099-.318-.174-.579-.227l-1.039-.207c-.585-.117-1.022-.32-1.308-.609-.284-.289-.426-.657-.426-1.105 0-.386.104-.718.313-.997.21-.278.506-.493.886-.644.383-.151.831-.227 1.344-.227.758 0 1.354.161 1.789.481.438.32.693.756.766 1.308Zm3.919 4.407c-.618 0-1.149-.125-1.594-.375a2.572 2.572 0 0 1-1.024-1.071c-.24-.463-.359-1.011-.359-1.644 0-.617.12-1.159.36-1.625a2.65 2.65 0 0 1 1.011-1.09c.438-.26.95-.391 1.54-.391.395 0 .763.064 1.105.192.343.125.643.314.898.566.258.253.458.571.602.953.143.381.215.826.215 1.336v.457h-5.067v-1.031h3.5c0-.24-.052-.452-.156-.637a1.116 1.116 0 0 0-.434-.433 1.235 1.235 0 0 0-.636-.16 1.28 1.28 0 0 0-.672.175c-.193.115-.344.27-.453.465-.11.193-.166.408-.168.645v.98c0 .297.054.554.164.77a1.2 1.2 0 0 0 .472.5c.203.117.444.176.723.176.185 0 .354-.027.508-.079a1.019 1.019 0 0 0 .645-.617l1.538.102c-.078.37-.238.692-.48.969a2.41 2.41 0 0 1-.93.64 3.506 3.506 0 0 1-1.308.227Zm5.504-3.586v3.469h-1.665v-8h1.618v3.058h.07a1.7 1.7 0 0 1 .656-.832c.302-.203.681-.305 1.137-.305.417 0 .78.092 1.09.274.312.18.554.439.726.777.175.336.26.738.258 1.207v3.821h-1.664v-3.524c.003-.37-.091-.657-.281-.863-.188-.206-.45-.309-.79-.309-.226 0-.426.048-.6.145a1.022 1.022 0 0 0-.407.422 1.425 1.425 0 0 0-.148.66Zm7.91 3.586c-.606 0-1.13-.129-1.574-.387-.44-.26-.78-.622-1.02-1.086-.239-.466-.359-1.006-.359-1.621 0-.62.12-1.161.36-1.625.24-.466.58-.828 1.02-1.086.442-.26.967-.391 1.574-.391.606 0 1.13.131 1.57.391.443.258.784.62 1.023 1.086.24.464.36 1.005.36 1.625 0 .615-.12 1.155-.36 1.621-.239.464-.58.826-1.023 1.086-.44.258-.964.387-1.57.387Zm.008-1.289c.276 0 .507-.078.692-.235.185-.159.324-.375.418-.648.096-.274.144-.585.144-.934 0-.349-.048-.66-.144-.933a1.453 1.453 0 0 0-.418-.649 1.023 1.023 0 0 0-.692-.238 1.06 1.06 0 0 0-.703.238c-.187.159-.33.375-.425.649a2.858 2.858 0 0 0-.141.933c0 .349.047.66.14.934.097.273.239.489.426.648.19.157.425.235.703.235Zm5.692-6.828v8h-1.664v-8h1.664Zm3.544 8.097c-.456 0-.869-.117-1.238-.351-.368-.237-.659-.585-.875-1.043-.214-.461-.321-1.026-.321-1.696 0-.687.111-1.259.332-1.715.222-.458.516-.8.883-1.027.37-.229.775-.344 1.215-.344.336 0 .616.058.84.172.226.112.409.253.547.422.14.167.247.331.32.492h.051v-3.007h1.66v8h-1.641v-.961h-.07a2.16 2.16 0 0 1-.332.496 1.66 1.66 0 0 1-.551.402c-.224.107-.497.16-.82.16Zm.527-1.324c.268 0 .495-.073.68-.219.187-.148.331-.355.43-.621.101-.266.152-.577.152-.933 0-.357-.05-.667-.149-.93a1.344 1.344 0 0 0-.429-.61 1.096 1.096 0 0 0-.684-.214 1.08 1.08 0 0 0-.691.222c-.188.149-.33.354-.426.617a2.662 2.662 0 0 0-.145.915c0 .348.049.657.145.925.099.266.241.474.426.625.187.149.418.223.691.223Zm-53.861 14.227v-8h1.691v3.3h3.434v-3.3h1.687v8h-1.687v-3.305h-3.434v3.305h-1.691Zm9.203 2.25c-.211 0-.409-.017-.594-.051a2.24 2.24 0 0 1-.453-.121l.375-1.243c.195.06.371.093.527.098a.672.672 0 0 0 .41-.109c.118-.078.213-.211.286-.399l.097-.254-2.152-6.171h1.75l1.242 4.406h.063l1.254-4.406h1.761l-2.332 6.648a2.796 2.796 0 0 1-.457.844c-.19.242-.43.428-.722.558-.292.133-.644.2-1.055.2Zm7.928.125c-.54 0-1.002-.075-1.387-.223-.383-.146-.688-.345-.914-.598a1.833 1.833 0 0 1-.442-.851l1.54-.207a1.024 1.024 0 0 0 .625.586c.169.065.375.097.617.097.362 0 .66-.088.894-.265.237-.175.356-.468.356-.879v-1.098h-.07a1.584 1.584 0 0 1-.329.473 1.663 1.663 0 0 1-.562.363 2.16 2.16 0 0 1-.82.141c-.451 0-.861-.105-1.231-.313-.367-.211-.66-.532-.879-.965-.216-.435-.324-.984-.324-1.648 0-.68.11-1.248.332-1.703.221-.456.516-.797.883-1.024.37-.226.775-.34 1.215-.34.335 0 .617.058.843.172.227.112.41.253.547.422.14.167.249.331.324.492h.063v-1.007h1.652v6.058c0 .511-.125.938-.375 1.281-.25.344-.596.602-1.039.774-.44.174-.946.262-1.52.262Zm.035-3.711c.268 0 .495-.067.68-.2.187-.135.33-.328.43-.578a2.42 2.42 0 0 0 .152-.906c0-.352-.05-.656-.149-.914a1.344 1.344 0 0 0-.43-.606 1.094 1.094 0 0 0-.683-.214c-.274 0-.504.074-.692.222a1.336 1.336 0 0 0-.425.61c-.097.26-.145.561-.145.902 0 .346.048.646.145.898.099.25.24.444.425.582.188.136.418.204.692.204Zm4.222 1.336v-6h1.665v6H75.69Zm.836-6.774a.904.904 0 0 1-.636-.246.799.799 0 0 1-.262-.598c0-.229.087-.425.262-.59a.9.9 0 0 1 .636-.25c.248 0 .459.084.633.25a.779.779 0 0 1 .266.59.794.794 0 0 1-.266.598.89.89 0 0 1-.633.246Zm4.896 6.891c-.617 0-1.148-.125-1.594-.375a2.571 2.571 0 0 1-1.023-1.071c-.24-.463-.36-1.011-.36-1.644 0-.617.12-1.159.36-1.625.24-.466.577-.83 1.011-1.09.438-.26.951-.391 1.54-.391.395 0 .764.064 1.105.192.344.125.643.314.898.566.258.253.459.571.602.953.143.381.215.826.215 1.336v.457h-5.067v-1.031h3.5c0-.24-.052-.452-.156-.637a1.116 1.116 0 0 0-.433-.433 1.234 1.234 0 0 0-.637-.16 1.28 1.28 0 0 0-.672.175c-.193.115-.344.27-.453.465-.11.193-.165.408-.168.645v.98c0 .297.055.554.164.77a1.2 1.2 0 0 0 .473.5c.203.117.444.176.722.176.185 0 .355-.027.508-.079a1.019 1.019 0 0 0 .645-.617l1.539.102c-.078.37-.239.692-.48.969-.24.273-.55.487-.93.64a3.506 3.506 0 0 1-1.309.227Zm5.504-3.586v3.469h-1.664v-6h1.586v1.058h.07c.133-.349.355-.625.668-.828.313-.206.691-.309 1.137-.309.416 0 .78.092 1.09.274.31.182.55.443.722.781.172.336.258.737.258 1.203v3.821h-1.664v-3.524c.003-.367-.091-.654-.281-.859-.19-.209-.452-.313-.785-.313-.224 0-.422.048-.594.145-.17.096-.302.237-.399.422a1.459 1.459 0 0 0-.144.66Zm7.913 3.586c-.617 0-1.148-.125-1.594-.375a2.571 2.571 0 0 1-1.023-1.071c-.24-.463-.36-1.011-.36-1.644 0-.617.12-1.159.36-1.625.24-.466.577-.83 1.012-1.09.437-.26.95-.391 1.538-.391.396 0 .765.064 1.106.192.344.125.643.314.898.566.258.253.459.571.602.953.143.381.215.826.215 1.336v.457h-5.067v-1.031h3.5c0-.24-.052-.452-.156-.637a1.116 1.116 0 0 0-.433-.433 1.234 1.234 0 0 0-.637-.16 1.28 1.28 0 0 0-.672.175c-.193.115-.344.27-.453.465-.11.193-.165.408-.168.645v.98c0 .297.055.554.164.77a1.2 1.2 0 0 0 .473.5c.203.117.444.176.722.176.185 0 .355-.027.508-.079a1.019 1.019 0 0 0 .645-.617l1.539.102c-.078.37-.239.692-.48.969a2.41 2.41 0 0 1-.93.64 3.506 3.506 0 0 1-1.31.227Zm-37.514 12.992a3.637 3.637 0 0 1-1.191-.207 2.728 2.728 0 0 1-1.024-.66c-.302-.305-.541-.709-.718-1.211-.175-.503-.262-1.12-.262-1.852a6.66 6.66 0 0 1 .23-1.801c.154-.531.373-.981.657-1.351.286-.37.629-.651 1.027-.844a3.008 3.008 0 0 1 1.34-.293c.534 0 1.005.104 1.414.313a2.597 2.597 0 0 1 1.437 2.031h-1.667a1.112 1.112 0 0 0-.41-.656 1.241 1.241 0 0 0-.774-.239c-.521 0-.917.227-1.188.68-.268.453-.405 1.069-.41 1.848h.055c.12-.237.281-.439.484-.606.206-.169.44-.298.7-.386.263-.092.54-.137.831-.137a2.38 2.38 0 0 1 2.14 1.25c.215.388.322.832.322 1.332 0 .542-.127 1.023-.38 1.445-.25.422-.6.753-1.05.992-.448.237-.969.355-1.563.352Zm-.008-1.328a1.32 1.32 0 0 0 1.184-.696c.117-.213.176-.453.176-.718 0-.266-.059-.504-.176-.715a1.3 1.3 0 0 0-1.172-.692c-.195 0-.376.037-.543.11a1.353 1.353 0 0 0-.433.305 1.46 1.46 0 0 0-.395.996 1.404 1.404 0 0 0 .66 1.218c.206.128.439.192.7.192Zm4.855 1.32a.913.913 0 0 1-.664-.273.914.914 0 0 1-.274-.664c0-.256.092-.474.274-.657a.913.913 0 0 1 .664-.273c.25 0 .469.091.656.273a.884.884 0 0 1 .281.657.88.88 0 0 1-.132.472c-.086.141-.2.254-.34.34a.898.898 0 0 1-.465.125Zm4.95.008c-.601 0-1.137-.098-1.605-.293-.466-.198-.832-.468-1.098-.809a1.839 1.839 0 0 1-.398-1.16c0-.333.075-.639.226-.918.154-.281.362-.514.625-.699a2.05 2.05 0 0 1 .883-.359v-.055a1.735 1.735 0 0 1-1.04-.621 1.788 1.788 0 0 1-.398-1.153c0-.414.122-.782.364-1.105.242-.325.574-.581.996-.766a3.551 3.551 0 0 1 1.445-.281c.54 0 1.02.094 1.442.281.424.188.757.444 1 .77.242.323.364.69.367 1.101a1.783 1.783 0 0 1-.406 1.153 1.747 1.747 0 0 1-1.032.621v.055c.32.052.61.171.871.359.263.185.472.418.625.699a1.877 1.877 0 0 1-.164 2.078c-.265.341-.633.611-1.101.809-.466.195-1 .293-1.602.293Zm0-1.242c.268 0 .503-.048.703-.145.2-.099.357-.234.469-.406a1.07 1.07 0 0 0 .172-.602c0-.231-.059-.436-.176-.613a1.21 1.21 0 0 0-.476-.422 1.48 1.48 0 0 0-.692-.156c-.258 0-.488.052-.691.156a1.203 1.203 0 0 0-.48.422 1.104 1.104 0 0 0-.173.613c0 .227.056.427.168.602.112.172.27.307.473.406.203.097.438.145.703.145Zm0-3.575c.224 0 .423-.045.598-.136.174-.091.311-.218.41-.379a1.05 1.05 0 0 0 .148-.559 1.004 1.004 0 0 0-.554-.918 1.267 1.267 0 0 0-.602-.136 1.28 1.28 0 0 0-.601.136 1.02 1.02 0 0 0-.41.371 1.024 1.024 0 0 0-.145.547c0 .211.05.397.148.559.1.161.236.288.41.379.175.091.374.136.598.136Zm11.213 3.208v-.422c0-.321.068-.615.203-.883a1.61 1.61 0 0 1 .598-.649c.263-.164.583-.246.96-.246.384 0 .705.081.966.242.263.162.46.378.593.649.136.268.204.564.204.887v.422c0 .32-.068.615-.204.886a1.588 1.588 0 0 1-.597.645c-.263.164-.584.246-.961.246-.383 0-.705-.082-.965-.246a1.595 1.595 0 0 1-.594-.645 1.952 1.952 0 0 1-.203-.886Zm1.137-.422v.422c0 .184.044.359.133.523.09.164.255.246.492.246s.398-.081.484-.242c.089-.162.133-.337.133-.527v-.422c0-.19-.042-.368-.125-.532-.083-.164-.248-.246-.492-.246-.235 0-.397.082-.488.246a1.079 1.079 0 0 0-.137.532Zm-5.242-4.157v-.421c0-.323.069-.619.207-.887.138-.271.337-.487.597-.649.263-.161.581-.242.953-.242.386 0 .709.081.97.242.26.162.458.378.593.649.135.268.203.564.203.887v.421c0 .323-.069.619-.207.887a1.587 1.587 0 0 1-.598.645c-.26.159-.58.238-.96.238s-.702-.081-.966-.242a1.62 1.62 0 0 1-.593-.645 1.96 1.96 0 0 1-.2-.883Zm1.144-.421v.421c0 .191.044.366.133.528.091.161.251.242.48.242.24 0 .403-.081.489-.242a1.08 1.08 0 0 0 .133-.528v-.421a1.16 1.16 0 0 0-.125-.532c-.084-.164-.25-.246-.497-.246-.231 0-.391.084-.48.25a1.112 1.112 0 0 0-.133.528Zm-.629 6.5 5.5-8h1.024l-5.5 8h-1.024Zm91.766 52v-8h3.156c.607 0 1.124.115 1.551.347.427.229.752.548.976.957.227.406.34.875.34 1.406 0 .532-.114 1-.343 1.407a2.38 2.38 0 0 1-.997.949c-.432.226-.955.34-1.57.34h-2.012v-1.356h1.739c.325 0 .593-.056.804-.168a1.11 1.11 0 0 0 .477-.472 1.48 1.48 0 0 0 .16-.7 1.44 1.44 0 0 0-.16-.695 1.074 1.074 0 0 0-.477-.465c-.213-.112-.484-.168-.812-.168h-1.141v6.618h-1.691Zm8.755-8v8h-1.664v-8h1.664Zm3.044 8.113c-.383 0-.724-.067-1.024-.199a1.658 1.658 0 0 1-.711-.598c-.172-.266-.258-.596-.258-.992 0-.334.062-.614.184-.84a1.48 1.48 0 0 1 .5-.547c.211-.138.451-.242.719-.312.271-.071.554-.12.851-.149.349-.036.631-.07.844-.101.214-.034.369-.084.465-.149a.326.326 0 0 0 .144-.289v-.023c0-.248-.078-.439-.234-.575-.154-.135-.372-.203-.656-.203-.3 0-.538.067-.715.199a.926.926 0 0 0-.352.493l-1.539-.125c.079-.365.232-.68.461-.946.23-.268.525-.474.887-.617a3.392 3.392 0 0 1 1.266-.219c.333 0 .652.039.957.118.307.078.579.199.816.363.24.164.429.375.567.633.138.255.207.561.207.918v4.047h-1.579v-.833h-.046a1.72 1.72 0 0 1-.387.497c-.162.14-.356.251-.582.332a2.41 2.41 0 0 1-.785.117Zm.476-1.149c.245 0 .461-.048.649-.144.187-.099.334-.232.441-.399.107-.166.16-.355.16-.566v-.637a.884.884 0 0 1-.215.094 3.665 3.665 0 0 1-.3.074 13.13 13.13 0 0 1-.336.059l-.305.043a2.018 2.018 0 0 0-.512.137.82.82 0 0 0-.34.253.626.626 0 0 0-.121.391c0 .227.082.4.246.52.167.117.378.175.633.175Zm9.186-3.254-1.524.094a.785.785 0 0 0-.168-.351.887.887 0 0 0-.339-.254 1.162 1.162 0 0 0-.497-.098c-.257 0-.475.055-.652.164-.177.107-.266.25-.266.43 0 .143.058.264.172.363.115.099.312.179.59.238l1.086.219c.583.12 1.018.313 1.305.578.286.266.429.615.429 1.047 0 .393-.115.738-.347 1.035-.229.297-.544.529-.945.696-.399.164-.859.246-1.379.246-.795 0-1.427-.166-1.899-.496a1.935 1.935 0 0 1-.824-1.36l1.637-.086a.841.841 0 0 0 .359.555c.19.125.434.187.731.187.291 0 .526-.055.703-.167.179-.115.27-.262.273-.442a.46.46 0 0 0-.191-.371c-.125-.099-.318-.174-.578-.227l-1.04-.207c-.585-.117-1.022-.32-1.308-.609-.284-.289-.426-.657-.426-1.105 0-.386.104-.718.313-.997.211-.278.506-.493.886-.644.383-.151.831-.227 1.344-.227.758 0 1.354.161 1.789.481.438.32.693.756.766 1.308Zm4.376-1.71v1.25h-3.614v-1.25h3.614Zm-2.793-1.438h1.664v5.594c0 .153.023.273.07.359a.391.391 0 0 0 .195.176.804.804 0 0 0 .297.051c.078 0 .157-.007.235-.02l.179-.035.262 1.238c-.083.026-.2.056-.351.09a2.791 2.791 0 0 1-.551.067c-.401.015-.753-.038-1.055-.161a1.471 1.471 0 0 1-.699-.57c-.167-.258-.249-.583-.246-.976v-5.813Zm3.877 7.438v-6h1.664v6h-1.664Zm.836-6.774a.904.904 0 0 1-.637-.246.797.797 0 0 1-.262-.598c0-.229.087-.425.262-.59a.899.899 0 0 1 .637-.25c.247 0 .458.084.632.25a.776.776 0 0 1 .266.59.79.79 0 0 1-.266.598.889.889 0 0 1-.632.246Zm4.872 6.891c-.615 0-1.144-.13-1.586-.391a2.644 2.644 0 0 1-1.016-1.094c-.234-.466-.351-1.002-.351-1.609 0-.615.118-1.154.355-1.617.24-.466.579-.83 1.02-1.09.44-.263.963-.395 1.57-.395.523 0 .982.095 1.375.286.393.19.704.457.934.8.229.344.355.748.378 1.211h-1.57a1.21 1.21 0 0 0-.351-.722c-.188-.185-.434-.278-.739-.278a1.12 1.12 0 0 0-.676.211c-.19.138-.338.34-.445.606-.107.265-.16.587-.16.965 0 .382.052.708.156.976.107.268.257.473.449.613.193.141.418.211.676.211a1.1 1.1 0 0 0 .512-.117.981.981 0 0 0 .379-.34c.101-.151.168-.332.199-.543h1.57a2.456 2.456 0 0 1-.375 1.211 2.262 2.262 0 0 1-.918.813c-.39.195-.852.293-1.386.293Zm8.737-4.407-1.523.094a.785.785 0 0 0-.168-.351.89.89 0 0 0-.34-.254 1.158 1.158 0 0 0-.496-.098c-.258 0-.476.055-.653.164-.177.107-.265.25-.265.43 0 .143.057.264.172.363.114.099.311.179.589.238l1.086.219c.584.12 1.019.313 1.305.578.287.266.43.615.43 1.047 0 .393-.116.738-.348 1.035-.229.297-.544.529-.945.696-.399.164-.858.246-1.379.246-.794 0-1.427-.166-1.899-.496a1.938 1.938 0 0 1-.824-1.36l1.637-.086a.841.841 0 0 0 .359.555c.19.125.434.187.731.187.291 0 .526-.055.703-.167.18-.115.271-.262.273-.442a.457.457 0 0 0-.191-.371c-.125-.099-.318-.174-.578-.227l-1.039-.207c-.586-.117-1.022-.32-1.309-.609-.284-.289-.426-.657-.426-1.105 0-.386.105-.718.313-.997.211-.278.506-.493.887-.644.382-.151.83-.227 1.343-.227.758 0 1.355.161 1.789.481.438.32.693.756.766 1.308Zm-33.904 9.29v8h-1.692v-6.395h-.047l-1.832 1.148v-1.5l1.981-1.253h1.59Zm1.901 8v-1.219l2.848-2.637c.242-.234.445-.445.609-.633.167-.187.293-.371.379-.551a1.36 1.36 0 0 0 .129-.589c0-.235-.053-.437-.16-.606a1.05 1.05 0 0 0-.438-.394 1.367 1.367 0 0 0-.629-.141 1.32 1.32 0 0 0-.64.148 1.02 1.02 0 0 0-.422.426 1.38 1.38 0 0 0-.149.66h-1.605c0-.523.118-.977.355-1.363.237-.385.569-.684.997-.894.427-.211.919-.317 1.476-.317.573 0 1.072.102 1.496.305.427.2.759.479.996.836s.356.765.356 1.226c0 .302-.06.601-.18.895-.117.294-.327.621-.629.98-.302.357-.728.785-1.277 1.285l-1.168 1.145v.055h3.359v1.383h-5.703Zm7.917.101a.913.913 0 0 1-.664-.273.915.915 0 0 1-.273-.664c0-.256.091-.474.273-.657a.913.913 0 0 1 .664-.273c.25 0 .469.091.656.273a.883.883 0 0 1 .282.657.886.886 0 0 1-.133.472 1.005 1.005 0 0 1-.34.34.9.9 0 0 1-.465.125Zm5.036.008a3.638 3.638 0 0 1-1.191-.207 2.73 2.73 0 0 1-1.024-.66c-.302-.305-.541-.709-.718-1.211-.175-.503-.262-1.12-.262-1.852.003-.672.079-1.272.23-1.801.154-.531.373-.981.657-1.351.286-.37.629-.651 1.027-.844a3.006 3.006 0 0 1 1.34-.293c.534 0 1.005.104 1.414.313a2.592 2.592 0 0 1 1.437 2.031h-1.668a1.108 1.108 0 0 0-.41-.656c-.208-.159-.466-.239-.773-.239-.521 0-.917.227-1.188.68-.268.453-.405 1.069-.41 1.848h.055c.12-.237.281-.439.484-.606.206-.169.439-.298.699-.386.263-.092.541-.137.832-.137a2.374 2.374 0 0 1 2.141 1.25c.214.388.32.832.32 1.332 0 .542-.126 1.023-.378 1.445-.25.422-.601.753-1.051.992-.448.237-.969.355-1.563.352Zm-.008-1.328a1.322 1.322 0 0 0 1.184-.696c.117-.213.176-.453.176-.718 0-.266-.059-.504-.176-.715a1.297 1.297 0 0 0-1.172-.692c-.195 0-.376.037-.543.11a1.351 1.351 0 0 0-.433.305c-.123.13-.219.281-.289.453-.071.169-.106.35-.106.543a1.405 1.405 0 0 0 .66 1.218c.206.128.439.192.699.192Zm11.124-.281v-.422c0-.321.068-.615.204-.883.138-.271.337-.487.597-.649.263-.164.584-.246.961-.246.383 0 .705.081.965.242.263.162.461.378.594.649.135.268.203.564.203.887v.422c0 .32-.068.615-.203.886a1.592 1.592 0 0 1-.598.645c-.263.164-.583.246-.961.246-.383 0-.704-.082-.965-.246a1.593 1.593 0 0 1-.593-.645 1.946 1.946 0 0 1-.204-.886Zm1.137-.422v.422c0 .184.044.359.133.523.091.164.255.246.492.246s.399-.081.485-.242c.088-.162.132-.337.132-.527v-.422c0-.19-.041-.368-.125-.532-.083-.164-.247-.246-.492-.246-.234 0-.397.082-.488.246a1.081 1.081 0 0 0-.137.532Zm-5.242-4.157v-.421c0-.323.069-.619.207-.887a1.61 1.61 0 0 1 .598-.649c.263-.161.58-.242.953-.242.385 0 .708.081.969.242.26.162.458.378.593.649.136.268.203.564.203.887v.421c0 .323-.069.619-.207.887a1.583 1.583 0 0 1-.597.645c-.261.159-.581.238-.961.238s-.702-.081-.965-.242a1.629 1.629 0 0 1-.594-.645 1.957 1.957 0 0 1-.199-.883Zm1.144-.421v.421c0 .191.045.366.133.528.091.161.252.242.481.242.239 0 .402-.081.488-.242.089-.162.133-.337.133-.528v-.421a1.16 1.16 0 0 0-.125-.532c-.083-.164-.249-.246-.496-.246-.232 0-.392.084-.481.25a1.118 1.118 0 0 0-.133.528Zm-.628 6.5 5.5-8h1.023l-5.5 8h-1.023Zm32.02-151.2h-1.711a1.68 1.68 0 0 0-.192-.59 1.508 1.508 0 0 0-.371-.445 1.635 1.635 0 0 0-.523-.281 2.01 2.01 0 0 0-.637-.098c-.414 0-.775.103-1.082.309-.307.203-.546.5-.715.89-.169.388-.254.86-.254 1.415 0 .57.085 1.049.254 1.437.172.388.412.681.719.879.307.198.663.297 1.066.297.227 0 .436-.03.629-.09a1.503 1.503 0 0 0 .895-.688c.101-.166.172-.356.211-.57l1.711.008a3.11 3.11 0 0 1-.332 1.062 3.226 3.226 0 0 1-1.762 1.543 3.868 3.868 0 0 1-1.379.231c-.714 0-1.352-.162-1.914-.484a3.436 3.436 0 0 1-1.328-1.403c-.323-.612-.485-1.353-.485-2.222 0-.873.164-1.615.493-2.227.328-.612.773-1.078 1.336-1.398a3.741 3.741 0 0 1 1.898-.485c.463 0 .893.065 1.289.195a3.3 3.3 0 0 1 1.059.571c.307.247.557.551.75.91.195.359.32.771.375 1.234Zm3.892 5.317c-.607 0-1.131-.129-1.574-.387-.44-.26-.78-.622-1.02-1.086-.239-.466-.359-1.006-.359-1.621 0-.62.12-1.161.359-1.625.24-.466.58-.828 1.02-1.086.443-.26.967-.391 1.574-.391.607 0 1.13.131 1.571.391.442.258.783.62 1.023 1.086.24.464.359 1.005.359 1.625 0 .615-.119 1.155-.359 1.621a2.64 2.64 0 0 1-1.023 1.086c-.441.258-.964.387-1.571.387Zm.008-1.289c.276 0 .507-.078.691-.235.185-.159.325-.375.418-.648.097-.274.145-.585.145-.934 0-.349-.048-.66-.145-.933a1.446 1.446 0 0 0-.418-.649 1.02 1.02 0 0 0-.691-.238c-.279 0-.513.079-.703.238-.188.159-.33.375-.426.649a2.858 2.858 0 0 0-.141.933c0 .349.047.66.141.934.096.273.238.489.426.648.19.157.424.235.703.235Zm5.691-2.297v3.469h-1.664v-6h1.586v1.058h.071c.132-.349.355-.625.668-.828.312-.206.691-.309 1.136-.309.417 0 .78.092 1.09.274.31.182.551.443.723.781.172.336.258.737.258 1.203v3.821h-1.664v-3.524c.002-.367-.092-.654-.282-.859-.19-.209-.452-.313-.785-.313-.224 0-.422.048-.594.145a1.003 1.003 0 0 0-.398.422 1.462 1.462 0 0 0-.145.66Zm10.171-.821-1.523.094a.785.785 0 0 0-.168-.351.883.883 0 0 0-.34-.254 1.155 1.155 0 0 0-.496-.098 1.22 1.22 0 0 0-.652.164c-.177.107-.266.25-.266.43 0 .143.057.264.172.363.114.099.311.179.59.238l1.086.219c.583.12 1.018.313 1.304.578.287.266.43.615.43 1.047 0 .393-.116.738-.348 1.035-.229.297-.544.529-.945.696-.398.164-.858.246-1.379.246-.794 0-1.427-.166-1.898-.496a1.936 1.936 0 0 1-.825-1.36l1.637-.086c.05.242.169.427.36.555.19.125.433.187.73.187.292 0 .526-.055.703-.167.18-.115.271-.262.274-.442a.46.46 0 0 0-.192-.371c-.125-.099-.317-.174-.578-.227l-1.039-.207c-.586-.117-1.022-.32-1.309-.609-.283-.289-.425-.657-.425-1.105 0-.386.104-.718.312-.997.211-.278.507-.493.887-.644.383-.151.831-.227 1.344-.227.757 0 1.354.161 1.789.481.437.32.692.756.765 1.308Zm4.376-1.71v1.25h-3.613v-1.25h3.613Zm-2.793-1.438h1.664v5.594c0 .153.024.273.071.359a.391.391 0 0 0 .195.176.804.804 0 0 0 .297.051c.078 0 .156-.007.234-.02l.18-.035.262 1.238a4.881 4.881 0 0 1-.352.09 2.791 2.791 0 0 1-.551.067c-.401.015-.752-.038-1.054-.161a1.47 1.47 0 0 1-.7-.57c-.166-.258-.248-.583-.246-.976v-5.813Zm3.877 7.438v-6h1.614v1.046h.062c.109-.372.293-.653.551-.843.258-.193.555-.289.89-.289.084 0 .174.005.27.015.096.011.181.025.254.043v1.477a2.957 2.957 0 0 0-.703-.09c-.245 0-.464.053-.656.16-.191.104-.342.25-.454.438a1.263 1.263 0 0 0-.164.648v3.395h-1.664Zm8.349-2.555v-3.445h1.664v6h-1.598v-1.09h-.062a1.775 1.775 0 0 1-.676.847c-.312.214-.694.321-1.145.321-.401 0-.753-.091-1.058-.274a1.876 1.876 0 0 1-.715-.777c-.169-.336-.255-.738-.258-1.207v-3.82h1.664v3.523c.003.354.098.634.285.84.188.206.439.308.754.308a1.2 1.2 0 0 0 .563-.136c.174-.094.315-.232.422-.414a1.27 1.27 0 0 0 .16-.676Zm5.706 2.672c-.615 0-1.143-.13-1.586-.391a2.644 2.644 0 0 1-1.016-1.094c-.234-.466-.351-1.002-.351-1.609 0-.615.118-1.154.355-1.617.24-.466.58-.83 1.02-1.09.44-.263.963-.395 1.57-.395.524 0 .982.095 1.375.286.393.19.705.457.934.8.229.344.355.748.379 1.211h-1.571a1.21 1.21 0 0 0-.351-.722c-.188-.185-.434-.278-.739-.278-.257 0-.483.071-.675.211-.19.138-.339.34-.446.606-.106.265-.16.587-.16.965 0 .382.052.708.156.976.107.268.257.473.45.613.192.141.418.211.675.211.191 0 .361-.039.512-.117a.981.981 0 0 0 .379-.34c.102-.151.168-.332.199-.543h1.571a2.456 2.456 0 0 1-.375 1.211 2.275 2.275 0 0 1-.918.813c-.391.195-.853.293-1.387.293Zm6.936-6.117v1.25h-3.613v-1.25h3.613Zm-2.792-1.438h1.664v5.594c0 .153.023.273.07.359a.391.391 0 0 0 .195.176.804.804 0 0 0 .297.051c.078 0 .156-.007.234-.02l.18-.035.262 1.238a4.745 4.745 0 0 1-.352.09 2.78 2.78 0 0 1-.55.067c-.402.015-.753-.038-1.055-.161a1.462 1.462 0 0 1-.699-.57c-.167-.258-.249-.583-.246-.976v-5.813Zm3.876 7.438v-6h1.665v6h-1.665Zm.836-6.774a.903.903 0 0 1-.636-.246.797.797 0 0 1-.262-.598c0-.229.087-.425.262-.59a.898.898 0 0 1 .636-.25c.248 0 .459.084.633.25a.794.794 0 0 1 0 1.188.89.89 0 0 1-.633.246Zm4.872 6.891c-.606 0-1.131-.129-1.574-.387-.44-.26-.78-.622-1.019-1.086-.24-.466-.36-1.006-.36-1.621 0-.62.12-1.161.36-1.625a2.613 2.613 0 0 1 1.019-1.086c.443-.26.968-.391 1.574-.391.607 0 1.131.131 1.571.391.442.258.784.62 1.023 1.086.24.464.36 1.005.36 1.625 0 .615-.12 1.155-.36 1.621a2.633 2.633 0 0 1-1.023 1.086c-.44.258-.964.387-1.571.387Zm.008-1.289c.276 0 .507-.078.692-.235.185-.159.324-.375.418-.648.096-.274.144-.585.144-.934 0-.349-.048-.66-.144-.933a1.454 1.454 0 0 0-.418-.649 1.025 1.025 0 0 0-.692-.238 1.06 1.06 0 0 0-.703.238 1.475 1.475 0 0 0-.426.649c-.093.273-.14.584-.14.933 0 .349.047.66.14.934.097.273.239.489.426.648.19.157.425.235.703.235Zm5.692-2.297v3.469h-1.664v-6h1.586v1.058h.07c.133-.349.355-.625.668-.828.312-.206.691-.309 1.137-.309.416 0 .78.092 1.089.274.31.182.551.443.723.781.172.336.258.737.258 1.203v3.821h-1.664v-3.524c.002-.367-.091-.654-.281-.859-.191-.209-.452-.313-.786-.313-.224 0-.421.048-.593.145-.17.096-.302.237-.399.422a1.449 1.449 0 0 0-.144.66Zm-61.94 16.586c-.552 0-1.029-.099-1.43-.297a2.244 2.244 0 0 1-.926-.805 2.109 2.109 0 0 1-.32-1.14c0-.313.062-.59.187-.833.125-.242.3-.464.524-.667.224-.206.484-.411.781-.614l1.551-1.019c.2-.128.348-.262.441-.403a.83.83 0 0 0 .141-.464.637.637 0 0 0-.191-.442c-.128-.135-.309-.202-.543-.199a.766.766 0 0 0-.676.375.721.721 0 0 0-.094.367c0 .167.047.336.141.508.093.172.218.354.375.547.156.19.327.396.511.617l3.793 4.352h-1.734l-3.164-3.524a23.189 23.189 0 0 1-.625-.742 4.326 4.326 0 0 1-.516-.828 2.227 2.227 0 0 1-.207-.957c0-.388.09-.737.27-1.047.182-.31.437-.555.765-.735.329-.182.711-.273 1.149-.273.427 0 .795.087 1.105.262a1.832 1.832 0 0 1 .973 1.625c0 .377-.094.72-.281 1.027a2.826 2.826 0 0 1-.782.82l-1.632 1.176a1.889 1.889 0 0 0-.493.496.912.912 0 0 0-.156.481c0 .19.047.36.141.511a.987.987 0 0 0 .398.36c.172.086.374.129.606.129.281 0 .558-.064.832-.192.276-.13.526-.313.75-.55a2.784 2.784 0 0 0 .746-1.942h1.379c0 .49-.054.931-.16 1.324a3.613 3.613 0 0 1-.446 1.024c-.19.289-.407.526-.652.711l-.227.14-.226.141c-.297.24-.629.413-.996.52-.365.106-.725.16-1.082.16Zm10.372-.117h-2.836v-8h2.859c.805 0 1.498.16 2.078.48a3.24 3.24 0 0 1 1.34 1.371c.315.596.473 1.31.473 2.141 0 .833-.158 1.549-.473 2.148a3.242 3.242 0 0 1-1.347 1.379c-.584.32-1.282.481-2.094.481Zm-1.145-1.45h1.075c.5 0 .92-.088 1.261-.265.344-.18.602-.457.774-.832.174-.378.261-.865.261-1.461 0-.591-.087-1.075-.261-1.45a1.696 1.696 0 0 0-.77-.828c-.341-.177-.762-.265-1.262-.265h-1.078v5.101Zm9.015 1.567c-.617 0-1.149-.125-1.594-.375a2.566 2.566 0 0 1-1.023-1.071c-.24-.463-.36-1.011-.36-1.644 0-.617.12-1.159.36-1.625.239-.466.577-.83 1.011-1.09.438-.26.951-.391 1.54-.391.395 0 .764.064 1.105.192.344.125.643.314.898.566.258.253.459.571.602.953.143.381.215.826.215 1.336v.457h-5.067v-1.031h3.5c0-.24-.052-.452-.156-.637a1.12 1.12 0 0 0-.433-.433 1.238 1.238 0 0 0-.637-.16 1.28 1.28 0 0 0-.672.175c-.193.115-.344.27-.453.465-.11.193-.165.408-.168.645v.98c0 .297.055.554.164.77.112.216.269.383.473.5.203.117.444.176.722.176.185 0 .354-.027.508-.079.154-.052.285-.13.395-.234.109-.104.192-.232.25-.383l1.539.102c-.078.37-.239.692-.481.969a2.404 2.404 0 0 1-.929.64 3.509 3.509 0 0 1-1.309.227Zm3.84-.117v-6h1.586v1.058h.07c.125-.351.333-.629.625-.832.292-.203.641-.305 1.047-.305.411 0 .762.103 1.051.309.289.203.481.479.578.828h.062a1.6 1.6 0 0 1 .664-.824c.323-.208.705-.313 1.145-.313.56 0 1.014.179 1.363.536.352.354.528.856.528 1.507v4.036h-1.661v-3.708c0-.333-.088-.583-.265-.75a.935.935 0 0 0-.664-.25c-.302 0-.538.097-.707.29-.17.19-.254.441-.254.753v3.665h-1.614v-3.743c0-.294-.084-.528-.253-.703-.167-.174-.387-.262-.661-.262a.918.918 0 0 0-.5.141.969.969 0 0 0-.347.387 1.229 1.229 0 0 0-.129.578v3.602h-1.664Zm12.744.117c-.607 0-1.132-.129-1.574-.387-.44-.26-.78-.622-1.02-1.086-.239-.466-.359-1.006-.359-1.621 0-.62.12-1.161.359-1.625.24-.466.58-.828 1.02-1.086.442-.26.967-.391 1.574-.391.607 0 1.13.131 1.57.391.443.258.784.62 1.024 1.086.239.464.359 1.005.359 1.625 0 .615-.12 1.155-.359 1.621-.24.464-.581.826-1.024 1.086-.44.258-.963.387-1.57.387Zm.008-1.289c.276 0 .506-.078.691-.235.185-.159.324-.375.418-.648.096-.274.145-.585.145-.934 0-.349-.049-.66-.145-.933a1.454 1.454 0 0 0-.418-.649 1.022 1.022 0 0 0-.691-.238c-.279 0-.513.079-.703.238-.188.159-.33.375-.426.649a2.858 2.858 0 0 0-.141.933c0 .349.047.66.141.934.096.273.238.489.426.648.19.157.424.235.703.235Zm5.691-6.828v8H264v-8h1.664Zm1.333 8v-6h1.664v6h-1.664Zm.836-6.774a.906.906 0 0 1-.637-.246.8.8 0 0 1-.261-.598c0-.229.087-.425.261-.59a.9.9 0 0 1 .637-.25c.247 0 .458.084.633.25a.794.794 0 0 1 0 1.188.893.893 0 0 1-.633.246Zm5.353.774v1.25h-3.614v-1.25h3.614Zm-2.793-1.438h1.664v5.594c0 .153.023.273.07.359a.391.391 0 0 0 .195.176.804.804 0 0 0 .297.051c.078 0 .156-.007.235-.02l.179-.035.262 1.238a4.745 4.745 0 0 1-.352.09 2.78 2.78 0 0 1-.55.067c-.401.015-.753-.038-1.055-.161a1.462 1.462 0 0 1-.699-.57c-.167-.258-.249-.583-.246-.976v-5.813Zm3.877 7.438v-6h1.664v6h-1.664Zm.836-6.774a.904.904 0 0 1-.637-.246.797.797 0 0 1-.262-.598c0-.229.087-.425.262-.59a.899.899 0 0 1 .637-.25c.247 0 .458.084.632.25a.794.794 0 0 1 0 1.188.889.889 0 0 1-.632.246Zm4.872 6.891c-.607 0-1.132-.129-1.575-.387-.44-.26-.78-.622-1.019-1.086-.24-.466-.36-1.006-.36-1.621 0-.62.12-1.161.36-1.625a2.613 2.613 0 0 1 1.019-1.086c.443-.26.968-.391 1.575-.391.606 0 1.13.131 1.57.391.443.258.784.62 1.023 1.086.24.464.36 1.005.36 1.625 0 .615-.12 1.155-.36 1.621-.239.464-.58.826-1.023 1.086-.44.258-.964.387-1.57.387Zm.007-1.289c.276 0 .507-.078.692-.235.185-.159.324-.375.418-.648.096-.274.144-.585.144-.934 0-.349-.048-.66-.144-.933a1.454 1.454 0 0 0-.418-.649 1.025 1.025 0 0 0-.692-.238 1.06 1.06 0 0 0-.703.238 1.465 1.465 0 0 0-.425.649 2.858 2.858 0 0 0-.141.933c0 .349.047.66.141.934.096.273.238.489.425.648.19.157.425.235.703.235Zm5.692-2.297v3.469h-1.664v-6h1.586v1.058h.07c.133-.349.355-.625.668-.828.312-.206.691-.309 1.137-.309.416 0 .78.092 1.09.274.309.182.55.443.722.781.172.336.258.737.258 1.203v3.821h-1.664v-3.524c.003-.367-.091-.654-.281-.859-.19-.209-.452-.313-.785-.313-.224 0-.422.048-.594.145a1.012 1.012 0 0 0-.399.422 1.462 1.462 0 0 0-.144.66Zm-60.68 13.261c0-.968.129-1.86.387-2.675a7.377 7.377 0 0 1 1.191-2.266h1.59a4.847 4.847 0 0 0-.566.945c-.175.37-.327.776-.457 1.219a10.45 10.45 0 0 0-.305 1.375 9.157 9.157 0 0 0-.109 1.402c0 .618.062 1.241.187 1.872.128.627.3 1.211.516 1.75.218.539.463.98.734 1.324h-1.59a7.388 7.388 0 0 1-1.191-2.266c-.258-.815-.387-1.708-.387-2.68Zm5.798-.261v3.469h-1.664v-6h1.586v1.058h.07c.133-.349.356-.625.668-.828.313-.206.692-.309 1.137-.309.417 0 .78.092 1.09.274.31.182.55.443.722.781.172.336.258.737.258 1.203v3.821h-1.664v-3.524c.003-.367-.091-.654-.281-.859-.19-.209-.452-.313-.785-.313-.224 0-.422.048-.594.145a1.003 1.003 0 0 0-.398.422 1.462 1.462 0 0 0-.145.66Zm7.89 3.586c-.607 0-1.132-.129-1.575-.387-.44-.26-.78-.622-1.019-1.086-.24-.466-.359-1.006-.359-1.621 0-.62.119-1.161.359-1.625a2.613 2.613 0 0 1 1.019-1.086c.443-.26.968-.391 1.575-.391.606 0 1.13.131 1.57.391.443.258.784.62 1.023 1.086.24.464.36 1.005.36 1.625 0 .615-.12 1.155-.36 1.621-.239.464-.58.826-1.023 1.086-.44.258-.964.387-1.57.387Zm.007-1.289c.277 0 .507-.078.692-.235.185-.159.324-.375.418-.648.096-.274.144-.585.144-.934 0-.349-.048-.66-.144-.933a1.454 1.454 0 0 0-.418-.649 1.023 1.023 0 0 0-.692-.238 1.06 1.06 0 0 0-.703.238 1.465 1.465 0 0 0-.425.649 2.858 2.858 0 0 0-.141.933c0 .349.047.66.141.934.096.273.238.489.425.648.19.157.425.235.703.235Zm5.692-2.297v3.469h-1.664v-6h1.586v1.058h.07c.133-.349.356-.625.668-.828.313-.206.691-.309 1.137-.309.416 0 .78.092 1.09.274.309.182.55.443.722.781.172.336.258.737.258 1.203v3.821h-1.664v-3.524c.003-.367-.091-.654-.281-.859-.19-.209-.452-.313-.785-.313-.224 0-.422.048-.594.145a1.012 1.012 0 0 0-.399.422 1.462 1.462 0 0 0-.144.66Zm8.917-.477v1.321h-3.649v-1.321h3.649Zm2.601 3.946-1.632-6h1.683l.93 4.031h.055l.968-4.031h1.653l.984 4.007h.051l.914-4.007h1.68l-1.629 6h-1.762l-1.031-3.774h-.075l-1.031 3.774h-1.758Zm10.734.117c-.607 0-1.132-.129-1.574-.387a2.64 2.64 0 0 1-1.02-1.086c-.24-.466-.359-1.006-.359-1.621 0-.62.119-1.161.359-1.625.24-.466.579-.828 1.02-1.086.442-.26.967-.391 1.574-.391.607 0 1.13.131 1.57.391.443.258.784.62 1.024 1.086.239.464.359 1.005.359 1.625 0 .615-.12 1.155-.359 1.621-.24.464-.581.826-1.024 1.086-.44.258-.963.387-1.57.387Zm.008-1.289c.276 0 .506-.078.691-.235.185-.159.324-.375.418-.648.096-.274.145-.585.145-.934 0-.349-.049-.66-.145-.933a1.454 1.454 0 0 0-.418-.649 1.022 1.022 0 0 0-.691-.238c-.279 0-.513.079-.703.238-.188.159-.33.375-.426.649a2.858 2.858 0 0 0-.141.933c0 .349.047.66.141.934.096.273.238.489.426.648.19.157.424.235.703.235Zm6.738 1.289c-.607 0-1.132-.129-1.574-.387-.44-.26-.78-.622-1.02-1.086-.239-.466-.359-1.006-.359-1.621 0-.62.12-1.161.359-1.625.24-.466.58-.828 1.02-1.086.442-.26.967-.391 1.574-.391.607 0 1.13.131 1.57.391.443.258.784.62 1.024 1.086.239.464.359 1.005.359 1.625 0 .615-.12 1.155-.359 1.621-.24.464-.581.826-1.024 1.086-.44.258-.963.387-1.57.387Zm.008-1.289c.276 0 .506-.078.691-.235.185-.159.324-.375.418-.648.096-.274.145-.585.145-.934 0-.349-.049-.66-.145-.933a1.454 1.454 0 0 0-.418-.649 1.022 1.022 0 0 0-.691-.238c-.279 0-.513.079-.703.238-.188.159-.33.375-.426.649a2.858 2.858 0 0 0-.141.933c0 .349.047.66.141.934.096.273.238.489.426.648.19.157.424.235.703.235Zm6.238 1.269c-.456 0-.868-.117-1.238-.351-.367-.237-.659-.585-.875-1.043-.214-.461-.321-1.026-.321-1.696 0-.687.111-1.259.332-1.715.222-.458.516-.8.883-1.027.37-.229.775-.344 1.215-.344.336 0 .616.058.84.172.227.112.409.253.547.422.14.167.247.331.32.492h.051v-3.007h1.66v8h-1.641v-.961h-.07a2.16 2.16 0 0 1-.332.496 1.66 1.66 0 0 1-.551.402c-.224.107-.497.16-.82.16Zm.527-1.324c.269 0 .495-.073.68-.219.188-.148.331-.355.43-.621.101-.266.152-.577.152-.933 0-.357-.049-.667-.148-.93a1.345 1.345 0 0 0-.43-.61 1.094 1.094 0 0 0-.684-.214 1.08 1.08 0 0 0-.691.222 1.366 1.366 0 0 0-.426.617 2.663 2.663 0 0 0-.144.915c0 .348.048.657.144.925.099.266.241.474.426.625.187.149.418.223.691.223Zm7.06-1.981c0 .972-.13 1.865-.391 2.68a7.334 7.334 0 0 1-1.187 2.266h-1.59c.203-.258.392-.573.566-.946a8.55 8.55 0 0 0 .457-1.218c.131-.443.232-.901.305-1.375a9.232 9.232 0 0 0-.082-3.274 9.543 9.543 0 0 0-.516-1.75c-.216-.539-.459-.98-.73-1.324h1.59a7.323 7.323 0 0 1 1.187 2.266c.261.815.391 1.707.391 2.675Zm-44.317 8.208v8h-1.692v-6.395h-.047l-1.832 1.148v-1.5l1.981-1.253h1.59Zm4.858 8.109c-.583 0-1.103-.1-1.559-.301a2.66 2.66 0 0 1-1.074-.836 2.105 2.105 0 0 1-.402-1.234h1.703c.01.195.074.367.191.515.12.146.279.26.477.34.198.081.42.121.668.121.258 0 .486-.045.683-.136.198-.091.353-.218.465-.379a.958.958 0 0 0 .168-.559.94.94 0 0 0-.179-.566 1.156 1.156 0 0 0-.508-.391 1.972 1.972 0 0 0-.782-.141h-.746v-1.242h.746c.256 0 .481-.044.676-.133.198-.088.352-.21.461-.367a.947.947 0 0 0 .164-.554.963.963 0 0 0-.543-.887 1.292 1.292 0 0 0-.593-.129c-.23 0-.439.042-.629.125a1.1 1.1 0 0 0-.457.348.913.913 0 0 0-.184.531h-1.621c.008-.461.139-.867.394-1.219a2.57 2.57 0 0 1 1.032-.824 3.467 3.467 0 0 1 1.472-.301c.552 0 1.036.1 1.45.301.414.2.735.471.964.812.232.339.347.719.344 1.141.003.448-.137.822-.418 1.121-.278.3-.642.49-1.09.57v.063c.589.075 1.037.28 1.344.613.31.331.464.745.461 1.242.003.456-.129.861-.394 1.215-.263.354-.627.633-1.09.836-.464.203-.995.305-1.594.305Zm5.057-.008a.911.911 0 0 1-.664-.273.912.912 0 0 1-.274-.664c0-.256.091-.474.274-.657a.911.911 0 0 1 .664-.273c.25 0 .468.091.656.273a.886.886 0 0 1 .281.657.877.877 0 0 1-.133.472 1.005 1.005 0 0 1-.34.34.894.894 0 0 1-.464.125Zm4.987.008c-.583 0-1.103-.1-1.559-.301a2.66 2.66 0 0 1-1.074-.836 2.105 2.105 0 0 1-.402-1.234h1.703c.01.195.074.367.191.515.12.146.279.26.477.34.198.081.42.121.668.121.258 0 .485-.045.683-.136.198-.091.353-.218.465-.379a.958.958 0 0 0 .168-.559.94.94 0 0 0-.179-.566 1.156 1.156 0 0 0-.508-.391 1.972 1.972 0 0 0-.782-.141h-.746v-1.242h.746c.256 0 .481-.044.676-.133.198-.088.352-.21.461-.367a.947.947 0 0 0 .164-.554.963.963 0 0 0-.543-.887 1.292 1.292 0 0 0-.593-.129c-.23 0-.439.042-.629.125a1.093 1.093 0 0 0-.457.348.913.913 0 0 0-.184.531h-1.621c.008-.461.139-.867.394-1.219a2.57 2.57 0 0 1 1.032-.824 3.467 3.467 0 0 1 1.472-.301c.552 0 1.035.1 1.45.301.414.2.735.471.964.812.232.339.347.719.344 1.141.003.448-.137.822-.418 1.121-.278.3-.642.49-1.09.57v.063c.589.075 1.037.28 1.344.613.31.331.464.745.461 1.242.003.456-.129.861-.395 1.215-.263.354-.626.633-1.089.836-.464.203-.995.305-1.594.305Zm11.219-1.609v-.422c0-.321.067-.615.203-.883.138-.271.337-.487.597-.649.263-.164.584-.246.961-.246.383 0 .705.081.965.242.263.162.461.378.594.649.135.268.203.564.203.887v.422c0 .32-.068.615-.203.886a1.585 1.585 0 0 1-.598.645c-.263.164-.583.246-.961.246-.382 0-.704-.082-.964-.246a1.589 1.589 0 0 1-.594-.645 1.946 1.946 0 0 1-.203-.886Zm1.136-.422v.422c0 .184.045.359.133.523.091.164.255.246.492.246s.399-.081.485-.242c.088-.162.133-.337.133-.527v-.422c0-.19-.042-.368-.125-.532-.084-.164-.248-.246-.493-.246-.234 0-.397.082-.488.246a1.081 1.081 0 0 0-.137.532Zm-5.242-4.157v-.421c0-.323.069-.619.207-.887a1.61 1.61 0 0 1 .598-.649c.263-.161.581-.242.953-.242.385 0 .708.081.969.242.26.162.458.378.593.649.136.268.204.564.204.887v.421c0 .323-.069.619-.207.887a1.592 1.592 0 0 1-.598.645c-.261.159-.581.238-.961.238s-.702-.081-.965-.242a1.629 1.629 0 0 1-.594-.645 1.97 1.97 0 0 1-.199-.883Zm1.145-.421v.421c0 .191.044.366.133.528.091.161.251.242.48.242.24 0 .402-.081.488-.242.089-.162.133-.337.133-.528v-.421a1.16 1.16 0 0 0-.125-.532c-.083-.164-.249-.246-.496-.246-.232 0-.392.084-.48.25a1.107 1.107 0 0 0-.133.528Zm-.629 6.5 5.5-8h1.023l-5.5 8h-1.023Zm-170.295 63v-8h3.156c.607 0 1.124.115 1.55.347.428.229.754.548.977.957.227.406.34.875.34 1.406 0 .532-.114 1-.343 1.407-.23.406-.562.722-.996.949-.433.226-.956.34-1.57.34h-2.013v-1.356h1.739c.325 0 .593-.056.804-.168a1.11 1.11 0 0 0 .477-.472 1.48 1.48 0 0 0 .16-.7 1.44 1.44 0 0 0-.16-.695 1.076 1.076 0 0 0-.477-.465c-.213-.112-.484-.168-.812-.168h-1.14v6.618h-1.692Zm8.64.113c-.382 0-.723-.067-1.023-.199a1.658 1.658 0 0 1-.711-.598c-.172-.266-.258-.596-.258-.992 0-.334.062-.614.184-.84a1.48 1.48 0 0 1 .5-.547 2.41 2.41 0 0 1 .719-.312c.27-.071.554-.12.851-.149.349-.036.63-.07.844-.101.214-.034.368-.084.465-.149a.326.326 0 0 0 .144-.289v-.023c0-.248-.078-.439-.234-.575-.154-.135-.372-.203-.656-.203-.3 0-.538.067-.715.199a.926.926 0 0 0-.352.493l-1.539-.125c.078-.365.232-.68.461-.946.229-.268.525-.474.887-.617.364-.146.786-.219 1.266-.219.333 0 .652.039.957.118.307.078.579.199.816.363.24.164.428.375.566.633.138.255.207.561.207.918v4.047h-1.578v-.833h-.047a1.7 1.7 0 0 1-.386.497c-.162.14-.356.251-.582.332a2.416 2.416 0 0 1-.786.117Zm.477-1.149a1.4 1.4 0 0 0 .648-.144c.188-.099.335-.232.442-.399.107-.166.16-.355.16-.566v-.637a.902.902 0 0 1-.215.094 3.696 3.696 0 0 1-.301.074 13.13 13.13 0 0 1-.336.059l-.304.043a2.006 2.006 0 0 0-.512.137.82.82 0 0 0-.34.253.626.626 0 0 0-.121.391c0 .227.082.4.246.52.167.117.378.175.633.175Zm4.193 3.286v-8.25h1.641v1.007h.074c.073-.161.179-.325.317-.492.14-.169.323-.31.547-.422.226-.114.507-.172.843-.172.438 0 .841.115 1.211.344.37.227.666.569.887 1.027.221.456.332 1.028.332 1.715 0 .67-.108 1.235-.324 1.696-.214.458-.505.806-.875 1.043a2.25 2.25 0 0 1-1.235.351 1.92 1.92 0 0 1-.824-.16 1.723 1.723 0 0 1-.551-.402 2.075 2.075 0 0 1-.328-.496h-.051v3.211h-1.664Zm1.629-5.25c0 .356.05.667.149.933.099.266.242.473.429.621.188.146.416.219.684.219.271 0 .5-.074.688-.223.187-.151.329-.359.425-.625.099-.268.149-.577.149-.925 0-.347-.048-.652-.145-.915a1.358 1.358 0 0 0-.426-.617 1.08 1.08 0 0 0-.691-.222c-.271 0-.5.071-.687.214a1.354 1.354 0 0 0-.426.61 2.637 2.637 0 0 0-.149.93Zm8.067 3.117c-.617 0-1.149-.125-1.594-.375a2.566 2.566 0 0 1-1.023-1.071c-.24-.463-.36-1.011-.36-1.644 0-.617.12-1.159.36-1.625a2.65 2.65 0 0 1 1.011-1.09c.438-.26.951-.391 1.539-.391.396 0 .765.064 1.106.192.344.125.643.314.898.566.258.253.459.571.602.953.143.381.215.826.215 1.336v.457h-5.067v-1.031h3.5c0-.24-.052-.452-.156-.637a1.115 1.115 0 0 0-.434-.433 1.231 1.231 0 0 0-.636-.16 1.28 1.28 0 0 0-.672.175c-.193.115-.344.27-.453.465-.11.193-.166.408-.168.645v.98c0 .297.054.554.164.77a1.2 1.2 0 0 0 .472.5c.204.117.444.176.723.176.185 0 .354-.027.508-.079a1.008 1.008 0 0 0 .644-.617l1.539.102c-.078.37-.238.692-.48.969-.24.273-.549.487-.93.64-.377.151-.813.227-1.308.227Zm3.84-.117v-6h1.613v1.046h.062c.11-.372.293-.653.551-.843.258-.193.555-.289.891-.289.083 0 .173.005.269.015.097.011.181.025.254.043v1.477a2.945 2.945 0 0 0-.703-.09c-.245 0-.463.053-.656.16-.19.104-.341.25-.453.438-.11.187-.164.403-.164.648v3.395h-1.664Zm9.5.117c-.553 0-1.029-.099-1.43-.297a2.244 2.244 0 0 1-.926-.805 2.109 2.109 0 0 1-.32-1.14c0-.313.062-.59.187-.833.125-.242.3-.464.524-.667.224-.206.484-.411.781-.614l1.551-1.019c.2-.128.347-.262.441-.403a.83.83 0 0 0 .141-.464.634.634 0 0 0-.192-.442c-.127-.135-.308-.202-.543-.199a.765.765 0 0 0-.675.375.721.721 0 0 0-.094.367c0 .167.047.336.141.508.093.172.218.354.375.547.156.19.326.396.511.617l3.793 4.352h-1.734l-3.164-3.524a21.948 21.948 0 0 1-.625-.742 4.326 4.326 0 0 1-.516-.828 2.227 2.227 0 0 1-.207-.957c0-.388.09-.737.27-1.047.182-.31.437-.555.765-.735.328-.182.711-.273 1.149-.273.427 0 .795.087 1.105.262a1.832 1.832 0 0 1 .973 1.625c0 .377-.094.72-.281 1.027a2.826 2.826 0 0 1-.782.82l-1.632 1.176a1.889 1.889 0 0 0-.493.496.912.912 0 0 0-.156.481c0 .19.047.36.141.511a.981.981 0 0 0 .398.36c.172.086.374.129.606.129.281 0 .558-.064.832-.192.276-.13.526-.313.75-.55a2.784 2.784 0 0 0 .746-1.942h1.379c0 .49-.054.931-.161 1.324a3.584 3.584 0 0 1-.445 1.024c-.19.289-.407.526-.652.711l-.227.14a31.65 31.65 0 0 0-.226.141c-.297.24-.629.413-.996.52a3.87 3.87 0 0 1-1.082.16Zm-47.035 12.883v-8h3.157c.606 0 1.123.115 1.55.347.427.229.753.548.977.957.227.406.34.875.34 1.406 0 .532-.115 1-.344 1.407-.23.406-.561.722-.996.949-.432.226-.956.34-1.57.34h-2.012v-1.356h1.738c.326 0 .594-.056.805-.168a1.12 1.12 0 0 0 .477-.472c.106-.203.16-.437.16-.7 0-.265-.054-.497-.16-.695a1.076 1.076 0 0 0-.477-.465c-.214-.112-.484-.168-.813-.168h-1.14v6.618h-1.692Zm8.641.113a2.51 2.51 0 0 1-1.023-.199 1.653 1.653 0 0 1-.711-.598c-.172-.266-.258-.596-.258-.992 0-.334.061-.614.183-.84.123-.227.29-.409.5-.547.211-.138.45-.242.72-.312.27-.071.554-.12.85-.149.35-.036.63-.07.845-.101.213-.034.368-.084.464-.149a.325.325 0 0 0 .145-.289v-.023c0-.248-.078-.439-.234-.575-.154-.135-.373-.203-.657-.203-.3 0-.537.067-.715.199a.921.921 0 0 0-.351.493l-1.54-.125c.079-.365.233-.68.462-.946.229-.268.524-.474.886-.617a3.388 3.388 0 0 1 1.266-.219c.333 0 .652.039.957.118.307.078.58.199.817.363.24.164.428.375.566.633.138.255.207.561.207.918v4.047h-1.578v-.833h-.047a1.699 1.699 0 0 1-.387.497c-.161.14-.355.251-.582.332a2.41 2.41 0 0 1-.785.117Zm.477-1.149c.244 0 .46-.048.648-.144.188-.099.335-.232.441-.399.107-.166.16-.355.16-.566v-.637a.899.899 0 0 1-.214.094 3.75 3.75 0 0 1-.301.074 13.13 13.13 0 0 1-.336.059l-.305.043a2.01 2.01 0 0 0-.511.137.819.819 0 0 0-.34.253.621.621 0 0 0-.121.391c0 .227.082.4.246.52.166.117.377.175.633.175Zm4.193 3.286v-8.25h1.64v1.007h.075a2.22 2.22 0 0 1 .316-.492c.14-.169.323-.31.547-.422.227-.114.508-.172.844-.172.437 0 .841.115 1.211.344.37.227.665.569.886 1.027.222.456.332 1.028.332 1.715 0 .67-.108 1.235-.324 1.696-.213.458-.505.806-.875 1.043a2.246 2.246 0 0 1-1.234.351c-.323 0-.598-.053-.824-.16a1.715 1.715 0 0 1-.551-.402 2.055 2.055 0 0 1-.328-.496h-.051v3.211h-1.664Zm1.629-5.25c0 .356.05.667.148.933.1.266.242.473.43.621.187.146.415.219.684.219.27 0 .5-.074.687-.223.188-.151.329-.359.426-.625.099-.268.148-.577.148-.925 0-.347-.048-.652-.144-.915a1.373 1.373 0 0 0-.426-.617 1.082 1.082 0 0 0-.691-.222c-.271 0-.5.071-.688.214a1.354 1.354 0 0 0-.426.61 2.637 2.637 0 0 0-.148.93Zm8.066 3.117c-.617 0-1.148-.125-1.594-.375a2.578 2.578 0 0 1-1.023-1.071c-.24-.463-.359-1.011-.359-1.644 0-.617.119-1.159.359-1.625.24-.466.577-.83 1.012-1.09.437-.26.95-.391 1.539-.391.396 0 .764.064 1.105.192.344.125.644.314.899.566.258.253.458.571.601.953.144.381.215.826.215 1.336v.457h-5.066v-1.031h3.5c0-.24-.052-.452-.157-.637a1.113 1.113 0 0 0-.433-.433 1.235 1.235 0 0 0-.637-.16 1.248 1.248 0 0 0-1.125.64 1.324 1.324 0 0 0-.168.645v.98c0 .297.055.554.164.77.112.216.27.383.473.5.203.117.444.176.723.176.184 0 .354-.027.507-.079a1.05 1.05 0 0 0 .395-.234 1.02 1.02 0 0 0 .25-.383l1.539.102c-.078.37-.238.692-.48.969-.24.273-.55.487-.93.64a3.509 3.509 0 0 1-1.309.227Zm3.84-.117v-6h1.613v1.046h.063c.109-.372.293-.653.551-.843.257-.193.554-.289.89-.289.084 0 .173.005.27.015.096.011.181.025.254.043v1.477a2.943 2.943 0 0 0-.703-.09c-.245 0-.464.053-.657.16-.19.104-.341.25-.453.438a1.263 1.263 0 0 0-.164.648v3.395h-1.664Zm4.532 0v-8h1.664v3.007h.051c.073-.161.179-.325.317-.492.14-.169.322-.31.546-.422.227-.114.508-.172.844-.172.438 0 .841.115 1.211.344.37.227.665.569.887 1.027.221.456.332 1.028.332 1.715 0 .67-.108 1.235-.324 1.696-.214.458-.506.806-.875 1.043a2.252 2.252 0 0 1-1.235.351 1.92 1.92 0 0 1-.824-.16 1.723 1.723 0 0 1-.551-.402 2.075 2.075 0 0 1-.328-.496h-.074v.961h-1.641Zm1.629-3c0 .356.05.667.149.933.099.266.242.473.429.621.188.146.416.219.684.219.271 0 .5-.074.687-.223.188-.151.33-.359.426-.625.099-.268.149-.577.149-.925 0-.347-.049-.652-.145-.915a1.358 1.358 0 0 0-.426-.617 1.08 1.08 0 0 0-.691-.222c-.271 0-.5.071-.688.214a1.36 1.36 0 0 0-.425.61 2.637 2.637 0 0 0-.149.93Zm8.044 3.117c-.607 0-1.131-.129-1.574-.387-.44-.26-.78-.622-1.02-1.086-.239-.466-.359-1.006-.359-1.621 0-.62.12-1.161.359-1.625.24-.466.58-.828 1.02-1.086.443-.26.967-.391 1.574-.391.607 0 1.13.131 1.57.391.443.258.784.62 1.024 1.086.24.464.359 1.005.359 1.625 0 .615-.119 1.155-.359 1.621-.24.464-.581.826-1.024 1.086-.44.258-.963.387-1.57.387Zm.008-1.289c.276 0 .506-.078.691-.235.185-.159.325-.375.418-.648.097-.274.145-.585.145-.934 0-.349-.048-.66-.145-.933a1.446 1.446 0 0 0-.418-.649 1.022 1.022 0 0 0-.691-.238c-.279 0-.513.079-.703.238-.188.159-.33.375-.426.649a2.858 2.858 0 0 0-.141.933c0 .349.047.66.141.934.096.273.238.489.426.648.19.157.424.235.703.235Zm5.738 1.285a2.51 2.51 0 0 1-1.023-.199 1.647 1.647 0 0 1-.711-.598c-.172-.266-.258-.596-.258-.992 0-.334.061-.614.184-.84a1.48 1.48 0 0 1 .5-.547c.211-.138.45-.242.718-.312.271-.071.555-.12.852-.149.349-.036.63-.07.844-.101.213-.034.368-.084.465-.149a.326.326 0 0 0 .144-.289v-.023c0-.248-.078-.439-.234-.575-.154-.135-.373-.203-.657-.203-.299 0-.537.067-.714.199a.92.92 0 0 0-.352.493l-1.539-.125c.078-.365.232-.68.461-.946.229-.268.525-.474.887-.617a3.383 3.383 0 0 1 1.265-.219c.334 0 .653.039.957.118.308.078.58.199.817.363.239.164.428.375.566.633.138.255.207.561.207.918v4.047h-1.578v-.833h-.047a1.687 1.687 0 0 1-.387.497c-.161.14-.355.251-.582.332a2.406 2.406 0 0 1-.785.117Zm.477-1.149a1.4 1.4 0 0 0 .648-.144c.188-.099.335-.232.442-.399a1.03 1.03 0 0 0 .16-.566v-.637a.902.902 0 0 1-.215.094 3.802 3.802 0 0 1-.301.074 13.13 13.13 0 0 1-.336.059l-.304.043a2.006 2.006 0 0 0-.512.137.82.82 0 0 0-.34.253.62.62 0 0 0-.121.391c0 .227.082.4.246.52.167.117.378.175.633.175Zm4.193 1.036v-6h1.613v1.046h.063c.109-.372.293-.653.551-.843.258-.193.554-.289.89-.289.084 0 .174.005.27.015.096.011.181.025.254.043v1.477a2.957 2.957 0 0 0-.703-.09c-.245 0-.464.053-.657.16-.19.104-.341.25-.453.438a1.263 1.263 0 0 0-.164.648v3.395h-1.664Zm6.433.097c-.456 0-.869-.117-1.238-.351-.368-.237-.659-.585-.875-1.043-.214-.461-.321-1.026-.321-1.696 0-.687.111-1.259.332-1.715.222-.458.516-.8.883-1.027.37-.229.775-.344 1.215-.344.336 0 .616.058.84.172.226.112.409.253.547.422.14.167.247.331.32.492h.051v-3.007h1.66v8h-1.641v-.961h-.07a2.16 2.16 0 0 1-.332.496 1.66 1.66 0 0 1-.551.402c-.224.107-.497.16-.82.16Zm.527-1.324c.268 0 .495-.073.68-.219.187-.148.331-.355.43-.621.101-.266.152-.577.152-.933 0-.357-.05-.667-.149-.93a1.344 1.344 0 0 0-.429-.61 1.096 1.096 0 0 0-.684-.214 1.08 1.08 0 0 0-.691.222c-.188.149-.33.354-.426.617a2.662 2.662 0 0 0-.145.915c0 .348.049.657.145.925.099.266.241.474.426.625.187.149.418.223.691.223Zm-41.082 6.227v8h-1.691v-6.395h-.047l-1.832 1.148v-1.5l1.98-1.253h1.59Zm1.78 6.593v-1.332l3.34-5.261h1.149v1.843h-.68l-2.105 3.332v.063h4.746v1.355h-6.45Zm3.84 1.407v-1.813l.031-.59v-5.597h1.586v8h-1.617Zm4.574.101a.915.915 0 0 1-.664-.273.915.915 0 0 1-.273-.664c0-.256.091-.474.273-.657a.915.915 0 0 1 .664-.273c.25 0 .469.091.657.273a.886.886 0 0 1 .281.657.877.877 0 0 1-.133.472 1.005 1.005 0 0 1-.34.34.895.895 0 0 1-.465.125Zm2.289-.101v-1.219l2.847-2.637c.242-.234.446-.445.61-.633.166-.187.293-.371.378-.551a1.36 1.36 0 0 0 .129-.589c0-.235-.053-.437-.16-.606a1.048 1.048 0 0 0-.437-.394 1.37 1.37 0 0 0-.629-.141c-.245 0-.459.049-.641.148a1.025 1.025 0 0 0-.422.426 1.38 1.38 0 0 0-.148.66h-1.606c0-.523.119-.977.356-1.363a2.37 2.37 0 0 1 .996-.894c.427-.211.919-.317 1.477-.317.572 0 1.071.102 1.496.305.427.2.759.479.996.836s.355.765.355 1.226c0 .302-.06.601-.179.895-.118.294-.327.621-.629.98-.302.357-.728.785-1.278 1.285l-1.168 1.145v.055h3.36v1.383h-5.703Zm13.853-1.5v-.422c0-.321.068-.615.203-.883a1.61 1.61 0 0 1 .598-.649c.263-.164.583-.246.961-.246.383 0 .704.081.965.242.263.162.461.378.593.649.136.268.203.564.203.887v.422c0 .32-.067.615-.203.886a1.583 1.583 0 0 1-.597.645c-.263.164-.584.246-.961.246-.383 0-.705-.082-.965-.246a1.603 1.603 0 0 1-.594-.645 1.959 1.959 0 0 1-.203-.886Zm1.137-.422v.422c0 .184.044.359.133.523.091.164.255.246.492.246s.398-.081.484-.242c.089-.162.133-.337.133-.527v-.422c0-.19-.042-.368-.125-.532-.083-.164-.247-.246-.492-.246-.235 0-.397.082-.489.246a1.08 1.08 0 0 0-.136.532Zm-5.242-4.157v-.421c0-.323.069-.619.207-.887.138-.271.337-.487.597-.649.263-.161.581-.242.953-.242.386 0 .709.081.969.242.261.162.458.378.594.649.135.268.203.564.203.887v.421c0 .323-.069.619-.207.887a1.585 1.585 0 0 1-.598.645c-.26.159-.58.238-.961.238-.38 0-.701-.081-.964-.242a1.614 1.614 0 0 1-.594-.645 1.957 1.957 0 0 1-.199-.883Zm1.144-.421v.421c0 .191.044.366.133.528.091.161.251.242.48.242.24 0 .403-.081.489-.242.088-.162.132-.337.132-.528v-.421c0-.191-.041-.368-.125-.532-.083-.164-.248-.246-.496-.246-.231 0-.392.084-.48.25a1.107 1.107 0 0 0-.133.528Zm-.629 6.5 5.5-8h1.024l-5.5 8h-1.024Zm109.385-59c0 .872-.165 1.614-.496 2.226a3.436 3.436 0 0 1-1.343 1.402c-.565.321-1.201.481-1.907.481-.711 0-1.349-.162-1.914-.484a3.457 3.457 0 0 1-1.34-1.403c-.328-.612-.492-1.353-.492-2.222 0-.873.164-1.615.492-2.227.329-.612.775-1.078 1.34-1.398.565-.323 1.203-.485 1.914-.485.706 0 1.342.162 1.907.485.567.32 1.015.786 1.343 1.398.331.612.496 1.354.496 2.227Zm-1.714 0c0-.566-.085-1.042-.254-1.43-.167-.388-.403-.682-.707-.883a1.91 1.91 0 0 0-1.071-.301c-.408 0-.765.101-1.07.301-.305.201-.542.495-.711.883-.167.388-.25.864-.25 1.43 0 .565.083 1.041.25 1.429.169.388.406.683.711.883a1.9 1.9 0 0 0 1.07.301c.409 0 .766-.1 1.071-.301.304-.2.54-.495.707-.883.169-.388.254-.864.254-1.429Zm2.936 4v-6h1.613v1.046h.063c.109-.372.293-.653.551-.843.258-.193.554-.289.89-.289.084 0 .174.005.27.015.096.011.181.025.254.043v1.477a2.957 2.957 0 0 0-.703-.09c-.245 0-.464.053-.657.16-.19.104-.341.25-.453.438a1.263 1.263 0 0 0-.164.648v3.395h-1.664Zm6.925 2.375c-.539 0-1.001-.075-1.387-.223-.383-.146-.687-.345-.914-.598a1.831 1.831 0 0 1-.441-.851l1.539-.207c.047.119.121.231.222.336.102.104.236.187.403.25.169.065.375.097.617.097.362 0 .66-.088.895-.265.237-.175.355-.468.355-.879v-1.098h-.07a1.602 1.602 0 0 1-.328.473 1.669 1.669 0 0 1-.563.363 2.157 2.157 0 0 1-.82.141c-.451 0-.861-.105-1.231-.313-.367-.211-.66-.532-.879-.965-.216-.435-.324-.984-.324-1.648 0-.68.111-1.248.332-1.703.222-.456.516-.797.883-1.024.37-.226.775-.34 1.215-.34.336 0 .617.058.844.172.226.112.408.253.546.422.141.167.249.331.325.492h.062v-1.007h1.653v6.058c0 .511-.125.938-.375 1.281-.25.344-.597.602-1.04.774-.44.174-.946.262-1.519.262Zm.035-3.711c.268 0 .495-.067.68-.2.187-.135.331-.328.429-.578.102-.252.153-.554.153-.906s-.05-.656-.149-.914a1.347 1.347 0 0 0-.429-.606 1.096 1.096 0 0 0-.684-.214 1.08 1.08 0 0 0-.691.222 1.33 1.33 0 0 0-.426.61c-.096.26-.145.561-.145.902 0 .346.049.646.145.898.099.25.241.444.426.582.187.136.418.204.691.204Zm5.934 1.449c-.383 0-.724-.067-1.024-.199a1.658 1.658 0 0 1-.711-.598c-.172-.266-.257-.596-.257-.992 0-.334.061-.614.183-.84a1.48 1.48 0 0 1 .5-.547c.211-.138.451-.242.719-.312.271-.071.555-.12.851-.149.349-.036.631-.07.844-.101.214-.034.369-.084.465-.149a.327.327 0 0 0 .145-.289v-.023c0-.248-.079-.439-.235-.575-.153-.135-.372-.203-.656-.203-.3 0-.538.067-.715.199a.919.919 0 0 0-.351.493l-1.54-.125c.079-.365.232-.68.461-.946.23-.268.525-.474.887-.617a3.392 3.392 0 0 1 1.266-.219c.333 0 .652.039.957.118.307.078.579.199.816.363.24.164.429.375.567.633.138.255.207.561.207.918v4.047h-1.579v-.833h-.046a1.72 1.72 0 0 1-.387.497c-.162.14-.356.251-.582.332a2.41 2.41 0 0 1-.785.117Zm.476-1.149c.245 0 .461-.048.649-.144.187-.099.334-.232.441-.399.107-.166.16-.355.16-.566v-.637a.884.884 0 0 1-.215.094 3.665 3.665 0 0 1-.3.074 13.13 13.13 0 0 1-.336.059l-.305.043a2.018 2.018 0 0 0-.512.137.82.82 0 0 0-.34.253.626.626 0 0 0-.121.391c0 .227.082.4.246.52.167.117.378.175.633.175Zm5.858-2.433v3.469h-1.664v-6h1.586v1.058h.07c.133-.349.355-.625.668-.828.312-.206.691-.309 1.137-.309.416 0 .78.092 1.089.274.31.182.551.443.723.781.172.336.258.737.258 1.203v3.821h-1.664v-3.524c.002-.367-.091-.654-.281-.859-.191-.209-.452-.313-.786-.313-.224 0-.421.048-.593.145-.17.096-.302.237-.399.422a1.449 1.449 0 0 0-.144.66Zm5.178 3.469v-6h1.664v6h-1.664Zm.836-6.774a.903.903 0 0 1-.636-.246.797.797 0 0 1-.262-.598c0-.229.087-.425.262-.59a.898.898 0 0 1 .636-.25c.248 0 .459.084.633.25a.794.794 0 0 1 0 1.188.89.89 0 0 1-.633.246Zm4.872 6.891c-.614 0-1.143-.13-1.586-.391a2.641 2.641 0 0 1-1.015-1.094c-.235-.466-.352-1.002-.352-1.609 0-.615.119-1.154.356-1.617.239-.466.579-.83 1.019-1.09.44-.263.964-.395 1.571-.395.523 0 .981.095 1.375.286a2.3 2.3 0 0 1 .933.8c.229.344.356.748.379 1.211h-1.57a1.211 1.211 0 0 0-.352-.722c-.187-.185-.433-.278-.738-.278a1.12 1.12 0 0 0-.676.211c-.19.138-.338.34-.445.606-.107.265-.16.587-.16.965 0 .382.052.708.156.976.107.268.256.473.449.613.193.141.418.211.676.211a1.1 1.1 0 0 0 .512-.117.988.988 0 0 0 .379-.34c.101-.151.168-.332.199-.543h1.57a2.456 2.456 0 0 1-.375 1.211 2.262 2.262 0 0 1-.918.813c-.391.195-.853.293-1.387.293Zm-32.702 12.883-2.289-8h1.847l1.325 5.558h.066l1.461-5.558h1.582l1.457 5.57h.07l1.325-5.57h1.847l-2.289 8h-1.648l-1.524-5.231h-.062l-1.52 5.231h-1.648Zm10.632.113c-.383 0-.724-.067-1.024-.199a1.658 1.658 0 0 1-.711-.598c-.172-.266-.258-.596-.258-.992 0-.334.062-.614.184-.84a1.48 1.48 0 0 1 .5-.547c.211-.138.451-.242.719-.312.271-.071.554-.12.851-.149.349-.036.631-.07.844-.101.214-.034.369-.084.465-.149a.326.326 0 0 0 .144-.289v-.023c0-.248-.078-.439-.234-.575-.154-.135-.372-.203-.656-.203-.3 0-.538.067-.715.199a.926.926 0 0 0-.352.493l-1.539-.125c.078-.365.232-.68.461-.946.229-.268.525-.474.887-.617a3.388 3.388 0 0 1 1.266-.219c.333 0 .652.039.957.118.307.078.579.199.816.363.24.164.428.375.566.633.138.255.208.561.208.918v4.047h-1.579v-.833h-.046a1.72 1.72 0 0 1-.387.497c-.162.14-.356.251-.582.332a2.414 2.414 0 0 1-.785.117Zm.476-1.149c.245 0 .461-.048.649-.144.187-.099.334-.232.441-.399.107-.166.16-.355.16-.566v-.637a.902.902 0 0 1-.215.094 3.665 3.665 0 0 1-.3.074 13.13 13.13 0 0 1-.336.059l-.305.043a2.018 2.018 0 0 0-.512.137.82.82 0 0 0-.34.253.626.626 0 0 0-.121.391c0 .227.082.4.246.52.167.117.378.175.633.175Zm9.186-3.254-1.524.094a.785.785 0 0 0-.168-.351.883.883 0 0 0-.34-.254 1.155 1.155 0 0 0-.496-.098c-.257 0-.475.055-.652.164-.177.107-.266.25-.266.43 0 .143.058.264.172.363.115.099.311.179.59.238l1.086.219c.583.12 1.018.313 1.305.578.286.266.429.615.429 1.047 0 .393-.115.738-.347 1.035-.229.297-.544.529-.946.696-.398.164-.858.246-1.378.246-.795 0-1.428-.166-1.899-.496a1.935 1.935 0 0 1-.824-1.36l1.637-.086a.841.841 0 0 0 .359.555c.19.125.434.187.73.187.292 0 .527-.055.704-.167.179-.115.27-.262.273-.442a.46.46 0 0 0-.191-.371c-.125-.099-.318-.174-.579-.227l-1.039-.207c-.586-.117-1.022-.32-1.308-.609-.284-.289-.426-.657-.426-1.105 0-.386.104-.718.313-.997.21-.278.506-.493.886-.644.383-.151.831-.227 1.344-.227.758 0 1.354.161 1.789.481.438.32.693.756.766 1.308Zm4.376-1.71v1.25h-3.614v-1.25h3.614Zm-2.793-1.438h1.664v5.594c0 .153.023.273.07.359a.391.391 0 0 0 .195.176.804.804 0 0 0 .297.051c.078 0 .157-.007.235-.02l.179-.035.262 1.238c-.083.026-.2.056-.352.09a2.78 2.78 0 0 1-.55.067c-.401.015-.753-.038-1.055-.161a1.467 1.467 0 0 1-.699-.57c-.167-.258-.249-.583-.246-.976v-5.813Zm6.547 7.555c-.618 0-1.149-.125-1.594-.375a2.574 2.574 0 0 1-1.024-1.071c-.239-.463-.359-1.011-.359-1.644 0-.617.12-1.159.359-1.625.24-.466.577-.83 1.012-1.09.438-.26.951-.391 1.539-.391.396 0 .765.064 1.106.192.343.125.643.314.898.566.258.253.458.571.602.953.143.381.214.826.214 1.336v.457h-5.066v-1.031h3.5c0-.24-.052-.452-.156-.637a1.115 1.115 0 0 0-.434-.433 1.231 1.231 0 0 0-.636-.16 1.28 1.28 0 0 0-.672.175c-.193.115-.344.27-.453.465-.11.193-.166.408-.168.645v.98c0 .297.054.554.164.77a1.2 1.2 0 0 0 .472.5c.203.117.444.176.723.176.185 0 .354-.027.508-.079a1.008 1.008 0 0 0 .644-.617l1.539.102c-.078.37-.238.692-.48.969-.24.273-.55.487-.93.64a3.504 3.504 0 0 1-1.308.227Zm-26.657 4.883v8h-1.692v-6.395h-.046l-1.832 1.148v-1.5l1.98-1.253h1.59Zm4.972 8.109a3.639 3.639 0 0 1-1.192-.207 2.727 2.727 0 0 1-1.023-.66c-.302-.305-.542-.709-.719-1.211-.175-.503-.262-1.12-.262-1.852.003-.672.08-1.272.231-1.801.153-.531.372-.981.656-1.351.286-.37.629-.651 1.027-.844a3.01 3.01 0 0 1 1.34-.293c.534 0 1.005.104 1.414.313.409.205.737.485.985.839.25.355.401.752.453 1.192h-1.668a1.113 1.113 0 0 0-.41-.656 1.241 1.241 0 0 0-.774-.239c-.521 0-.917.227-1.187.68-.269.453-.405 1.069-.411 1.848h.055c.12-.237.281-.439.485-.606.205-.169.438-.298.699-.386a2.5 2.5 0 0 1 .832-.137 2.374 2.374 0 0 1 2.14 1.25c.214.388.321.832.321 1.332 0 .542-.127 1.023-.379 1.445-.25.422-.6.753-1.051.992-.448.237-.969.355-1.562.352Zm-.008-1.328a1.321 1.321 0 0 0 1.183-.696c.118-.213.176-.453.176-.718 0-.266-.058-.504-.176-.715a1.3 1.3 0 0 0-1.172-.692c-.195 0-.376.037-.543.11a1.351 1.351 0 0 0-.433.305c-.123.13-.219.281-.289.453-.07.169-.106.35-.106.543a1.4 1.4 0 0 0 .661 1.218c.205.128.438.192.699.192Zm4.854 1.32a.913.913 0 0 1-.664-.273.915.915 0 0 1-.273-.664c0-.256.091-.474.273-.657a.913.913 0 0 1 .664-.273c.25 0 .469.091.656.273a.883.883 0 0 1 .282.657.886.886 0 0 1-.133.472 1.005 1.005 0 0 1-.34.34.9.9 0 0 1-.465.125Zm2.304-.101 3.316-6.563v-.055h-3.863v-1.382h5.613v1.402l-3.32 6.598h-1.746Zm13.15-1.5v-.422c0-.321.068-.615.203-.883.138-.271.338-.487.598-.649.263-.164.583-.246.961-.246.383 0 .704.081.965.242.263.162.461.378.594.649.135.268.203.564.203.887v.422c0 .32-.068.615-.203.886a1.592 1.592 0 0 1-.598.645c-.263.164-.583.246-.961.246-.383 0-.704-.082-.965-.246a1.603 1.603 0 0 1-.594-.645 1.959 1.959 0 0 1-.203-.886Zm1.137-.422v.422c0 .184.044.359.133.523.091.164.255.246.492.246s.398-.081.484-.242c.089-.162.133-.337.133-.527v-.422c0-.19-.041-.368-.125-.532-.083-.164-.247-.246-.492-.246-.234 0-.397.082-.488.246a1.081 1.081 0 0 0-.137.532Zm-5.242-4.157v-.421c0-.323.069-.619.207-.887a1.61 1.61 0 0 1 .598-.649c.263-.161.58-.242.953-.242.385 0 .708.081.968.242.261.162.459.378.594.649.136.268.203.564.203.887v.421c0 .323-.069.619-.207.887a1.583 1.583 0 0 1-.597.645c-.261.159-.581.238-.961.238-.381 0-.702-.081-.965-.242a1.614 1.614 0 0 1-.594-.645 1.957 1.957 0 0 1-.199-.883Zm1.144-.421v.421c0 .191.045.366.133.528.091.161.251.242.481.242.239 0 .402-.081.488-.242.088-.162.133-.337.133-.528v-.421a1.16 1.16 0 0 0-.125-.532c-.084-.164-.249-.246-.496-.246-.232 0-.392.084-.481.25a1.118 1.118 0 0 0-.133.528Zm-.629 6.5 5.5-8h1.024l-5.5 8h-1.024ZM169.732 85.606l-2.29-8h1.848l1.324 5.56h.067l1.461-5.56h1.582l1.457 5.57h.07l1.324-5.57h1.848l-2.289 8h-1.649l-1.523-5.23h-.063l-1.519 5.23h-1.648Zm11.631.118c-.606 0-1.131-.13-1.574-.387-.44-.26-.78-.622-1.019-1.086-.24-.466-.36-1.007-.36-1.621 0-.62.12-1.161.36-1.625a2.61 2.61 0 0 1 1.019-1.086c.443-.26.968-.39 1.574-.39.607 0 1.131.13 1.571.39.442.258.784.62 1.023 1.086.24.464.359 1.005.359 1.625 0 .615-.119 1.155-.359 1.621a2.639 2.639 0 0 1-1.023 1.086c-.44.258-.964.387-1.571.387Zm.008-1.29c.276 0 .507-.078.692-.234.184-.159.324-.375.418-.648a2.81 2.81 0 0 0 .144-.934c0-.349-.048-.66-.144-.933a1.464 1.464 0 0 0-.418-.649 1.026 1.026 0 0 0-.692-.238c-.278 0-.513.08-.703.238a1.476 1.476 0 0 0-.426.649c-.093.273-.14.584-.14.933 0 .35.047.66.14.934.097.273.239.49.426.648.19.156.425.235.703.235Zm6.738 1.29c-.606 0-1.131-.13-1.574-.387-.44-.26-.78-.622-1.019-1.086-.24-.466-.36-1.007-.36-1.621 0-.62.12-1.161.36-1.625a2.61 2.61 0 0 1 1.019-1.086c.443-.26.968-.39 1.574-.39.607 0 1.131.13 1.571.39.442.258.784.62 1.023 1.086.24.464.36 1.005.36 1.625 0 .615-.12 1.155-.36 1.621a2.639 2.639 0 0 1-1.023 1.086c-.44.258-.964.387-1.571.387Zm.008-1.29c.276 0 .507-.078.692-.234.185-.159.324-.375.418-.648a2.81 2.81 0 0 0 .144-.934c0-.349-.048-.66-.144-.933a1.455 1.455 0 0 0-.418-.649 1.026 1.026 0 0 0-.692-.238c-.278 0-.513.08-.703.238a1.476 1.476 0 0 0-.426.649c-.093.273-.14.584-.14.933 0 .35.047.66.14.934.097.273.239.49.426.648.19.156.425.235.703.235Zm6.239 1.27a2.27 2.27 0 0 1-1.239-.351c-.367-.237-.659-.585-.875-1.043-.213-.461-.32-1.026-.32-1.696 0-.687.111-1.259.332-1.715.221-.458.516-.8.883-1.027.37-.229.775-.344 1.215-.344.336 0 .616.058.839.172.227.112.409.253.547.422.141.167.248.33.321.492h.05v-3.008h1.661v8h-1.641v-.96h-.07a2.148 2.148 0 0 1-.332.496 1.66 1.66 0 0 1-.551.402c-.224.107-.498.16-.82.16Zm.527-1.324c.268 0 .495-.073.68-.219a1.39 1.39 0 0 0 .429-.62c.102-.266.153-.578.153-.934 0-.357-.05-.667-.149-.93a1.331 1.331 0 0 0-.43-.61 1.09 1.09 0 0 0-.683-.214 1.08 1.08 0 0 0-.692.222 1.36 1.36 0 0 0-.425.617 2.635 2.635 0 0 0-.145.915c0 .349.048.657.145.925.099.266.241.474.425.625.188.149.418.223.692.223Zm9.254 1.344c-.552 0-1.029-.1-1.43-.297a2.246 2.246 0 0 1-.926-.805 2.11 2.11 0 0 1-.32-1.14c0-.313.063-.59.188-.832.125-.243.299-.465.523-.669a7.04 7.04 0 0 1 .781-.613l1.551-1.02c.201-.127.348-.261.441-.402a.831.831 0 0 0 .141-.465.635.635 0 0 0-.191-.44c-.128-.136-.309-.203-.543-.2a.763.763 0 0 0-.676.375.722.722 0 0 0-.094.367c0 .167.047.336.141.508.093.172.218.354.375.547.156.19.327.396.511.617l3.793 4.352h-1.734l-3.164-3.524a23.423 23.423 0 0 1-.625-.742 4.29 4.29 0 0 1-.516-.828 2.226 2.226 0 0 1-.207-.957c0-.388.09-.737.27-1.047.182-.31.437-.555.765-.734.329-.183.711-.274 1.149-.274.427 0 .795.087 1.105.262a1.829 1.829 0 0 1 .973 1.625c0 .377-.094.72-.281 1.027a2.843 2.843 0 0 1-.781.82l-1.633 1.176a1.857 1.857 0 0 0-.492.496.904.904 0 0 0-.157.48.949.949 0 0 0 .539.872c.172.086.374.129.606.129.281 0 .558-.064.832-.192.276-.13.526-.313.75-.55a2.776 2.776 0 0 0 .746-1.942h1.379c0 .49-.054.931-.16 1.324a3.613 3.613 0 0 1-.446 1.024c-.19.289-.407.526-.652.71-.078.05-.154.097-.227.141-.072.045-.148.091-.226.141a2.83 2.83 0 0 1-.996.52 3.84 3.84 0 0 1-1.082.16Zm-53.806 12.882-2.289-8h1.848l1.324 5.56h.066l1.461-5.56h1.582l1.457 5.57h.071l1.324-5.57h1.848l-2.29 8h-1.648l-1.523-5.23h-.063l-1.519 5.23h-1.649Zm11.632.118c-.607 0-1.132-.13-1.574-.387a2.65 2.65 0 0 1-1.02-1.086c-.239-.466-.359-1.007-.359-1.621 0-.62.12-1.161.359-1.625a2.62 2.62 0 0 1 1.02-1.086c.442-.26.967-.39 1.574-.39.607 0 1.13.13 1.57.39.443.258.784.62 1.024 1.086.239.464.359 1.005.359 1.625 0 .615-.12 1.155-.359 1.621a2.64 2.64 0 0 1-1.024 1.086c-.44.258-.963.387-1.57.387Zm.008-1.29c.276 0 .506-.078.691-.234.185-.159.324-.375.418-.648.097-.274.145-.585.145-.934 0-.349-.048-.66-.145-.933a1.455 1.455 0 0 0-.418-.649 1.023 1.023 0 0 0-.691-.238c-.279 0-.513.08-.703.238a1.46 1.46 0 0 0-.426.649 2.865 2.865 0 0 0-.141.933c0 .35.047.66.141.934.096.273.238.49.426.648.19.156.424.235.703.235Zm6.738 1.29c-.607 0-1.131-.13-1.574-.387a2.65 2.65 0 0 1-1.02-1.086c-.239-.466-.359-1.007-.359-1.621 0-.62.12-1.161.359-1.625a2.62 2.62 0 0 1 1.02-1.086c.443-.26.967-.39 1.574-.39.607 0 1.13.13 1.57.39.443.258.784.62 1.024 1.086.239.464.359 1.005.359 1.625 0 .615-.12 1.155-.359 1.621a2.64 2.64 0 0 1-1.024 1.086c-.44.258-.963.387-1.57.387Zm.008-1.29c.276 0 .506-.078.691-.234.185-.159.324-.375.418-.648.097-.274.145-.585.145-.934 0-.349-.048-.66-.145-.933a1.455 1.455 0 0 0-.418-.649 1.023 1.023 0 0 0-.691-.238c-.279 0-.513.08-.703.238a1.46 1.46 0 0 0-.426.649 2.865 2.865 0 0 0-.141.933c0 .35.047.66.141.934.096.273.238.49.426.648.19.156.424.235.703.235Zm6.238 1.27c-.456 0-.868-.117-1.238-.351-.367-.237-.659-.585-.875-1.043-.214-.461-.32-1.026-.32-1.696 0-.687.11-1.259.332-1.715.221-.458.515-.8.882-1.027.37-.229.775-.344 1.215-.344.336 0 .616.058.84.172.227.112.409.253.547.422.141.167.247.33.32.492h.051v-3.008h1.66v8h-1.64v-.96h-.071a2.148 2.148 0 0 1-.332.496 1.64 1.64 0 0 1-.551.402c-.223.107-.497.16-.82.16Zm.527-1.324c.269 0 .495-.073.68-.219a1.38 1.38 0 0 0 .43-.62 2.62 2.62 0 0 0 .152-.934c0-.357-.049-.667-.148-.93a1.331 1.331 0 0 0-.43-.61 1.091 1.091 0 0 0-.684-.214 1.08 1.08 0 0 0-.691.222 1.37 1.37 0 0 0-.426.617 2.66 2.66 0 0 0-.144.915c0 .349.048.657.144.925.099.266.241.474.426.625.188.149.418.223.691.223Zm6.833 1.227v-8h3.156c.607 0 1.123.115 1.551.347.427.23.752.548.976.957.227.406.34.875.34 1.406 0 .532-.115 1-.344 1.407a2.368 2.368 0 0 1-.996.949c-.432.227-.956.34-1.57.34h-2.012v-1.356h1.738c.326 0 .594-.056.805-.168.214-.114.372-.272.477-.472a1.49 1.49 0 0 0 .16-.7c0-.265-.054-.497-.16-.695a1.073 1.073 0 0 0-.477-.465c-.213-.112-.484-.168-.812-.168h-1.141v6.617h-1.691Zm7.09 0v-6h1.614v1.046h.062c.11-.372.293-.653.551-.843a1.45 1.45 0 0 1 .891-.29 2.511 2.511 0 0 1 .523.06v1.476a2.925 2.925 0 0 0-.703-.09c-.245 0-.464.053-.656.16-.191.104-.342.25-.454.438a1.267 1.267 0 0 0-.164.648v3.394h-1.664Zm6.933.117c-.607 0-1.132-.13-1.574-.387a2.65 2.65 0 0 1-1.02-1.086c-.239-.466-.359-1.007-.359-1.621 0-.62.12-1.161.359-1.625a2.62 2.62 0 0 1 1.02-1.086c.442-.26.967-.39 1.574-.39.607 0 1.13.13 1.57.39.443.258.784.62 1.024 1.086.239.464.359 1.005.359 1.625 0 .615-.12 1.155-.359 1.621a2.64 2.64 0 0 1-1.024 1.086c-.44.258-.963.387-1.57.387Zm.008-1.29c.276 0 .506-.078.691-.234.185-.159.324-.375.418-.648.097-.274.145-.585.145-.934 0-.349-.048-.66-.145-.933a1.455 1.455 0 0 0-.418-.649 1.023 1.023 0 0 0-.691-.238c-.279 0-.513.08-.703.238a1.46 1.46 0 0 0-.426.649 2.865 2.865 0 0 0-.141.933c0 .35.047.66.141.934.096.273.238.49.426.648.19.156.424.235.703.235Zm6.238 1.27c-.456 0-.868-.117-1.238-.351-.367-.237-.659-.585-.875-1.043-.214-.461-.321-1.026-.321-1.696 0-.687.111-1.259.332-1.715.222-.458.516-.8.883-1.027.37-.229.775-.344 1.215-.344.336 0 .616.058.84.172.227.112.409.253.547.422.14.167.247.33.32.492h.051v-3.008h1.66v8h-1.641v-.96h-.07a2.148 2.148 0 0 1-.332.496 1.64 1.64 0 0 1-.551.402c-.224.107-.497.16-.82.16Zm.527-1.324c.269 0 .495-.073.68-.219a1.38 1.38 0 0 0 .43-.62 2.62 2.62 0 0 0 .152-.934c0-.357-.049-.667-.148-.93a1.339 1.339 0 0 0-.43-.61 1.093 1.093 0 0 0-.684-.214 1.08 1.08 0 0 0-.691.222 1.363 1.363 0 0 0-.426.617 2.66 2.66 0 0 0-.144.915c0 .349.048.657.144.925.099.266.241.474.426.625.187.149.418.223.691.223Zm8.103-1.328v-3.446h1.664v6h-1.598v-1.09h-.062a1.776 1.776 0 0 1-.676.848c-.312.214-.694.32-1.144.32-.402 0-.754-.09-1.059-.273a1.88 1.88 0 0 1-.715-.777c-.169-.336-.255-.738-.258-1.207v-3.82h1.664v3.523c.003.354.098.634.286.84.187.206.438.308.753.308a1.2 1.2 0 0 0 .563-.136c.174-.094.315-.232.422-.414a1.27 1.27 0 0 0 .16-.676Zm5.706 2.672c-.615 0-1.143-.13-1.586-.39a2.642 2.642 0 0 1-1.016-1.095c-.234-.466-.351-1.002-.351-1.609 0-.615.118-1.154.355-1.617.24-.466.58-.83 1.02-1.09.44-.263.963-.395 1.57-.395.524 0 .982.095 1.375.286a2.3 2.3 0 0 1 .934.8c.229.344.355.748.379 1.211h-1.571c-.044-.3-.161-.54-.351-.722-.188-.185-.434-.278-.738-.278-.258 0-.484.07-.676.211-.19.138-.339.34-.446.606-.106.265-.16.587-.16.965 0 .382.052.708.157.976.106.268.256.473.449.613.192.141.418.211.676.211.19 0 .36-.039.511-.117a.986.986 0 0 0 .379-.34c.102-.15.168-.332.199-.543h1.571a2.458 2.458 0 0 1-.375 1.211 2.273 2.273 0 0 1-.918.813c-.391.195-.853.293-1.387.293Zm6.937-6.118v1.25h-3.614v-1.25h3.614Zm-2.793-1.437h1.664v5.594c0 .153.023.273.07.36a.388.388 0 0 0 .195.175c.086.034.185.05.297.05.078 0 .156-.006.234-.019l.18-.035.262 1.238a4.663 4.663 0 0 1-.352.09 2.814 2.814 0 0 1-.55.067 2.53 2.53 0 0 1-1.055-.16 1.466 1.466 0 0 1-.699-.57c-.167-.259-.249-.584-.246-.978V91.17Zm8.793 3.148-1.523.094a.787.787 0 0 0-.168-.351.89.89 0 0 0-.34-.254 1.153 1.153 0 0 0-.496-.098 1.22 1.22 0 0 0-.652.164c-.177.107-.266.25-.266.43 0 .143.057.264.172.363.115.1.311.178.59.238l1.086.22c.583.119 1.018.312 1.305.577.286.266.429.615.429 1.047 0 .393-.116.738-.347 1.035-.23.297-.545.529-.946.696-.398.164-.858.246-1.379.246-.794 0-1.427-.166-1.898-.496a1.93 1.93 0 0 1-.824-1.36l1.636-.086c.05.243.17.427.36.555.19.125.433.188.73.188.292 0 .526-.056.703-.169.18-.114.271-.261.274-.44a.461.461 0 0 0-.192-.372c-.125-.099-.317-.174-.578-.227l-1.039-.207c-.586-.117-1.022-.32-1.308-.609-.284-.289-.426-.657-.426-1.105 0-.386.104-.718.312-.996.211-.28.507-.494.887-.645.383-.151.831-.227 1.344-.227.758 0 1.354.16 1.789.48.437.321.693.757.765 1.31Zm-54.029 9.29v8h-1.692v-6.395h-.047l-1.832 1.148v-1.5l1.981-1.253h1.59Zm4.885 8.109c-.601 0-1.136-.098-1.605-.293-.466-.198-.832-.468-1.098-.809a1.842 1.842 0 0 1-.398-1.16c0-.333.075-.639.226-.918.154-.281.362-.514.625-.699.263-.188.558-.307.883-.359v-.055a1.737 1.737 0 0 1-1.039-.621 1.791 1.791 0 0 1-.398-1.153c0-.414.121-.782.363-1.105.242-.325.574-.581.996-.766a3.551 3.551 0 0 1 1.445-.281c.54 0 1.02.094 1.442.281.424.188.758.444 1 .77.242.323.364.69.367 1.101a1.786 1.786 0 0 1-.406 1.153 1.746 1.746 0 0 1-1.031.621v.055c.32.052.61.171.871.359.263.185.471.418.625.699a1.885 1.885 0 0 1-.164 2.078c-.266.341-.633.611-1.102.809-.466.195-1 .293-1.602.293Zm0-1.242a1.6 1.6 0 0 0 .704-.145c.2-.099.356-.234.468-.406a1.07 1.07 0 0 0 .172-.602 1.08 1.08 0 0 0-.176-.613 1.21 1.21 0 0 0-.476-.422 1.482 1.482 0 0 0-.692-.156c-.257 0-.488.052-.691.156a1.202 1.202 0 0 0-.48.422 1.101 1.101 0 0 0-.172.613c0 .227.056.427.168.602.112.172.269.307.472.406.203.097.438.145.703.145Zm0-3.575c.224 0 .424-.045.598-.136.175-.091.311-.218.41-.379a1.05 1.05 0 0 0 .149-.559 1.003 1.003 0 0 0-.555-.918 1.267 1.267 0 0 0-.602-.136 1.28 1.28 0 0 0-.601.136 1.017 1.017 0 0 0-.41.371 1.018 1.018 0 0 0-.145.547c0 .211.05.397.149.559.099.161.235.288.41.379.174.091.373.136.597.136Zm5.051 4.809a.913.913 0 0 1-.664-.273.915.915 0 0 1-.273-.664c0-.256.091-.474.273-.657a.913.913 0 0 1 .664-.273c.25 0 .469.091.656.273a.883.883 0 0 1 .282.657.886.886 0 0 1-.133.472 1.005 1.005 0 0 1-.34.34.898.898 0 0 1-.465.125Zm5.032-8.211c.412 0 .808.069 1.188.207.383.138.724.358 1.023.66.302.302.541.703.715 1.203.177.498.267 1.109.27 1.832 0 .68-.077 1.287-.231 1.821a4.02 4.02 0 0 1-.652 1.355 2.843 2.843 0 0 1-1.027.852 3.059 3.059 0 0 1-1.344.289c-.534 0-1.005-.103-1.414-.309a2.655 2.655 0 0 1-.988-.847 2.635 2.635 0 0 1-.45-1.211h1.668c.065.291.202.518.41.679.209.159.467.239.774.239.521 0 .917-.227 1.187-.68.271-.456.408-1.079.411-1.871h-.055c-.12.234-.281.436-.485.605a2.244 2.244 0 0 1-.699.387c-.26.091-.538.137-.832.137-.471 0-.892-.111-1.262-.332a2.396 2.396 0 0 1-.875-.914 2.715 2.715 0 0 1-.32-1.328 2.723 2.723 0 0 1 .371-1.434c.25-.419.599-.747 1.047-.984.451-.24.974-.358 1.57-.356Zm.012 1.328a1.328 1.328 0 0 0-1.187.692 1.388 1.388 0 0 0-.172.707c0 .263.057.5.172.711.117.208.276.375.476.5.203.122.435.183.696.183a1.34 1.34 0 0 0 .976-.41 1.435 1.435 0 0 0 .399-.988 1.448 1.448 0 0 0-.18-.696 1.371 1.371 0 0 0-.485-.507 1.286 1.286 0 0 0-.695-.192Zm11.28 5.282v-.422c0-.321.068-.615.204-.883.138-.271.337-.487.597-.649.263-.164.584-.246.961-.246.383 0 .705.081.965.242.263.162.461.378.594.649.135.268.203.564.203.887v.422c0 .32-.068.615-.203.886a1.592 1.592 0 0 1-.598.645c-.263.164-.583.246-.961.246-.383 0-.704-.082-.965-.246a1.593 1.593 0 0 1-.593-.645 1.946 1.946 0 0 1-.204-.886Zm1.137-.422v.422c0 .184.044.359.133.523.091.164.255.246.492.246s.399-.081.485-.242c.088-.162.132-.337.132-.527v-.422c0-.19-.041-.368-.125-.532-.083-.164-.247-.246-.492-.246-.234 0-.397.082-.488.246a1.081 1.081 0 0 0-.137.532Zm-5.242-4.157v-.421c0-.323.069-.619.207-.887a1.61 1.61 0 0 1 .598-.649c.263-.161.58-.242.953-.242.385 0 .708.081.969.242.26.162.458.378.593.649.136.268.203.564.203.887v.421c0 .323-.069.619-.207.887a1.583 1.583 0 0 1-.597.645c-.261.159-.581.238-.961.238s-.702-.081-.965-.242a1.629 1.629 0 0 1-.594-.645 1.957 1.957 0 0 1-.199-.883Zm1.145-.421v.421c0 .191.044.366.132.528.091.161.252.242.481.242.239 0 .402-.081.488-.242.089-.162.133-.337.133-.528v-.421a1.16 1.16 0 0 0-.125-.532c-.083-.164-.249-.246-.496-.246-.232 0-.392.084-.481.25a1.117 1.117 0 0 0-.132.528Zm-.629 6.5 5.5-8h1.023l-5.5 8h-1.023Z" fill="#fff"/></svg>