<svg xmlns="http://www.w3.org/2000/svg" xml:space="preserve" width="100%" height="100%" viewBox="0 0 1210 1210"><path d="m1052.839 488.544 101.102 3.003-502.503-385.385-484.484 378.957 93.093 3.003 6.006 520.943H152.94v97.097h1001v-97.097h-101.102V488.544ZM749.841 671.509c-30.72 79.497-99.8 142.533-170.267 172.929-6.076 2.622-9.72 7.48-12.15 12.339-24.196 54.306-8.625 151.508-8.236 161.559.967 25.011-15.642 19.812-22.941 5.023-17.313-35.075-19.857-116.717-14.989-165.364 1.215-12.151-4.859-18.226-9.72-25.514-33.419-47.345-121.313-186.741-2.278-344.085 71.994-92.863 171.35-113.517 209.938-184.149 70.006 90.659 68.713 267.946 30.643 367.262z" transform="translate(-48.78 12.195)"/><path d="M527.428 771.952c8.028 37.334 54.017 33.776 49.486-42.795-3.127-52.855 21.899-185.289 116.86-306.104-176.298 124.986-170.577 300.169-166.346 348.899Z" transform="translate(-48.78 12.195)"/></svg>