<svg xmlns="http://www.w3.org/2000/svg" xml:space="preserve" viewBox="0 0 1210 1210" width="100%" height="100%"><path d="M525.68 883.317v90.984c0 17.908-14.291 33.797-35.178 33.822-50.285 0-227.217-.025-286.092-.025-77.998 0-135.391-87.162-107.064-170.529C106.242 811.366 205.074 626.7 205.074 626.7l-87.303-46.592 231.309-76.336 90.191 235.91s-77.436-37.055-98.373-49.211c-13.523 20.336-45.684 92.658-69.229 136.285-4.908 9.049-5.6 20.822 4.652 20.859 52.484.41 197.998 1.521 211.369 1.521 16.029.002 37.99 6.879 37.99 34.181zM419.51 502.048a113722.106 113722.106 0 0 1-80.707-41.977c-15.902-8.246-23.418-28.275-13.805-46.797 23.213-44.623 104.865-200.439 132.041-252.68 35.994-69.178 139.787-79.852 200.707-16.285 19.123 19.992 137.359 192.871 137.359 192.871l81.652-55.986-39.011 240.436-250.916-28.824s68.564-51.615 89.041-64.562c-11.785-21.385-61.15-83.277-88.99-124.309-5.752-8.525-15.875-14.584-20.656-5.471-24.566 46.361-92.723 173.789-98.883 185.637-7.414 14.214-23.598 30.537-47.832 17.947zM812.438 580.556c24.414-12.232 65.395-32.734 81.346-40.75 16.029-8.027 36.635-2.338 45.992 16.311 22.521 44.969 113.326 224.305 139.684 276.93 34.896 69.752-17.332 160.072-104.559 172.074-27.379 3.797-236.779-1.904-236.779-1.904l-2.582 98.947-171.796-172.638 170.543-186.277s1.533 85.795.051 109.953c24.234 3.018 103.307-.625 152.85.908 10.277.32 21.117-4.295 16.566-13.523-23.162-47.129-98.857-198.791-104.865-210.768-7.159-14.328-10.891-37.056 13.549-49.263z" transform="translate(18.293 6.098)"/></svg>