<svg xmlns="http://www.w3.org/2000/svg" xml:space="preserve" viewBox="0 0 1210 1210" width="100%" height="100%"><path d="M1077.77 790.862c1.837.383 3.681.749 5.531 1.093a74.497 74.497 0 0 1-3.012-7.622c-.741 2.231-1.599 4.398-2.519 6.529zM300.924 792.041c1.86-.342 3.712-.705 5.558-1.087a73.28 73.28 0 0 1-2.536-6.621 80.079 80.079 0 0 1-3.022 7.708z" transform="translate(105.14 170.443) scale(.71927)"/><path d="M300.924 792.041a79.555 79.555 0 0 0 3.021-7.708 73.28 73.28 0 0 0 2.536 6.621c46.275-9.566 87.994-31.491 121.792-62.094 16.727-15.146 31.5-32.336 43.949-51.385 10.875 16.818 23.695 32.243 38.004 46.088 46.832 44.973 110.203 72.756 180.266 72.756 73.129 0 139.102-30.198 186.305-78.702.037 1.112.086 2.222.138 3.331 13.323-13.169 25.252-27.698 35.448-43.473 12.359 19.049 27.227 36.238 44.047 51.385 33.688 30.503 75.244 52.387 121.34 62.002.921-2.131 1.778-4.298 2.52-6.529a74.267 74.267 0 0 0 3.012 7.622 259.632 259.632 0 0 0 47.445 4.364c60.735 0 116.627-20.884 160.927-55.843l132.233-328.008h-190.855c-38.75-144.304-91.898-216.409-159.824-216.409h-56.586v-53.708c0-25.46-8.363-38.189-25.184-38.189H886.551c-17.934 0-26.852 12.729-26.852 38.189v53.708H528.812v-53.708c0-25.46-9.012-38.189-26.945-38.189H398.168c-16.727 0-24.996 12.729-24.996 38.189v53.708h-56.586c-68.762 0-122.469 72.105-161.125 216.409H-34L98.353 744.615c43.389 32.461 97.243 51.704 155.604 51.704 16.052 0 31.742-1.479 46.967-4.278zm772.303-523.876c9.387 0 21.188 9.478 35.402 28.341 18.863 25.46 35.773 64.114 50.828 115.963H958.656l-9.848-144.304zm-342.223 0h147.094l8.453 144.304H731.004Zm-219.289 0h147.184v144.304H501.867Zm-230.442 28.341c14.125-18.863 25.926-28.341 35.312-28.341h123.117l-8.551 144.304H230.355c15.145-51.849 32.055-90.503 50.918-115.963ZM1130.746 931.703c-67.184 0-128.137-25.646-174.316-67.459-16.82-15.146-31.688-32.336-44.047-51.478-10.195 15.772-22.124 30.382-35.445 43.56a257.6 257.6 0 0 1-.141-3.419c-47.203 48.504-113.176 78.796-186.305 78.796-70.062 0-133.434-27.783-180.266-72.756-14.309-13.845-27.129-29.362-38.004-46.181-12.449 19.142-27.223 36.331-43.949 51.478-46.18 41.813-107.137 67.459-174.316 67.459-90.691 0-170.508-46.46-217.062-116.8v177.012c46.926 67.831 125.164 112.247 213.902 112.247 91.617 0 171.996-47.389 218.27-118.751 46.367 71.362 126.832 118.751 218.266 118.751 94.978 0 177.757-50.949 223.235-126.735a258.206 258.206 0 0 0 4.976 7.984c46.273 71.362 126.648 118.751 218.27 118.751 88.738 0 166.977-44.416 213.992-112.247V814.903c-46.646 70.34-126.466 116.8-217.06 116.8z" transform="translate(105.14 170.443) scale(.71927)"/></svg>