<svg xmlns="http://www.w3.org/2000/svg" xml:space="preserve" viewBox="0 0 1210 1210" width="100%" height="100%"><path d="M1109.318 991.505c-58.871 0-122.316-25.87-190.688-77.707-12.791-7.835-37.766-27.502-37.766-27.502-58.904 69.426-124.43 104.154-196.828 104.154-65.348 0-132.406-25.807-201.225-77.645-24.752-18.228-37.943-27.373-39.734-27.373-1.742 0-14.166 9.146-37.062 27.373-68.273 51.838-131.783 77.645-190.672 77.645-45.297 0-84.807-9.274-118.225-28.27C77.645 951.053 45.219 925.726 0 886.296v139.586c32.395 37.607 63.861 65.173 94.449 82.889 35.289 19.954 75.598 29.996 120.895 29.996 44.738 0 87.717-10.905 128.873-32.683 29.373-15.861 65.604-41.955 108.6-78.507 65.779 74.158 140.914 111.189 225.018 111.189 76.492 0 144.127-31.403 203.031-94.433 0 0 70.32 52.732 100.156 65.428 0 0 14.016 6.752 36.809 13.929 26.072 9.462 52.794 14.758 80.227 15.893a302.02 302.02 0 0 0 23.605.942l-.833-.93c40.655-1.57 77.115-11.527 109.401-29.834 30.699-17.62 62.102-45.25 94.527-82.889v-139.52c-45.346 39.557-77.707 64.756-97.086 75.853-33.61 18.866-73.039 28.3-118.354 28.3zM1338.445 255.808s-75.98 106.968-105.113 186.211c-23.473 62.294-29.164 136.164-52.637 198.427-.799 0-31.34-204.566-31.34-233.731 0-63.062-6.715-152.857 27.693-266.188-89.859 86.47-88.58 329.25-88.58 373.765 0 38.822 5.277 81.705 15.766 128.586-7.227 0-71.568-131.433-95.84-195.357-29.963-81.673-59.447-150.459-88.58-206.261 24.305 89.795 40.068 151.706 47.359 185.667 14.551 67.154 23.824 129.385 27.887 186.818l1.565 58.057c-25.26-12.325-51.249-28.601-77.995-48.879-12.791-7.835-37.766-27.47-37.766-27.47-25.597 30.127-52.446 53.724-80.563 70.787-20.759-162.255 79.124-410.431 79.124-410.431s-75.98 106.968-105.082 186.211c-23.504 62.294-29.229 136.164-52.684 198.427-.783 0-31.371-204.566-31.371-233.731 0-63.062-6.684-152.857 27.725-266.188-89.844 86.47-88.549 329.25-88.549 373.765 0 38.822 5.246 81.705 15.766 128.586-7.275 0-71.6-131.433-95.871-195.357-29.932-81.673-59.432-150.459-88.564-206.261 24.271 89.795 40.021 151.706 47.312 185.667 14.598 67.154 23.871 129.385 27.918 186.818l1.19 43.906c-18.012-10.09-36.145-21.983-54.403-35.72-24.752-18.228-37.943-27.438-39.734-27.438-1.742 0-14.166 9.21-37.062 27.438-21.033 15.95-41.612 29.432-61.745 40.466-18.722-162.299 79.557-406.588 79.557-406.588S347.863 362.775 318.73 442.019c-23.457 62.294-29.197 136.164-52.652 198.427-.799 0-31.307-204.566-31.307-233.731 0-63.062-6.748-152.857 27.693-266.188-89.893 86.47-88.598 329.25-88.598 373.765 0 38.822 5.262 81.705 15.781 128.586-7.291 0-71.584-131.433-95.855-195.357C63.846 365.846 34.346 297.06 5.213 241.258 29.5 331.053 45.266 392.964 52.541 426.925c14.566 67.154 23.855 129.385 27.918 186.818l1.292 47.7C62.166 647.852 34.896 625.855 0 595.451v139.49c32.395 37.671 63.861 65.236 94.449 82.889 35.289 20.019 75.598 29.996 120.895 29.996 44.738 0 87.717-10.841 128.873-32.618 29.373-15.926 65.604-42.021 108.6-78.539 65.779 74.189 140.914 111.157 225.018 111.157 76.492 0 144.127-31.436 203.031-94.401 0 0 70.32 52.733 100.156 65.46 0 0 13.91 6.679 36.548 13.803 26.146 9.504 52.946 14.792 80.462 15.923 7.697.603 15.592.942 23.631.942l-.832-.93c40.654-1.564 77.114-11.489 109.4-29.738 30.699-17.684 62.102-45.281 94.527-82.952V596.475c-26.871 23.384-49.181 41.792-66.934 55.233-13.45-162.107 80.621-395.9 80.621-395.9z" transform="translate(64.247 87.435) scale(.80803)"/></svg>